G04 #@! TF.GenerationSoftware,KiCad,Pcbnew,5.1.4-e60b266~84~ubuntu16.04.1*
G04 #@! TF.CreationDate,2019-11-09T12:49:13+01:00*
G04 #@! TF.ProjectId,MiniVarioL0,4d696e69-5661-4726-996f-4c302e6b6963,v1.0.0*
G04 #@! TF.SameCoordinates,PX84157a0PY7270e00*
G04 #@! TF.FileFunction,Soldermask,Top*
G04 #@! TF.FilePolarity,Negative*
%FSLAX46Y46*%
G04 Gerber Fmt 4.6, Leading zero omitted, Abs format (unit mm)*
G04 Created by KiCad (PCBNEW 5.1.4-e60b266~84~ubuntu16.04.1) date 2019-11-09 12:49:13*
%MOMM*%
%LPD*%
G04 APERTURE LIST*
%ADD10C,0.127000*%
%ADD11R,1.725000X1.725000*%
%ADD12R,0.250000X0.700000*%
%ADD13R,0.700000X0.250000*%
%ADD14R,0.875000X0.875000*%
%ADD15O,0.300000X0.800000*%
%ADD16O,0.800000X0.300000*%
%ADD17R,0.550000X1.700000*%
%ADD18R,0.900000X1.000000*%
%ADD19R,1.700000X0.550000*%
%ADD20R,1.000000X0.900000*%
%ADD21R,0.500000X0.600000*%
%ADD22R,0.600000X0.500000*%
%ADD23R,0.750000X0.800000*%
%ADD24R,0.800000X0.750000*%
%ADD25R,0.800000X0.600000*%
%ADD26R,0.800000X0.800000*%
%ADD27R,0.500000X0.900000*%
%ADD28O,0.800000X3.000000*%
%ADD29R,4.000000X1.500000*%
%ADD30R,0.650000X1.220000*%
%ADD31R,0.400000X0.600000*%
%ADD32R,0.600000X0.400000*%
%ADD33R,0.550000X0.950000*%
G04 APERTURE END LIST*
D10*
X10266666Y3683334D02*
X10266666Y4383334D01*
X10533333Y4383334D01*
X10600000Y4350000D01*
X10633333Y4316667D01*
X10666666Y4250000D01*
X10666666Y4150000D01*
X10633333Y4083334D01*
X10600000Y4050000D01*
X10533333Y4016667D01*
X10266666Y4016667D01*
X10900000Y4383334D02*
X11066666Y3683334D01*
X11200000Y4183334D01*
X11333333Y3683334D01*
X11500000Y4383334D01*
X12166666Y3683334D02*
X11933333Y4016667D01*
X11766666Y3683334D02*
X11766666Y4383334D01*
X12033333Y4383334D01*
X12100000Y4350000D01*
X12133333Y4316667D01*
X12166666Y4250000D01*
X12166666Y4150000D01*
X12133333Y4083334D01*
X12100000Y4050000D01*
X12033333Y4016667D01*
X11766666Y4016667D01*
X16183333Y2183334D02*
X16216666Y2283334D01*
X16216666Y2450000D01*
X16183333Y2516667D01*
X16150000Y2550000D01*
X16083333Y2583334D01*
X16016666Y2583334D01*
X15950000Y2550000D01*
X15916666Y2516667D01*
X15883333Y2450000D01*
X15850000Y2316667D01*
X15816666Y2250000D01*
X15783333Y2216667D01*
X15716666Y2183334D01*
X15650000Y2183334D01*
X15583333Y2216667D01*
X15550000Y2250000D01*
X15516666Y2316667D01*
X15516666Y2483334D01*
X15550000Y2583334D01*
X15850000Y2883334D02*
X15850000Y3116667D01*
X16216666Y3216667D02*
X16216666Y2883334D01*
X15516666Y2883334D01*
X15516666Y3216667D01*
X15716666Y16616667D02*
X15016666Y16616667D01*
X15016666Y16783334D01*
X15050000Y16883334D01*
X15116666Y16950000D01*
X15183333Y16983334D01*
X15316666Y17016667D01*
X15416666Y17016667D01*
X15550000Y16983334D01*
X15616666Y16950000D01*
X15683333Y16883334D01*
X15716666Y16783334D01*
X15716666Y16616667D01*
X15016666Y17250000D02*
X15716666Y17416667D01*
X15216666Y17550000D01*
X15716666Y17683334D01*
X15016666Y17850000D01*
X15716666Y27150000D02*
X16283333Y27150000D01*
X16350000Y27183334D01*
X16383333Y27216667D01*
X16416666Y27283334D01*
X16416666Y27416667D01*
X16383333Y27483334D01*
X16350000Y27516667D01*
X16283333Y27550000D01*
X15716666Y27550000D01*
X16416666Y27883334D02*
X15716666Y27883334D01*
X15716666Y28150000D01*
X15750000Y28216667D01*
X15783333Y28250000D01*
X15850000Y28283334D01*
X15950000Y28283334D01*
X16016666Y28250000D01*
X16050000Y28216667D01*
X16083333Y28150000D01*
X16083333Y27883334D01*
X2850000Y13349217D02*
X2850000Y13882550D01*
X2450000Y15115884D02*
X2416666Y15049217D01*
X2416666Y14949217D01*
X2450000Y14849217D01*
X2516666Y14782550D01*
X2583333Y14749217D01*
X2716666Y14715884D01*
X2816666Y14715884D01*
X2950000Y14749217D01*
X3016666Y14782550D01*
X3083333Y14849217D01*
X3116666Y14949217D01*
X3116666Y15015884D01*
X3083333Y15115884D01*
X3050000Y15149217D01*
X2816666Y15149217D01*
X2816666Y15015884D01*
X3116666Y15449217D02*
X2416666Y15449217D01*
X3116666Y15849217D01*
X2416666Y15849217D01*
X3116666Y16182550D02*
X2416666Y16182550D01*
X2416666Y16349217D01*
X2450000Y16449217D01*
X2516666Y16515884D01*
X2583333Y16549217D01*
X2716666Y16582550D01*
X2816666Y16582550D01*
X2950000Y16549217D01*
X3016666Y16515884D01*
X3083333Y16449217D01*
X3116666Y16349217D01*
X3116666Y16182550D01*
X850000Y13399217D02*
X850000Y13932550D01*
X850000Y14799217D02*
X850000Y15332550D01*
X1116666Y15065884D02*
X583333Y15065884D01*
X416666Y15599217D02*
X416666Y16032550D01*
X683333Y15799217D01*
X683333Y15899217D01*
X716666Y15965884D01*
X750000Y15999217D01*
X816666Y16032550D01*
X983333Y16032550D01*
X1050000Y15999217D01*
X1083333Y15965884D01*
X1116666Y15899217D01*
X1116666Y15699217D01*
X1083333Y15632550D01*
X1050000Y15599217D01*
X1050000Y16332550D02*
X1083333Y16365884D01*
X1116666Y16332550D01*
X1083333Y16299217D01*
X1050000Y16332550D01*
X1116666Y16332550D01*
X416666Y16599217D02*
X416666Y17032550D01*
X683333Y16799217D01*
X683333Y16899217D01*
X716666Y16965884D01*
X750000Y16999217D01*
X816666Y17032550D01*
X983333Y17032550D01*
X1050000Y16999217D01*
X1083333Y16965884D01*
X1116666Y16899217D01*
X1116666Y16699217D01*
X1083333Y16632550D01*
X1050000Y16599217D01*
X416666Y17232550D02*
X1116666Y17465884D01*
X416666Y17699217D01*
X3750000Y13399217D02*
X3750000Y13932550D01*
X3316666Y14699217D02*
X3316666Y15099217D01*
X4016666Y14899217D02*
X3316666Y14899217D01*
X4016666Y15265884D02*
X3550000Y15632550D01*
X3550000Y15265884D02*
X4016666Y15632550D01*
X1850000Y13399217D02*
X1850000Y13932550D01*
X2083333Y14765884D02*
X2116666Y14865884D01*
X2116666Y15032550D01*
X2083333Y15099217D01*
X2050000Y15132550D01*
X1983333Y15165884D01*
X1916666Y15165884D01*
X1850000Y15132550D01*
X1816666Y15099217D01*
X1783333Y15032550D01*
X1750000Y14899217D01*
X1716666Y14832550D01*
X1683333Y14799217D01*
X1616666Y14765884D01*
X1550000Y14765884D01*
X1483333Y14799217D01*
X1450000Y14832550D01*
X1416666Y14899217D01*
X1416666Y15065884D01*
X1450000Y15165884D01*
X1416666Y15399217D02*
X2116666Y15565884D01*
X1616666Y15699217D01*
X2116666Y15832550D01*
X1416666Y15999217D01*
X2116666Y16265884D02*
X1416666Y16265884D01*
X1416666Y16432550D01*
X1450000Y16532550D01*
X1516666Y16599217D01*
X1583333Y16632550D01*
X1716666Y16665884D01*
X1816666Y16665884D01*
X1950000Y16632550D01*
X2016666Y16599217D01*
X2083333Y16532550D01*
X2116666Y16432550D01*
X2116666Y16265884D01*
X2050000Y17365884D02*
X2083333Y17332550D01*
X2116666Y17232550D01*
X2116666Y17165884D01*
X2083333Y17065884D01*
X2016666Y16999217D01*
X1950000Y16965884D01*
X1816666Y16932550D01*
X1716666Y16932550D01*
X1583333Y16965884D01*
X1516666Y16999217D01*
X1450000Y17065884D01*
X1416666Y17165884D01*
X1416666Y17232550D01*
X1450000Y17332550D01*
X1483333Y17365884D01*
X2116666Y17999217D02*
X2116666Y17665884D01*
X1416666Y17665884D01*
X2116666Y18232550D02*
X1416666Y18232550D01*
X2116666Y18632550D02*
X1716666Y18332550D01*
X1416666Y18632550D02*
X1816666Y18232550D01*
D11*
X6637500Y12512500D03*
X6637500Y10787500D03*
X8362500Y12512500D03*
X8362500Y10787500D03*
D12*
X5750000Y14050000D03*
X6250000Y14050000D03*
X6750000Y14050000D03*
X7250000Y14050000D03*
X7750000Y14050000D03*
X8250000Y14050000D03*
X8750000Y14050000D03*
X9250000Y14050000D03*
D13*
X9900000Y13400000D03*
X9900000Y12900000D03*
X9900000Y12400000D03*
X9900000Y11900000D03*
X9900000Y11400000D03*
X9900000Y10900000D03*
X9900000Y10400000D03*
X9900000Y9900000D03*
D12*
X9250000Y9250000D03*
X8750000Y9250000D03*
X8250000Y9250000D03*
X7750000Y9250000D03*
X7250000Y9250000D03*
X6750000Y9250000D03*
X6250000Y9250000D03*
X5750000Y9250000D03*
D13*
X5100000Y9900000D03*
X5100000Y10400000D03*
X5100000Y10900000D03*
X5100000Y11400000D03*
X5100000Y11900000D03*
X5100000Y12400000D03*
X5100000Y12900000D03*
X5100000Y13400000D03*
D14*
X14312500Y22587500D03*
X14312500Y21712500D03*
X15187500Y22587500D03*
X15187500Y21712500D03*
D15*
X14000000Y23650000D03*
X14500000Y23650000D03*
X15000000Y23650000D03*
X15500000Y23650000D03*
D16*
X16250000Y22900000D03*
X16250000Y22400000D03*
X16250000Y21900000D03*
X16250000Y21400000D03*
D15*
X15500000Y20650000D03*
X15000000Y20650000D03*
X14500000Y20650000D03*
X14000000Y20650000D03*
D16*
X13250000Y21400000D03*
X13250000Y21900000D03*
X13250000Y22400000D03*
X13250000Y22900000D03*
D17*
X17100000Y27250000D03*
D18*
X19400000Y29250000D03*
X17800000Y29250000D03*
X17800000Y25250000D03*
X19400000Y25250000D03*
D17*
X17100000Y17250000D03*
D18*
X19400000Y19250000D03*
X17800000Y19250000D03*
X17800000Y15250000D03*
X19400000Y15250000D03*
D17*
X17100000Y2750000D03*
D18*
X19400000Y4750000D03*
X17800000Y4750000D03*
X17800000Y750000D03*
X19400000Y750000D03*
D19*
X10000000Y2900000D03*
D20*
X12000000Y600000D03*
X12000000Y2200000D03*
X8000000Y2200000D03*
X8000000Y600000D03*
D21*
X13350000Y1950000D03*
X13350000Y850000D03*
D22*
X18050000Y6100000D03*
X19150000Y6100000D03*
X19150000Y13900000D03*
X18050000Y13900000D03*
X19150000Y23900000D03*
X18050000Y23900000D03*
D23*
X18950000Y10950000D03*
X18950000Y9450000D03*
D22*
X14200000Y18600000D03*
X15300000Y18600000D03*
D21*
X15000000Y26150000D03*
X15000000Y25050000D03*
X5200000Y15400000D03*
X5200000Y16500000D03*
D22*
X11250000Y14000000D03*
X12350000Y14000000D03*
D21*
X11200000Y8450000D03*
X11200000Y9550000D03*
X15950000Y25050000D03*
X15950000Y26150000D03*
D24*
X2150000Y12500000D03*
X3650000Y12500000D03*
D22*
X2350000Y11400000D03*
X3450000Y11400000D03*
D21*
X10750000Y5200000D03*
X10750000Y6300000D03*
D25*
X16400000Y7200000D03*
X16400000Y5500000D03*
X13550000Y7200000D03*
X13550000Y5500000D03*
D26*
X9200000Y16500000D03*
X10800000Y16500000D03*
D27*
X2200000Y10250000D03*
X3700000Y10250000D03*
D28*
X845000Y1850000D03*
X2115000Y1850000D03*
X3385000Y1850000D03*
X4655000Y1850000D03*
D29*
X6000000Y29100000D03*
X6000000Y17900000D03*
D30*
X15650000Y11510000D03*
X16600000Y11510000D03*
X17550000Y11510000D03*
X17550000Y8890000D03*
X16600000Y8890000D03*
X15650000Y8890000D03*
D31*
X13450000Y10750000D03*
X14350000Y10750000D03*
X14350000Y9650000D03*
X13450000Y9650000D03*
D32*
X6200000Y16400000D03*
X6200000Y15500000D03*
D33*
X5575000Y4675000D03*
X6825000Y4675000D03*
X8075000Y4675000D03*
X9325000Y4675000D03*
X6825000Y6825000D03*
X8075000Y6825000D03*
X9325000Y6825000D03*
X5575000Y6825000D03*
M02*
