G04 #@! TF.GenerationSoftware,KiCad,Pcbnew,5.1.4-e60b266~84~ubuntu16.04.1*
G04 #@! TF.CreationDate,2019-11-09T12:49:13+01:00*
G04 #@! TF.ProjectId,MiniVarioL0,4d696e69-5661-4726-996f-4c302e6b6963,v1.0.0*
G04 #@! TF.SameCoordinates,PX84157a0PY7270e00*
G04 #@! TF.FileFunction,Copper,L3,Inr*
G04 #@! TF.FilePolarity,Positive*
%FSLAX46Y46*%
G04 Gerber Fmt 4.6, Leading zero omitted, Abs format (unit mm)*
G04 Created by KiCad (PCBNEW 5.1.4-e60b266~84~ubuntu16.04.1) date 2019-11-09 12:49:13*
%MOMM*%
%LPD*%
G04 APERTURE LIST*
%ADD10C,0.600000*%
%ADD11C,0.250000*%
G04 APERTURE END LIST*
D10*
X15550000Y7200000D03*
X14900000Y7200000D03*
X6800000Y5850000D03*
X9250000Y8100000D03*
X11200000Y7550000D03*
X1300000Y12500000D03*
X1300000Y11400000D03*
X13250000Y14000000D03*
X7500000Y12650000D03*
X8350000Y11650000D03*
X6500000Y11650000D03*
X7500000Y10650000D03*
X14750000Y22650000D03*
X14750000Y21650000D03*
X14250000Y22150000D03*
X15250000Y22150000D03*
X13450000Y8850000D03*
X15150000Y700000D03*
X19150000Y23100000D03*
X19150000Y13200000D03*
X19150000Y6800000D03*
X3400000Y4100000D03*
X14200000Y24600000D03*
X18160000Y11510000D03*
X18800000Y11500000D03*
X1500000Y4650000D03*
X11200000Y13350000D03*
X10700000Y9800000D03*
X10225000Y6825000D03*
X4450000Y15400000D03*
X3700000Y9300000D03*
X13550000Y8100000D03*
X10800000Y17400000D03*
X15000000Y26900000D03*
X17150000Y21900000D03*
X2115000Y7085000D03*
X12050000Y14800000D03*
X12750000Y13100000D03*
X5000000Y8300000D03*
X16250000Y20650000D03*
X10750000Y20650000D03*
X15000000Y19700000D03*
X9050000Y19700000D03*
X14350000Y8900000D03*
X13700000Y13300000D03*
X8700000Y6000000D03*
X6400000Y8300000D03*
X4400000Y13950000D03*
D11*
G36*
X19546000Y23652027D02*
G01*
X19471627Y23701722D01*
X19348057Y23752906D01*
X19216876Y23779000D01*
X19083124Y23779000D01*
X18951943Y23752906D01*
X18828373Y23701722D01*
X18717163Y23627413D01*
X18622587Y23532837D01*
X18548278Y23421627D01*
X18497094Y23298057D01*
X18471000Y23166876D01*
X18471000Y23033124D01*
X18497094Y22901943D01*
X18548278Y22778373D01*
X18622587Y22667163D01*
X18717163Y22572587D01*
X18828373Y22498278D01*
X18951943Y22447094D01*
X19083124Y22421000D01*
X19216876Y22421000D01*
X19348057Y22447094D01*
X19471627Y22498278D01*
X19546000Y22547973D01*
X19546001Y13752027D01*
X19471627Y13801722D01*
X19348057Y13852906D01*
X19216876Y13879000D01*
X19083124Y13879000D01*
X18951943Y13852906D01*
X18828373Y13801722D01*
X18717163Y13727413D01*
X18622587Y13632837D01*
X18548278Y13521627D01*
X18497094Y13398057D01*
X18471000Y13266876D01*
X18471000Y13133124D01*
X18497094Y13001943D01*
X18548278Y12878373D01*
X18622587Y12767163D01*
X18717163Y12672587D01*
X18828373Y12598278D01*
X18951943Y12547094D01*
X19083124Y12521000D01*
X19216876Y12521000D01*
X19348057Y12547094D01*
X19471627Y12598278D01*
X19546001Y12647973D01*
X19546001Y7352026D01*
X19471627Y7401722D01*
X19348057Y7452906D01*
X19216876Y7479000D01*
X19083124Y7479000D01*
X18951943Y7452906D01*
X18828373Y7401722D01*
X18717163Y7327413D01*
X18622587Y7232837D01*
X18548278Y7121627D01*
X18497094Y6998057D01*
X18471000Y6866876D01*
X18471000Y6733124D01*
X18497094Y6601943D01*
X18548278Y6478373D01*
X18622587Y6367163D01*
X18717163Y6272587D01*
X18828373Y6198278D01*
X18951943Y6147094D01*
X19083124Y6121000D01*
X19216876Y6121000D01*
X19348057Y6147094D01*
X19471627Y6198278D01*
X19546001Y6247974D01*
X19546001Y454000D01*
X15783048Y454000D01*
X15802906Y501943D01*
X15829000Y633124D01*
X15829000Y766876D01*
X15802906Y898057D01*
X15751722Y1021627D01*
X15677413Y1132837D01*
X15582837Y1227413D01*
X15471627Y1301722D01*
X15348057Y1352906D01*
X15216876Y1379000D01*
X15083124Y1379000D01*
X14951943Y1352906D01*
X14828373Y1301722D01*
X14717163Y1227413D01*
X14622587Y1132837D01*
X14548278Y1021627D01*
X14497094Y898057D01*
X14471000Y766876D01*
X14471000Y633124D01*
X14497094Y501943D01*
X14516952Y454000D01*
X6954000Y454000D01*
X6954000Y3022295D01*
X6951784Y3044794D01*
X6951784Y3051281D01*
X6951121Y3057586D01*
X6940244Y3154561D01*
X6931688Y3194816D01*
X6923697Y3235176D01*
X6921822Y3241231D01*
X6892316Y3334247D01*
X6876094Y3372095D01*
X6860425Y3410113D01*
X6857415Y3415679D01*
X6857411Y3415687D01*
X6857406Y3415694D01*
X6810398Y3501201D01*
X6787158Y3535142D01*
X6764382Y3569424D01*
X6760341Y3574308D01*
X6760340Y3574310D01*
X6760336Y3574314D01*
X6697616Y3649061D01*
X6668209Y3677858D01*
X6639219Y3707051D01*
X6634313Y3711052D01*
X6634310Y3711055D01*
X6634307Y3711057D01*
X6558257Y3772202D01*
X6523840Y3794724D01*
X6489716Y3817741D01*
X6484119Y3820717D01*
X6397641Y3865927D01*
X6359463Y3881352D01*
X6321555Y3897287D01*
X6315491Y3899118D01*
X6315485Y3899120D01*
X6221874Y3926671D01*
X6181460Y3934381D01*
X6141146Y3942656D01*
X6134841Y3943275D01*
X6134837Y3943275D01*
X6037655Y3952119D01*
X5996509Y3951832D01*
X5955363Y3952119D01*
X5949054Y3951500D01*
X5949052Y3951500D01*
X5852006Y3941300D01*
X5811704Y3933027D01*
X5771277Y3925316D01*
X5765215Y3923485D01*
X5765211Y3923484D01*
X5765208Y3923483D01*
X5765209Y3923483D01*
X5671991Y3894627D01*
X5634080Y3878691D01*
X5595906Y3863268D01*
X5590309Y3860291D01*
X5504471Y3813878D01*
X5470387Y3790888D01*
X5435925Y3768337D01*
X5431013Y3764330D01*
X5355824Y3702128D01*
X5326856Y3672957D01*
X5297430Y3644142D01*
X5293390Y3639257D01*
X5231715Y3563636D01*
X5208941Y3529358D01*
X5185696Y3495411D01*
X5182685Y3489840D01*
X5182682Y3489836D01*
X5182682Y3489835D01*
X5136870Y3403675D01*
X5121190Y3365632D01*
X5104980Y3327813D01*
X5103108Y3321763D01*
X5103105Y3321756D01*
X5103105Y3321754D01*
X5074901Y3228339D01*
X5066915Y3188007D01*
X5058352Y3147723D01*
X5057690Y3141418D01*
X5048168Y3044301D01*
X5046001Y3022295D01*
X5046000Y454000D01*
X454000Y454000D01*
X454000Y4166876D01*
X2721000Y4166876D01*
X2721000Y4033124D01*
X2747094Y3901943D01*
X2798278Y3778373D01*
X2872587Y3667163D01*
X2967163Y3572587D01*
X3078373Y3498278D01*
X3201943Y3447094D01*
X3333124Y3421000D01*
X3466876Y3421000D01*
X3598057Y3447094D01*
X3721627Y3498278D01*
X3832837Y3572587D01*
X3927413Y3667163D01*
X4001722Y3778373D01*
X4052906Y3901943D01*
X4079000Y4033124D01*
X4079000Y4166876D01*
X4052906Y4298057D01*
X4001722Y4421627D01*
X3927413Y4532837D01*
X3832837Y4627413D01*
X3721627Y4701722D01*
X3598057Y4752906D01*
X3466876Y4779000D01*
X3333124Y4779000D01*
X3201943Y4752906D01*
X3078373Y4701722D01*
X2967163Y4627413D01*
X2872587Y4532837D01*
X2798278Y4421627D01*
X2747094Y4298057D01*
X2721000Y4166876D01*
X454000Y4166876D01*
X454000Y5916876D01*
X6121000Y5916876D01*
X6121000Y5783124D01*
X6147094Y5651943D01*
X6198278Y5528373D01*
X6272587Y5417163D01*
X6367163Y5322587D01*
X6478373Y5248278D01*
X6601943Y5197094D01*
X6733124Y5171000D01*
X6866876Y5171000D01*
X6998057Y5197094D01*
X7121627Y5248278D01*
X7232837Y5322587D01*
X7327413Y5417163D01*
X7401722Y5528373D01*
X7452906Y5651943D01*
X7479000Y5783124D01*
X7479000Y5916876D01*
X7452906Y6048057D01*
X7445111Y6066876D01*
X8021000Y6066876D01*
X8021000Y5933124D01*
X8047094Y5801943D01*
X8098278Y5678373D01*
X8172587Y5567163D01*
X8267163Y5472587D01*
X8378373Y5398278D01*
X8501943Y5347094D01*
X8633124Y5321000D01*
X8766876Y5321000D01*
X8898057Y5347094D01*
X9021627Y5398278D01*
X9132837Y5472587D01*
X9227413Y5567163D01*
X9301722Y5678373D01*
X9352906Y5801943D01*
X9379000Y5933124D01*
X9379000Y6066876D01*
X9352906Y6198057D01*
X9301722Y6321627D01*
X9227413Y6432837D01*
X9132837Y6527413D01*
X9021627Y6601722D01*
X8898057Y6652906D01*
X8766876Y6679000D01*
X8633124Y6679000D01*
X8501943Y6652906D01*
X8378373Y6601722D01*
X8267163Y6527413D01*
X8172587Y6432837D01*
X8098278Y6321627D01*
X8047094Y6198057D01*
X8021000Y6066876D01*
X7445111Y6066876D01*
X7401722Y6171627D01*
X7327413Y6282837D01*
X7232837Y6377413D01*
X7121627Y6451722D01*
X6998057Y6502906D01*
X6866876Y6529000D01*
X6733124Y6529000D01*
X6601943Y6502906D01*
X6478373Y6451722D01*
X6367163Y6377413D01*
X6272587Y6282837D01*
X6198278Y6171627D01*
X6147094Y6048057D01*
X6121000Y5916876D01*
X454000Y5916876D01*
X454000Y7151876D01*
X1436000Y7151876D01*
X1436000Y7018124D01*
X1462094Y6886943D01*
X1513278Y6763373D01*
X1587587Y6652163D01*
X1682163Y6557587D01*
X1793373Y6483278D01*
X1916943Y6432094D01*
X2048124Y6406000D01*
X2181876Y6406000D01*
X2313057Y6432094D01*
X2436627Y6483278D01*
X2547837Y6557587D01*
X2642413Y6652163D01*
X2716722Y6763373D01*
X2767906Y6886943D01*
X2794000Y7018124D01*
X2794000Y7151876D01*
X2767906Y7283057D01*
X2716722Y7406627D01*
X2642413Y7517837D01*
X2547837Y7612413D01*
X2436627Y7686722D01*
X2313057Y7737906D01*
X2181876Y7764000D01*
X2048124Y7764000D01*
X1916943Y7737906D01*
X1793373Y7686722D01*
X1682163Y7612413D01*
X1587587Y7517837D01*
X1513278Y7406627D01*
X1462094Y7283057D01*
X1436000Y7151876D01*
X454000Y7151876D01*
X454000Y8366876D01*
X4321000Y8366876D01*
X4321000Y8233124D01*
X4347094Y8101943D01*
X4398278Y7978373D01*
X4472587Y7867163D01*
X4567163Y7772587D01*
X4678373Y7698278D01*
X4801943Y7647094D01*
X4933124Y7621000D01*
X5066876Y7621000D01*
X5198057Y7647094D01*
X5321627Y7698278D01*
X5432837Y7772587D01*
X5527413Y7867163D01*
X5601722Y7978373D01*
X5652906Y8101943D01*
X5679000Y8233124D01*
X5679000Y8366876D01*
X5721000Y8366876D01*
X5721000Y8233124D01*
X5747094Y8101943D01*
X5798278Y7978373D01*
X5872587Y7867163D01*
X5967163Y7772587D01*
X6078373Y7698278D01*
X6201943Y7647094D01*
X6333124Y7621000D01*
X6466876Y7621000D01*
X6598057Y7647094D01*
X6721627Y7698278D01*
X6832837Y7772587D01*
X6927413Y7867163D01*
X7001722Y7978373D01*
X7052906Y8101943D01*
X7065822Y8166876D01*
X8571000Y8166876D01*
X8571000Y8033124D01*
X8597094Y7901943D01*
X8648278Y7778373D01*
X8722587Y7667163D01*
X8817163Y7572587D01*
X8928373Y7498278D01*
X9051943Y7447094D01*
X9183124Y7421000D01*
X9316876Y7421000D01*
X9448057Y7447094D01*
X9571627Y7498278D01*
X9682837Y7572587D01*
X9727126Y7616876D01*
X10521000Y7616876D01*
X10521000Y7483124D01*
X10547094Y7351943D01*
X10598278Y7228373D01*
X10672587Y7117163D01*
X10767163Y7022587D01*
X10878373Y6948278D01*
X11001943Y6897094D01*
X11133124Y6871000D01*
X11266876Y6871000D01*
X11398057Y6897094D01*
X11521627Y6948278D01*
X11632837Y7022587D01*
X11727413Y7117163D01*
X11801722Y7228373D01*
X11817670Y7266876D01*
X14221000Y7266876D01*
X14221000Y7133124D01*
X14247094Y7001943D01*
X14298278Y6878373D01*
X14372587Y6767163D01*
X14467163Y6672587D01*
X14578373Y6598278D01*
X14701943Y6547094D01*
X14833124Y6521000D01*
X14966876Y6521000D01*
X15098057Y6547094D01*
X15221627Y6598278D01*
X15225000Y6600532D01*
X15228373Y6598278D01*
X15351943Y6547094D01*
X15483124Y6521000D01*
X15616876Y6521000D01*
X15748057Y6547094D01*
X15871627Y6598278D01*
X15982837Y6672587D01*
X16077413Y6767163D01*
X16151722Y6878373D01*
X16202906Y7001943D01*
X16229000Y7133124D01*
X16229000Y7266876D01*
X16202906Y7398057D01*
X16151722Y7521627D01*
X16077413Y7632837D01*
X15982837Y7727413D01*
X15871627Y7801722D01*
X15748057Y7852906D01*
X15616876Y7879000D01*
X15483124Y7879000D01*
X15351943Y7852906D01*
X15228373Y7801722D01*
X15225000Y7799468D01*
X15221627Y7801722D01*
X15098057Y7852906D01*
X14966876Y7879000D01*
X14833124Y7879000D01*
X14701943Y7852906D01*
X14578373Y7801722D01*
X14467163Y7727413D01*
X14372587Y7632837D01*
X14298278Y7521627D01*
X14247094Y7398057D01*
X14221000Y7266876D01*
X11817670Y7266876D01*
X11852906Y7351943D01*
X11879000Y7483124D01*
X11879000Y7616876D01*
X11852906Y7748057D01*
X11801722Y7871627D01*
X11727413Y7982837D01*
X11632837Y8077413D01*
X11521627Y8151722D01*
X11398057Y8202906D01*
X11266876Y8229000D01*
X11133124Y8229000D01*
X11001943Y8202906D01*
X10878373Y8151722D01*
X10767163Y8077413D01*
X10672587Y7982837D01*
X10598278Y7871627D01*
X10547094Y7748057D01*
X10521000Y7616876D01*
X9727126Y7616876D01*
X9777413Y7667163D01*
X9851722Y7778373D01*
X9902906Y7901943D01*
X9929000Y8033124D01*
X9929000Y8166876D01*
X9902906Y8298057D01*
X9851722Y8421627D01*
X9777413Y8532837D01*
X9682837Y8627413D01*
X9571627Y8701722D01*
X9448057Y8752906D01*
X9316876Y8779000D01*
X9183124Y8779000D01*
X9051943Y8752906D01*
X8928373Y8701722D01*
X8817163Y8627413D01*
X8722587Y8532837D01*
X8648278Y8421627D01*
X8597094Y8298057D01*
X8571000Y8166876D01*
X7065822Y8166876D01*
X7079000Y8233124D01*
X7079000Y8366876D01*
X7052906Y8498057D01*
X7001722Y8621627D01*
X6927413Y8732837D01*
X6832837Y8827413D01*
X6721627Y8901722D01*
X6685042Y8916876D01*
X12771000Y8916876D01*
X12771000Y8783124D01*
X12797094Y8651943D01*
X12848278Y8528373D01*
X12922587Y8417163D01*
X13017163Y8322587D01*
X13128373Y8248278D01*
X13251943Y8197094D01*
X13383124Y8171000D01*
X13516876Y8171000D01*
X13648057Y8197094D01*
X13771627Y8248278D01*
X13882837Y8322587D01*
X13926559Y8366309D01*
X14028373Y8298278D01*
X14151943Y8247094D01*
X14283124Y8221000D01*
X14416876Y8221000D01*
X14548057Y8247094D01*
X14671627Y8298278D01*
X14782837Y8372587D01*
X14877413Y8467163D01*
X14951722Y8578373D01*
X15002906Y8701943D01*
X15029000Y8833124D01*
X15029000Y8966876D01*
X15002906Y9098057D01*
X14951722Y9221627D01*
X14877413Y9332837D01*
X14782837Y9427413D01*
X14671627Y9501722D01*
X14548057Y9552906D01*
X14416876Y9579000D01*
X14283124Y9579000D01*
X14151943Y9552906D01*
X14028373Y9501722D01*
X13917163Y9427413D01*
X13873441Y9383691D01*
X13771627Y9451722D01*
X13648057Y9502906D01*
X13516876Y9529000D01*
X13383124Y9529000D01*
X13251943Y9502906D01*
X13128373Y9451722D01*
X13017163Y9377413D01*
X12922587Y9282837D01*
X12848278Y9171627D01*
X12797094Y9048057D01*
X12771000Y8916876D01*
X6685042Y8916876D01*
X6598057Y8952906D01*
X6466876Y8979000D01*
X6333124Y8979000D01*
X6201943Y8952906D01*
X6078373Y8901722D01*
X5967163Y8827413D01*
X5872587Y8732837D01*
X5798278Y8621627D01*
X5747094Y8498057D01*
X5721000Y8366876D01*
X5679000Y8366876D01*
X5652906Y8498057D01*
X5601722Y8621627D01*
X5527413Y8732837D01*
X5432837Y8827413D01*
X5321627Y8901722D01*
X5198057Y8952906D01*
X5066876Y8979000D01*
X4933124Y8979000D01*
X4801943Y8952906D01*
X4678373Y8901722D01*
X4567163Y8827413D01*
X4472587Y8732837D01*
X4398278Y8621627D01*
X4347094Y8498057D01*
X4321000Y8366876D01*
X454000Y8366876D01*
X454000Y12566876D01*
X621000Y12566876D01*
X621000Y12433124D01*
X647094Y12301943D01*
X698278Y12178373D01*
X772587Y12067163D01*
X867163Y11972587D01*
X900966Y11950000D01*
X867163Y11927413D01*
X772587Y11832837D01*
X698278Y11721627D01*
X647094Y11598057D01*
X621000Y11466876D01*
X621000Y11333124D01*
X647094Y11201943D01*
X698278Y11078373D01*
X772587Y10967163D01*
X867163Y10872587D01*
X978373Y10798278D01*
X1101943Y10747094D01*
X1233124Y10721000D01*
X1366876Y10721000D01*
X1498057Y10747094D01*
X1621627Y10798278D01*
X1732837Y10872587D01*
X1827413Y10967163D01*
X1901722Y11078373D01*
X1952906Y11201943D01*
X1979000Y11333124D01*
X1979000Y11466876D01*
X1952906Y11598057D01*
X1903690Y11716876D01*
X5821000Y11716876D01*
X5821000Y11583124D01*
X5847094Y11451943D01*
X5898278Y11328373D01*
X5972587Y11217163D01*
X6067163Y11122587D01*
X6178373Y11048278D01*
X6301943Y10997094D01*
X6433124Y10971000D01*
X6566876Y10971000D01*
X6698057Y10997094D01*
X6821627Y11048278D01*
X6932837Y11122587D01*
X7027413Y11217163D01*
X7101722Y11328373D01*
X7152906Y11451943D01*
X7179000Y11583124D01*
X7179000Y11716876D01*
X7152906Y11848057D01*
X7101722Y11971627D01*
X7027413Y12082837D01*
X6932837Y12177413D01*
X6821627Y12251722D01*
X6698057Y12302906D01*
X6566876Y12329000D01*
X6433124Y12329000D01*
X6301943Y12302906D01*
X6178373Y12251722D01*
X6067163Y12177413D01*
X5972587Y12082837D01*
X5898278Y11971627D01*
X5847094Y11848057D01*
X5821000Y11716876D01*
X1903690Y11716876D01*
X1901722Y11721627D01*
X1827413Y11832837D01*
X1732837Y11927413D01*
X1699034Y11950000D01*
X1732837Y11972587D01*
X1827413Y12067163D01*
X1901722Y12178373D01*
X1952906Y12301943D01*
X1979000Y12433124D01*
X1979000Y12566876D01*
X1952906Y12698057D01*
X1945111Y12716876D01*
X6821000Y12716876D01*
X6821000Y12583124D01*
X6847094Y12451943D01*
X6898278Y12328373D01*
X6972587Y12217163D01*
X7067163Y12122587D01*
X7178373Y12048278D01*
X7301943Y11997094D01*
X7433124Y11971000D01*
X7566876Y11971000D01*
X7698057Y11997094D01*
X7791026Y12035603D01*
X7748278Y11971627D01*
X7697094Y11848057D01*
X7671000Y11716876D01*
X7671000Y11583124D01*
X7697094Y11451943D01*
X7748278Y11328373D01*
X7791026Y11264397D01*
X7698057Y11302906D01*
X7566876Y11329000D01*
X7433124Y11329000D01*
X7301943Y11302906D01*
X7178373Y11251722D01*
X7067163Y11177413D01*
X6972587Y11082837D01*
X6898278Y10971627D01*
X6847094Y10848057D01*
X6821000Y10716876D01*
X6821000Y10583124D01*
X6847094Y10451943D01*
X6898278Y10328373D01*
X6972587Y10217163D01*
X7067163Y10122587D01*
X7178373Y10048278D01*
X7301943Y9997094D01*
X7433124Y9971000D01*
X7566876Y9971000D01*
X7698057Y9997094D01*
X7821627Y10048278D01*
X7932837Y10122587D01*
X8027413Y10217163D01*
X8101722Y10328373D01*
X8152906Y10451943D01*
X8179000Y10583124D01*
X8179000Y10716876D01*
X8152906Y10848057D01*
X8101722Y10971627D01*
X8058974Y11035603D01*
X8151943Y10997094D01*
X8283124Y10971000D01*
X8416876Y10971000D01*
X8548057Y10997094D01*
X8671627Y11048278D01*
X8782837Y11122587D01*
X8877413Y11217163D01*
X8951722Y11328373D01*
X9002906Y11451943D01*
X9029000Y11583124D01*
X9029000Y11716876D01*
X9002906Y11848057D01*
X8951722Y11971627D01*
X8877413Y12082837D01*
X8782837Y12177413D01*
X8671627Y12251722D01*
X8548057Y12302906D01*
X8416876Y12329000D01*
X8283124Y12329000D01*
X8151943Y12302906D01*
X8058974Y12264397D01*
X8101722Y12328373D01*
X8152906Y12451943D01*
X8179000Y12583124D01*
X8179000Y12716876D01*
X8152906Y12848057D01*
X8101722Y12971627D01*
X8027413Y13082837D01*
X7943374Y13166876D01*
X12071000Y13166876D01*
X12071000Y13033124D01*
X12097094Y12901943D01*
X12148278Y12778373D01*
X12222587Y12667163D01*
X12317163Y12572587D01*
X12428373Y12498278D01*
X12551943Y12447094D01*
X12683124Y12421000D01*
X12816876Y12421000D01*
X12948057Y12447094D01*
X13071627Y12498278D01*
X13182837Y12572587D01*
X13277413Y12667163D01*
X13322949Y12735312D01*
X13378373Y12698278D01*
X13501943Y12647094D01*
X13633124Y12621000D01*
X13766876Y12621000D01*
X13898057Y12647094D01*
X14021627Y12698278D01*
X14132837Y12772587D01*
X14227413Y12867163D01*
X14301722Y12978373D01*
X14352906Y13101943D01*
X14379000Y13233124D01*
X14379000Y13366876D01*
X14352906Y13498057D01*
X14301722Y13621627D01*
X14227413Y13732837D01*
X14132837Y13827413D01*
X14021627Y13901722D01*
X13929000Y13940089D01*
X13929000Y14066876D01*
X13902906Y14198057D01*
X13851722Y14321627D01*
X13777413Y14432837D01*
X13682837Y14527413D01*
X13571627Y14601722D01*
X13448057Y14652906D01*
X13316876Y14679000D01*
X13183124Y14679000D01*
X13051943Y14652906D01*
X12928373Y14601722D01*
X12817163Y14527413D01*
X12722587Y14432837D01*
X12648278Y14321627D01*
X12597094Y14198057D01*
X12571000Y14066876D01*
X12571000Y13933124D01*
X12597094Y13801943D01*
X12612423Y13764936D01*
X12551943Y13752906D01*
X12428373Y13701722D01*
X12317163Y13627413D01*
X12222587Y13532837D01*
X12148278Y13421627D01*
X12097094Y13298057D01*
X12071000Y13166876D01*
X7943374Y13166876D01*
X7932837Y13177413D01*
X7821627Y13251722D01*
X7698057Y13302906D01*
X7566876Y13329000D01*
X7433124Y13329000D01*
X7301943Y13302906D01*
X7178373Y13251722D01*
X7067163Y13177413D01*
X6972587Y13082837D01*
X6898278Y12971627D01*
X6847094Y12848057D01*
X6821000Y12716876D01*
X1945111Y12716876D01*
X1901722Y12821627D01*
X1827413Y12932837D01*
X1732837Y13027413D01*
X1621627Y13101722D01*
X1498057Y13152906D01*
X1366876Y13179000D01*
X1233124Y13179000D01*
X1101943Y13152906D01*
X978373Y13101722D01*
X867163Y13027413D01*
X772587Y12932837D01*
X698278Y12821627D01*
X647094Y12698057D01*
X621000Y12566876D01*
X454000Y12566876D01*
X454000Y14016876D01*
X3721000Y14016876D01*
X3721000Y13883124D01*
X3747094Y13751943D01*
X3798278Y13628373D01*
X3872587Y13517163D01*
X3967163Y13422587D01*
X4078373Y13348278D01*
X4201943Y13297094D01*
X4333124Y13271000D01*
X4466876Y13271000D01*
X4598057Y13297094D01*
X4721627Y13348278D01*
X4832837Y13422587D01*
X4927413Y13517163D01*
X5001722Y13628373D01*
X5052906Y13751943D01*
X5079000Y13883124D01*
X5079000Y14016876D01*
X5052906Y14148057D01*
X5001722Y14271627D01*
X4927413Y14382837D01*
X4832837Y14477413D01*
X4721627Y14551722D01*
X4598057Y14602906D01*
X4466876Y14629000D01*
X4333124Y14629000D01*
X4201943Y14602906D01*
X4078373Y14551722D01*
X3967163Y14477413D01*
X3872587Y14382837D01*
X3798278Y14271627D01*
X3747094Y14148057D01*
X3721000Y14016876D01*
X454000Y14016876D01*
X454000Y14866876D01*
X11371000Y14866876D01*
X11371000Y14733124D01*
X11397094Y14601943D01*
X11448278Y14478373D01*
X11522587Y14367163D01*
X11617163Y14272587D01*
X11728373Y14198278D01*
X11851943Y14147094D01*
X11983124Y14121000D01*
X12116876Y14121000D01*
X12248057Y14147094D01*
X12371627Y14198278D01*
X12482837Y14272587D01*
X12577413Y14367163D01*
X12651722Y14478373D01*
X12702906Y14601943D01*
X12729000Y14733124D01*
X12729000Y14866876D01*
X12702906Y14998057D01*
X12651722Y15121627D01*
X12577413Y15232837D01*
X12482837Y15327413D01*
X12371627Y15401722D01*
X12248057Y15452906D01*
X12116876Y15479000D01*
X11983124Y15479000D01*
X11851943Y15452906D01*
X11728373Y15401722D01*
X11617163Y15327413D01*
X11522587Y15232837D01*
X11448278Y15121627D01*
X11397094Y14998057D01*
X11371000Y14866876D01*
X454000Y14866876D01*
X454000Y19766876D01*
X8371000Y19766876D01*
X8371000Y19633124D01*
X8397094Y19501943D01*
X8448278Y19378373D01*
X8522587Y19267163D01*
X8617163Y19172587D01*
X8728373Y19098278D01*
X8851943Y19047094D01*
X8983124Y19021000D01*
X9116876Y19021000D01*
X9248057Y19047094D01*
X9371627Y19098278D01*
X9482837Y19172587D01*
X9577413Y19267163D01*
X9651722Y19378373D01*
X9702906Y19501943D01*
X9729000Y19633124D01*
X9729000Y19766876D01*
X14321000Y19766876D01*
X14321000Y19633124D01*
X14347094Y19501943D01*
X14398278Y19378373D01*
X14472587Y19267163D01*
X14567163Y19172587D01*
X14678373Y19098278D01*
X14801943Y19047094D01*
X14933124Y19021000D01*
X15066876Y19021000D01*
X15198057Y19047094D01*
X15321627Y19098278D01*
X15432837Y19172587D01*
X15527413Y19267163D01*
X15601722Y19378373D01*
X15652906Y19501943D01*
X15679000Y19633124D01*
X15679000Y19766876D01*
X15652906Y19898057D01*
X15601722Y20021627D01*
X15527413Y20132837D01*
X15432837Y20227413D01*
X15321627Y20301722D01*
X15198057Y20352906D01*
X15066876Y20379000D01*
X14933124Y20379000D01*
X14801943Y20352906D01*
X14678373Y20301722D01*
X14567163Y20227413D01*
X14472587Y20132837D01*
X14398278Y20021627D01*
X14347094Y19898057D01*
X14321000Y19766876D01*
X9729000Y19766876D01*
X9702906Y19898057D01*
X9651722Y20021627D01*
X9577413Y20132837D01*
X9482837Y20227413D01*
X9371627Y20301722D01*
X9248057Y20352906D01*
X9116876Y20379000D01*
X8983124Y20379000D01*
X8851943Y20352906D01*
X8728373Y20301722D01*
X8617163Y20227413D01*
X8522587Y20132837D01*
X8448278Y20021627D01*
X8397094Y19898057D01*
X8371000Y19766876D01*
X454000Y19766876D01*
X454000Y20716876D01*
X10071000Y20716876D01*
X10071000Y20583124D01*
X10097094Y20451943D01*
X10148278Y20328373D01*
X10222587Y20217163D01*
X10317163Y20122587D01*
X10428373Y20048278D01*
X10551943Y19997094D01*
X10683124Y19971000D01*
X10816876Y19971000D01*
X10948057Y19997094D01*
X11071627Y20048278D01*
X11182837Y20122587D01*
X11277413Y20217163D01*
X11351722Y20328373D01*
X11402906Y20451943D01*
X11429000Y20583124D01*
X11429000Y20716876D01*
X15571000Y20716876D01*
X15571000Y20583124D01*
X15597094Y20451943D01*
X15648278Y20328373D01*
X15722587Y20217163D01*
X15817163Y20122587D01*
X15928373Y20048278D01*
X16051943Y19997094D01*
X16183124Y19971000D01*
X16316876Y19971000D01*
X16448057Y19997094D01*
X16571627Y20048278D01*
X16682837Y20122587D01*
X16777413Y20217163D01*
X16851722Y20328373D01*
X16902906Y20451943D01*
X16929000Y20583124D01*
X16929000Y20716876D01*
X16902906Y20848057D01*
X16851722Y20971627D01*
X16777413Y21082837D01*
X16682837Y21177413D01*
X16571627Y21251722D01*
X16448057Y21302906D01*
X16316876Y21329000D01*
X16183124Y21329000D01*
X16051943Y21302906D01*
X15928373Y21251722D01*
X15817163Y21177413D01*
X15722587Y21082837D01*
X15648278Y20971627D01*
X15597094Y20848057D01*
X15571000Y20716876D01*
X11429000Y20716876D01*
X11402906Y20848057D01*
X11351722Y20971627D01*
X11277413Y21082837D01*
X11182837Y21177413D01*
X11071627Y21251722D01*
X10948057Y21302906D01*
X10816876Y21329000D01*
X10683124Y21329000D01*
X10551943Y21302906D01*
X10428373Y21251722D01*
X10317163Y21177413D01*
X10222587Y21082837D01*
X10148278Y20971627D01*
X10097094Y20848057D01*
X10071000Y20716876D01*
X454000Y20716876D01*
X454000Y22216876D01*
X13571000Y22216876D01*
X13571000Y22083124D01*
X13597094Y21951943D01*
X13648278Y21828373D01*
X13722587Y21717163D01*
X13817163Y21622587D01*
X13928373Y21548278D01*
X14051943Y21497094D01*
X14089603Y21489603D01*
X14097094Y21451943D01*
X14148278Y21328373D01*
X14222587Y21217163D01*
X14317163Y21122587D01*
X14428373Y21048278D01*
X14551943Y20997094D01*
X14683124Y20971000D01*
X14816876Y20971000D01*
X14948057Y20997094D01*
X15071627Y21048278D01*
X15182837Y21122587D01*
X15277413Y21217163D01*
X15351722Y21328373D01*
X15402906Y21451943D01*
X15410397Y21489603D01*
X15448057Y21497094D01*
X15571627Y21548278D01*
X15682837Y21622587D01*
X15777413Y21717163D01*
X15851722Y21828373D01*
X15902906Y21951943D01*
X15905876Y21966876D01*
X16471000Y21966876D01*
X16471000Y21833124D01*
X16497094Y21701943D01*
X16548278Y21578373D01*
X16622587Y21467163D01*
X16717163Y21372587D01*
X16828373Y21298278D01*
X16951943Y21247094D01*
X17083124Y21221000D01*
X17216876Y21221000D01*
X17348057Y21247094D01*
X17471627Y21298278D01*
X17582837Y21372587D01*
X17677413Y21467163D01*
X17751722Y21578373D01*
X17802906Y21701943D01*
X17829000Y21833124D01*
X17829000Y21966876D01*
X17802906Y22098057D01*
X17751722Y22221627D01*
X17677413Y22332837D01*
X17582837Y22427413D01*
X17471627Y22501722D01*
X17348057Y22552906D01*
X17216876Y22579000D01*
X17083124Y22579000D01*
X16951943Y22552906D01*
X16828373Y22501722D01*
X16717163Y22427413D01*
X16622587Y22332837D01*
X16548278Y22221627D01*
X16497094Y22098057D01*
X16471000Y21966876D01*
X15905876Y21966876D01*
X15929000Y22083124D01*
X15929000Y22216876D01*
X15902906Y22348057D01*
X15851722Y22471627D01*
X15777413Y22582837D01*
X15682837Y22677413D01*
X15571627Y22751722D01*
X15448057Y22802906D01*
X15410397Y22810397D01*
X15402906Y22848057D01*
X15351722Y22971627D01*
X15277413Y23082837D01*
X15182837Y23177413D01*
X15071627Y23251722D01*
X14948057Y23302906D01*
X14816876Y23329000D01*
X14683124Y23329000D01*
X14551943Y23302906D01*
X14428373Y23251722D01*
X14317163Y23177413D01*
X14222587Y23082837D01*
X14148278Y22971627D01*
X14097094Y22848057D01*
X14089603Y22810397D01*
X14051943Y22802906D01*
X13928373Y22751722D01*
X13817163Y22677413D01*
X13722587Y22582837D01*
X13648278Y22471627D01*
X13597094Y22348057D01*
X13571000Y22216876D01*
X454000Y22216876D01*
X454000Y26966876D01*
X14321000Y26966876D01*
X14321000Y26833124D01*
X14347094Y26701943D01*
X14398278Y26578373D01*
X14472587Y26467163D01*
X14567163Y26372587D01*
X14678373Y26298278D01*
X14801943Y26247094D01*
X14933124Y26221000D01*
X15066876Y26221000D01*
X15198057Y26247094D01*
X15321627Y26298278D01*
X15432837Y26372587D01*
X15527413Y26467163D01*
X15601722Y26578373D01*
X15652906Y26701943D01*
X15679000Y26833124D01*
X15679000Y26966876D01*
X15652906Y27098057D01*
X15601722Y27221627D01*
X15527413Y27332837D01*
X15432837Y27427413D01*
X15321627Y27501722D01*
X15198057Y27552906D01*
X15066876Y27579000D01*
X14933124Y27579000D01*
X14801943Y27552906D01*
X14678373Y27501722D01*
X14567163Y27427413D01*
X14472587Y27332837D01*
X14398278Y27221627D01*
X14347094Y27098057D01*
X14321000Y26966876D01*
X454000Y26966876D01*
X454000Y29546000D01*
X19546000Y29546000D01*
X19546000Y23652027D01*
X19546000Y23652027D01*
G37*
X19546000Y23652027D02*
X19471627Y23701722D01*
X19348057Y23752906D01*
X19216876Y23779000D01*
X19083124Y23779000D01*
X18951943Y23752906D01*
X18828373Y23701722D01*
X18717163Y23627413D01*
X18622587Y23532837D01*
X18548278Y23421627D01*
X18497094Y23298057D01*
X18471000Y23166876D01*
X18471000Y23033124D01*
X18497094Y22901943D01*
X18548278Y22778373D01*
X18622587Y22667163D01*
X18717163Y22572587D01*
X18828373Y22498278D01*
X18951943Y22447094D01*
X19083124Y22421000D01*
X19216876Y22421000D01*
X19348057Y22447094D01*
X19471627Y22498278D01*
X19546000Y22547973D01*
X19546001Y13752027D01*
X19471627Y13801722D01*
X19348057Y13852906D01*
X19216876Y13879000D01*
X19083124Y13879000D01*
X18951943Y13852906D01*
X18828373Y13801722D01*
X18717163Y13727413D01*
X18622587Y13632837D01*
X18548278Y13521627D01*
X18497094Y13398057D01*
X18471000Y13266876D01*
X18471000Y13133124D01*
X18497094Y13001943D01*
X18548278Y12878373D01*
X18622587Y12767163D01*
X18717163Y12672587D01*
X18828373Y12598278D01*
X18951943Y12547094D01*
X19083124Y12521000D01*
X19216876Y12521000D01*
X19348057Y12547094D01*
X19471627Y12598278D01*
X19546001Y12647973D01*
X19546001Y7352026D01*
X19471627Y7401722D01*
X19348057Y7452906D01*
X19216876Y7479000D01*
X19083124Y7479000D01*
X18951943Y7452906D01*
X18828373Y7401722D01*
X18717163Y7327413D01*
X18622587Y7232837D01*
X18548278Y7121627D01*
X18497094Y6998057D01*
X18471000Y6866876D01*
X18471000Y6733124D01*
X18497094Y6601943D01*
X18548278Y6478373D01*
X18622587Y6367163D01*
X18717163Y6272587D01*
X18828373Y6198278D01*
X18951943Y6147094D01*
X19083124Y6121000D01*
X19216876Y6121000D01*
X19348057Y6147094D01*
X19471627Y6198278D01*
X19546001Y6247974D01*
X19546001Y454000D01*
X15783048Y454000D01*
X15802906Y501943D01*
X15829000Y633124D01*
X15829000Y766876D01*
X15802906Y898057D01*
X15751722Y1021627D01*
X15677413Y1132837D01*
X15582837Y1227413D01*
X15471627Y1301722D01*
X15348057Y1352906D01*
X15216876Y1379000D01*
X15083124Y1379000D01*
X14951943Y1352906D01*
X14828373Y1301722D01*
X14717163Y1227413D01*
X14622587Y1132837D01*
X14548278Y1021627D01*
X14497094Y898057D01*
X14471000Y766876D01*
X14471000Y633124D01*
X14497094Y501943D01*
X14516952Y454000D01*
X6954000Y454000D01*
X6954000Y3022295D01*
X6951784Y3044794D01*
X6951784Y3051281D01*
X6951121Y3057586D01*
X6940244Y3154561D01*
X6931688Y3194816D01*
X6923697Y3235176D01*
X6921822Y3241231D01*
X6892316Y3334247D01*
X6876094Y3372095D01*
X6860425Y3410113D01*
X6857415Y3415679D01*
X6857411Y3415687D01*
X6857406Y3415694D01*
X6810398Y3501201D01*
X6787158Y3535142D01*
X6764382Y3569424D01*
X6760341Y3574308D01*
X6760340Y3574310D01*
X6760336Y3574314D01*
X6697616Y3649061D01*
X6668209Y3677858D01*
X6639219Y3707051D01*
X6634313Y3711052D01*
X6634310Y3711055D01*
X6634307Y3711057D01*
X6558257Y3772202D01*
X6523840Y3794724D01*
X6489716Y3817741D01*
X6484119Y3820717D01*
X6397641Y3865927D01*
X6359463Y3881352D01*
X6321555Y3897287D01*
X6315491Y3899118D01*
X6315485Y3899120D01*
X6221874Y3926671D01*
X6181460Y3934381D01*
X6141146Y3942656D01*
X6134841Y3943275D01*
X6134837Y3943275D01*
X6037655Y3952119D01*
X5996509Y3951832D01*
X5955363Y3952119D01*
X5949054Y3951500D01*
X5949052Y3951500D01*
X5852006Y3941300D01*
X5811704Y3933027D01*
X5771277Y3925316D01*
X5765215Y3923485D01*
X5765211Y3923484D01*
X5765208Y3923483D01*
X5765209Y3923483D01*
X5671991Y3894627D01*
X5634080Y3878691D01*
X5595906Y3863268D01*
X5590309Y3860291D01*
X5504471Y3813878D01*
X5470387Y3790888D01*
X5435925Y3768337D01*
X5431013Y3764330D01*
X5355824Y3702128D01*
X5326856Y3672957D01*
X5297430Y3644142D01*
X5293390Y3639257D01*
X5231715Y3563636D01*
X5208941Y3529358D01*
X5185696Y3495411D01*
X5182685Y3489840D01*
X5182682Y3489836D01*
X5182682Y3489835D01*
X5136870Y3403675D01*
X5121190Y3365632D01*
X5104980Y3327813D01*
X5103108Y3321763D01*
X5103105Y3321756D01*
X5103105Y3321754D01*
X5074901Y3228339D01*
X5066915Y3188007D01*
X5058352Y3147723D01*
X5057690Y3141418D01*
X5048168Y3044301D01*
X5046001Y3022295D01*
X5046000Y454000D01*
X454000Y454000D01*
X454000Y4166876D01*
X2721000Y4166876D01*
X2721000Y4033124D01*
X2747094Y3901943D01*
X2798278Y3778373D01*
X2872587Y3667163D01*
X2967163Y3572587D01*
X3078373Y3498278D01*
X3201943Y3447094D01*
X3333124Y3421000D01*
X3466876Y3421000D01*
X3598057Y3447094D01*
X3721627Y3498278D01*
X3832837Y3572587D01*
X3927413Y3667163D01*
X4001722Y3778373D01*
X4052906Y3901943D01*
X4079000Y4033124D01*
X4079000Y4166876D01*
X4052906Y4298057D01*
X4001722Y4421627D01*
X3927413Y4532837D01*
X3832837Y4627413D01*
X3721627Y4701722D01*
X3598057Y4752906D01*
X3466876Y4779000D01*
X3333124Y4779000D01*
X3201943Y4752906D01*
X3078373Y4701722D01*
X2967163Y4627413D01*
X2872587Y4532837D01*
X2798278Y4421627D01*
X2747094Y4298057D01*
X2721000Y4166876D01*
X454000Y4166876D01*
X454000Y5916876D01*
X6121000Y5916876D01*
X6121000Y5783124D01*
X6147094Y5651943D01*
X6198278Y5528373D01*
X6272587Y5417163D01*
X6367163Y5322587D01*
X6478373Y5248278D01*
X6601943Y5197094D01*
X6733124Y5171000D01*
X6866876Y5171000D01*
X6998057Y5197094D01*
X7121627Y5248278D01*
X7232837Y5322587D01*
X7327413Y5417163D01*
X7401722Y5528373D01*
X7452906Y5651943D01*
X7479000Y5783124D01*
X7479000Y5916876D01*
X7452906Y6048057D01*
X7445111Y6066876D01*
X8021000Y6066876D01*
X8021000Y5933124D01*
X8047094Y5801943D01*
X8098278Y5678373D01*
X8172587Y5567163D01*
X8267163Y5472587D01*
X8378373Y5398278D01*
X8501943Y5347094D01*
X8633124Y5321000D01*
X8766876Y5321000D01*
X8898057Y5347094D01*
X9021627Y5398278D01*
X9132837Y5472587D01*
X9227413Y5567163D01*
X9301722Y5678373D01*
X9352906Y5801943D01*
X9379000Y5933124D01*
X9379000Y6066876D01*
X9352906Y6198057D01*
X9301722Y6321627D01*
X9227413Y6432837D01*
X9132837Y6527413D01*
X9021627Y6601722D01*
X8898057Y6652906D01*
X8766876Y6679000D01*
X8633124Y6679000D01*
X8501943Y6652906D01*
X8378373Y6601722D01*
X8267163Y6527413D01*
X8172587Y6432837D01*
X8098278Y6321627D01*
X8047094Y6198057D01*
X8021000Y6066876D01*
X7445111Y6066876D01*
X7401722Y6171627D01*
X7327413Y6282837D01*
X7232837Y6377413D01*
X7121627Y6451722D01*
X6998057Y6502906D01*
X6866876Y6529000D01*
X6733124Y6529000D01*
X6601943Y6502906D01*
X6478373Y6451722D01*
X6367163Y6377413D01*
X6272587Y6282837D01*
X6198278Y6171627D01*
X6147094Y6048057D01*
X6121000Y5916876D01*
X454000Y5916876D01*
X454000Y7151876D01*
X1436000Y7151876D01*
X1436000Y7018124D01*
X1462094Y6886943D01*
X1513278Y6763373D01*
X1587587Y6652163D01*
X1682163Y6557587D01*
X1793373Y6483278D01*
X1916943Y6432094D01*
X2048124Y6406000D01*
X2181876Y6406000D01*
X2313057Y6432094D01*
X2436627Y6483278D01*
X2547837Y6557587D01*
X2642413Y6652163D01*
X2716722Y6763373D01*
X2767906Y6886943D01*
X2794000Y7018124D01*
X2794000Y7151876D01*
X2767906Y7283057D01*
X2716722Y7406627D01*
X2642413Y7517837D01*
X2547837Y7612413D01*
X2436627Y7686722D01*
X2313057Y7737906D01*
X2181876Y7764000D01*
X2048124Y7764000D01*
X1916943Y7737906D01*
X1793373Y7686722D01*
X1682163Y7612413D01*
X1587587Y7517837D01*
X1513278Y7406627D01*
X1462094Y7283057D01*
X1436000Y7151876D01*
X454000Y7151876D01*
X454000Y8366876D01*
X4321000Y8366876D01*
X4321000Y8233124D01*
X4347094Y8101943D01*
X4398278Y7978373D01*
X4472587Y7867163D01*
X4567163Y7772587D01*
X4678373Y7698278D01*
X4801943Y7647094D01*
X4933124Y7621000D01*
X5066876Y7621000D01*
X5198057Y7647094D01*
X5321627Y7698278D01*
X5432837Y7772587D01*
X5527413Y7867163D01*
X5601722Y7978373D01*
X5652906Y8101943D01*
X5679000Y8233124D01*
X5679000Y8366876D01*
X5721000Y8366876D01*
X5721000Y8233124D01*
X5747094Y8101943D01*
X5798278Y7978373D01*
X5872587Y7867163D01*
X5967163Y7772587D01*
X6078373Y7698278D01*
X6201943Y7647094D01*
X6333124Y7621000D01*
X6466876Y7621000D01*
X6598057Y7647094D01*
X6721627Y7698278D01*
X6832837Y7772587D01*
X6927413Y7867163D01*
X7001722Y7978373D01*
X7052906Y8101943D01*
X7065822Y8166876D01*
X8571000Y8166876D01*
X8571000Y8033124D01*
X8597094Y7901943D01*
X8648278Y7778373D01*
X8722587Y7667163D01*
X8817163Y7572587D01*
X8928373Y7498278D01*
X9051943Y7447094D01*
X9183124Y7421000D01*
X9316876Y7421000D01*
X9448057Y7447094D01*
X9571627Y7498278D01*
X9682837Y7572587D01*
X9727126Y7616876D01*
X10521000Y7616876D01*
X10521000Y7483124D01*
X10547094Y7351943D01*
X10598278Y7228373D01*
X10672587Y7117163D01*
X10767163Y7022587D01*
X10878373Y6948278D01*
X11001943Y6897094D01*
X11133124Y6871000D01*
X11266876Y6871000D01*
X11398057Y6897094D01*
X11521627Y6948278D01*
X11632837Y7022587D01*
X11727413Y7117163D01*
X11801722Y7228373D01*
X11817670Y7266876D01*
X14221000Y7266876D01*
X14221000Y7133124D01*
X14247094Y7001943D01*
X14298278Y6878373D01*
X14372587Y6767163D01*
X14467163Y6672587D01*
X14578373Y6598278D01*
X14701943Y6547094D01*
X14833124Y6521000D01*
X14966876Y6521000D01*
X15098057Y6547094D01*
X15221627Y6598278D01*
X15225000Y6600532D01*
X15228373Y6598278D01*
X15351943Y6547094D01*
X15483124Y6521000D01*
X15616876Y6521000D01*
X15748057Y6547094D01*
X15871627Y6598278D01*
X15982837Y6672587D01*
X16077413Y6767163D01*
X16151722Y6878373D01*
X16202906Y7001943D01*
X16229000Y7133124D01*
X16229000Y7266876D01*
X16202906Y7398057D01*
X16151722Y7521627D01*
X16077413Y7632837D01*
X15982837Y7727413D01*
X15871627Y7801722D01*
X15748057Y7852906D01*
X15616876Y7879000D01*
X15483124Y7879000D01*
X15351943Y7852906D01*
X15228373Y7801722D01*
X15225000Y7799468D01*
X15221627Y7801722D01*
X15098057Y7852906D01*
X14966876Y7879000D01*
X14833124Y7879000D01*
X14701943Y7852906D01*
X14578373Y7801722D01*
X14467163Y7727413D01*
X14372587Y7632837D01*
X14298278Y7521627D01*
X14247094Y7398057D01*
X14221000Y7266876D01*
X11817670Y7266876D01*
X11852906Y7351943D01*
X11879000Y7483124D01*
X11879000Y7616876D01*
X11852906Y7748057D01*
X11801722Y7871627D01*
X11727413Y7982837D01*
X11632837Y8077413D01*
X11521627Y8151722D01*
X11398057Y8202906D01*
X11266876Y8229000D01*
X11133124Y8229000D01*
X11001943Y8202906D01*
X10878373Y8151722D01*
X10767163Y8077413D01*
X10672587Y7982837D01*
X10598278Y7871627D01*
X10547094Y7748057D01*
X10521000Y7616876D01*
X9727126Y7616876D01*
X9777413Y7667163D01*
X9851722Y7778373D01*
X9902906Y7901943D01*
X9929000Y8033124D01*
X9929000Y8166876D01*
X9902906Y8298057D01*
X9851722Y8421627D01*
X9777413Y8532837D01*
X9682837Y8627413D01*
X9571627Y8701722D01*
X9448057Y8752906D01*
X9316876Y8779000D01*
X9183124Y8779000D01*
X9051943Y8752906D01*
X8928373Y8701722D01*
X8817163Y8627413D01*
X8722587Y8532837D01*
X8648278Y8421627D01*
X8597094Y8298057D01*
X8571000Y8166876D01*
X7065822Y8166876D01*
X7079000Y8233124D01*
X7079000Y8366876D01*
X7052906Y8498057D01*
X7001722Y8621627D01*
X6927413Y8732837D01*
X6832837Y8827413D01*
X6721627Y8901722D01*
X6685042Y8916876D01*
X12771000Y8916876D01*
X12771000Y8783124D01*
X12797094Y8651943D01*
X12848278Y8528373D01*
X12922587Y8417163D01*
X13017163Y8322587D01*
X13128373Y8248278D01*
X13251943Y8197094D01*
X13383124Y8171000D01*
X13516876Y8171000D01*
X13648057Y8197094D01*
X13771627Y8248278D01*
X13882837Y8322587D01*
X13926559Y8366309D01*
X14028373Y8298278D01*
X14151943Y8247094D01*
X14283124Y8221000D01*
X14416876Y8221000D01*
X14548057Y8247094D01*
X14671627Y8298278D01*
X14782837Y8372587D01*
X14877413Y8467163D01*
X14951722Y8578373D01*
X15002906Y8701943D01*
X15029000Y8833124D01*
X15029000Y8966876D01*
X15002906Y9098057D01*
X14951722Y9221627D01*
X14877413Y9332837D01*
X14782837Y9427413D01*
X14671627Y9501722D01*
X14548057Y9552906D01*
X14416876Y9579000D01*
X14283124Y9579000D01*
X14151943Y9552906D01*
X14028373Y9501722D01*
X13917163Y9427413D01*
X13873441Y9383691D01*
X13771627Y9451722D01*
X13648057Y9502906D01*
X13516876Y9529000D01*
X13383124Y9529000D01*
X13251943Y9502906D01*
X13128373Y9451722D01*
X13017163Y9377413D01*
X12922587Y9282837D01*
X12848278Y9171627D01*
X12797094Y9048057D01*
X12771000Y8916876D01*
X6685042Y8916876D01*
X6598057Y8952906D01*
X6466876Y8979000D01*
X6333124Y8979000D01*
X6201943Y8952906D01*
X6078373Y8901722D01*
X5967163Y8827413D01*
X5872587Y8732837D01*
X5798278Y8621627D01*
X5747094Y8498057D01*
X5721000Y8366876D01*
X5679000Y8366876D01*
X5652906Y8498057D01*
X5601722Y8621627D01*
X5527413Y8732837D01*
X5432837Y8827413D01*
X5321627Y8901722D01*
X5198057Y8952906D01*
X5066876Y8979000D01*
X4933124Y8979000D01*
X4801943Y8952906D01*
X4678373Y8901722D01*
X4567163Y8827413D01*
X4472587Y8732837D01*
X4398278Y8621627D01*
X4347094Y8498057D01*
X4321000Y8366876D01*
X454000Y8366876D01*
X454000Y12566876D01*
X621000Y12566876D01*
X621000Y12433124D01*
X647094Y12301943D01*
X698278Y12178373D01*
X772587Y12067163D01*
X867163Y11972587D01*
X900966Y11950000D01*
X867163Y11927413D01*
X772587Y11832837D01*
X698278Y11721627D01*
X647094Y11598057D01*
X621000Y11466876D01*
X621000Y11333124D01*
X647094Y11201943D01*
X698278Y11078373D01*
X772587Y10967163D01*
X867163Y10872587D01*
X978373Y10798278D01*
X1101943Y10747094D01*
X1233124Y10721000D01*
X1366876Y10721000D01*
X1498057Y10747094D01*
X1621627Y10798278D01*
X1732837Y10872587D01*
X1827413Y10967163D01*
X1901722Y11078373D01*
X1952906Y11201943D01*
X1979000Y11333124D01*
X1979000Y11466876D01*
X1952906Y11598057D01*
X1903690Y11716876D01*
X5821000Y11716876D01*
X5821000Y11583124D01*
X5847094Y11451943D01*
X5898278Y11328373D01*
X5972587Y11217163D01*
X6067163Y11122587D01*
X6178373Y11048278D01*
X6301943Y10997094D01*
X6433124Y10971000D01*
X6566876Y10971000D01*
X6698057Y10997094D01*
X6821627Y11048278D01*
X6932837Y11122587D01*
X7027413Y11217163D01*
X7101722Y11328373D01*
X7152906Y11451943D01*
X7179000Y11583124D01*
X7179000Y11716876D01*
X7152906Y11848057D01*
X7101722Y11971627D01*
X7027413Y12082837D01*
X6932837Y12177413D01*
X6821627Y12251722D01*
X6698057Y12302906D01*
X6566876Y12329000D01*
X6433124Y12329000D01*
X6301943Y12302906D01*
X6178373Y12251722D01*
X6067163Y12177413D01*
X5972587Y12082837D01*
X5898278Y11971627D01*
X5847094Y11848057D01*
X5821000Y11716876D01*
X1903690Y11716876D01*
X1901722Y11721627D01*
X1827413Y11832837D01*
X1732837Y11927413D01*
X1699034Y11950000D01*
X1732837Y11972587D01*
X1827413Y12067163D01*
X1901722Y12178373D01*
X1952906Y12301943D01*
X1979000Y12433124D01*
X1979000Y12566876D01*
X1952906Y12698057D01*
X1945111Y12716876D01*
X6821000Y12716876D01*
X6821000Y12583124D01*
X6847094Y12451943D01*
X6898278Y12328373D01*
X6972587Y12217163D01*
X7067163Y12122587D01*
X7178373Y12048278D01*
X7301943Y11997094D01*
X7433124Y11971000D01*
X7566876Y11971000D01*
X7698057Y11997094D01*
X7791026Y12035603D01*
X7748278Y11971627D01*
X7697094Y11848057D01*
X7671000Y11716876D01*
X7671000Y11583124D01*
X7697094Y11451943D01*
X7748278Y11328373D01*
X7791026Y11264397D01*
X7698057Y11302906D01*
X7566876Y11329000D01*
X7433124Y11329000D01*
X7301943Y11302906D01*
X7178373Y11251722D01*
X7067163Y11177413D01*
X6972587Y11082837D01*
X6898278Y10971627D01*
X6847094Y10848057D01*
X6821000Y10716876D01*
X6821000Y10583124D01*
X6847094Y10451943D01*
X6898278Y10328373D01*
X6972587Y10217163D01*
X7067163Y10122587D01*
X7178373Y10048278D01*
X7301943Y9997094D01*
X7433124Y9971000D01*
X7566876Y9971000D01*
X7698057Y9997094D01*
X7821627Y10048278D01*
X7932837Y10122587D01*
X8027413Y10217163D01*
X8101722Y10328373D01*
X8152906Y10451943D01*
X8179000Y10583124D01*
X8179000Y10716876D01*
X8152906Y10848057D01*
X8101722Y10971627D01*
X8058974Y11035603D01*
X8151943Y10997094D01*
X8283124Y10971000D01*
X8416876Y10971000D01*
X8548057Y10997094D01*
X8671627Y11048278D01*
X8782837Y11122587D01*
X8877413Y11217163D01*
X8951722Y11328373D01*
X9002906Y11451943D01*
X9029000Y11583124D01*
X9029000Y11716876D01*
X9002906Y11848057D01*
X8951722Y11971627D01*
X8877413Y12082837D01*
X8782837Y12177413D01*
X8671627Y12251722D01*
X8548057Y12302906D01*
X8416876Y12329000D01*
X8283124Y12329000D01*
X8151943Y12302906D01*
X8058974Y12264397D01*
X8101722Y12328373D01*
X8152906Y12451943D01*
X8179000Y12583124D01*
X8179000Y12716876D01*
X8152906Y12848057D01*
X8101722Y12971627D01*
X8027413Y13082837D01*
X7943374Y13166876D01*
X12071000Y13166876D01*
X12071000Y13033124D01*
X12097094Y12901943D01*
X12148278Y12778373D01*
X12222587Y12667163D01*
X12317163Y12572587D01*
X12428373Y12498278D01*
X12551943Y12447094D01*
X12683124Y12421000D01*
X12816876Y12421000D01*
X12948057Y12447094D01*
X13071627Y12498278D01*
X13182837Y12572587D01*
X13277413Y12667163D01*
X13322949Y12735312D01*
X13378373Y12698278D01*
X13501943Y12647094D01*
X13633124Y12621000D01*
X13766876Y12621000D01*
X13898057Y12647094D01*
X14021627Y12698278D01*
X14132837Y12772587D01*
X14227413Y12867163D01*
X14301722Y12978373D01*
X14352906Y13101943D01*
X14379000Y13233124D01*
X14379000Y13366876D01*
X14352906Y13498057D01*
X14301722Y13621627D01*
X14227413Y13732837D01*
X14132837Y13827413D01*
X14021627Y13901722D01*
X13929000Y13940089D01*
X13929000Y14066876D01*
X13902906Y14198057D01*
X13851722Y14321627D01*
X13777413Y14432837D01*
X13682837Y14527413D01*
X13571627Y14601722D01*
X13448057Y14652906D01*
X13316876Y14679000D01*
X13183124Y14679000D01*
X13051943Y14652906D01*
X12928373Y14601722D01*
X12817163Y14527413D01*
X12722587Y14432837D01*
X12648278Y14321627D01*
X12597094Y14198057D01*
X12571000Y14066876D01*
X12571000Y13933124D01*
X12597094Y13801943D01*
X12612423Y13764936D01*
X12551943Y13752906D01*
X12428373Y13701722D01*
X12317163Y13627413D01*
X12222587Y13532837D01*
X12148278Y13421627D01*
X12097094Y13298057D01*
X12071000Y13166876D01*
X7943374Y13166876D01*
X7932837Y13177413D01*
X7821627Y13251722D01*
X7698057Y13302906D01*
X7566876Y13329000D01*
X7433124Y13329000D01*
X7301943Y13302906D01*
X7178373Y13251722D01*
X7067163Y13177413D01*
X6972587Y13082837D01*
X6898278Y12971627D01*
X6847094Y12848057D01*
X6821000Y12716876D01*
X1945111Y12716876D01*
X1901722Y12821627D01*
X1827413Y12932837D01*
X1732837Y13027413D01*
X1621627Y13101722D01*
X1498057Y13152906D01*
X1366876Y13179000D01*
X1233124Y13179000D01*
X1101943Y13152906D01*
X978373Y13101722D01*
X867163Y13027413D01*
X772587Y12932837D01*
X698278Y12821627D01*
X647094Y12698057D01*
X621000Y12566876D01*
X454000Y12566876D01*
X454000Y14016876D01*
X3721000Y14016876D01*
X3721000Y13883124D01*
X3747094Y13751943D01*
X3798278Y13628373D01*
X3872587Y13517163D01*
X3967163Y13422587D01*
X4078373Y13348278D01*
X4201943Y13297094D01*
X4333124Y13271000D01*
X4466876Y13271000D01*
X4598057Y13297094D01*
X4721627Y13348278D01*
X4832837Y13422587D01*
X4927413Y13517163D01*
X5001722Y13628373D01*
X5052906Y13751943D01*
X5079000Y13883124D01*
X5079000Y14016876D01*
X5052906Y14148057D01*
X5001722Y14271627D01*
X4927413Y14382837D01*
X4832837Y14477413D01*
X4721627Y14551722D01*
X4598057Y14602906D01*
X4466876Y14629000D01*
X4333124Y14629000D01*
X4201943Y14602906D01*
X4078373Y14551722D01*
X3967163Y14477413D01*
X3872587Y14382837D01*
X3798278Y14271627D01*
X3747094Y14148057D01*
X3721000Y14016876D01*
X454000Y14016876D01*
X454000Y14866876D01*
X11371000Y14866876D01*
X11371000Y14733124D01*
X11397094Y14601943D01*
X11448278Y14478373D01*
X11522587Y14367163D01*
X11617163Y14272587D01*
X11728373Y14198278D01*
X11851943Y14147094D01*
X11983124Y14121000D01*
X12116876Y14121000D01*
X12248057Y14147094D01*
X12371627Y14198278D01*
X12482837Y14272587D01*
X12577413Y14367163D01*
X12651722Y14478373D01*
X12702906Y14601943D01*
X12729000Y14733124D01*
X12729000Y14866876D01*
X12702906Y14998057D01*
X12651722Y15121627D01*
X12577413Y15232837D01*
X12482837Y15327413D01*
X12371627Y15401722D01*
X12248057Y15452906D01*
X12116876Y15479000D01*
X11983124Y15479000D01*
X11851943Y15452906D01*
X11728373Y15401722D01*
X11617163Y15327413D01*
X11522587Y15232837D01*
X11448278Y15121627D01*
X11397094Y14998057D01*
X11371000Y14866876D01*
X454000Y14866876D01*
X454000Y19766876D01*
X8371000Y19766876D01*
X8371000Y19633124D01*
X8397094Y19501943D01*
X8448278Y19378373D01*
X8522587Y19267163D01*
X8617163Y19172587D01*
X8728373Y19098278D01*
X8851943Y19047094D01*
X8983124Y19021000D01*
X9116876Y19021000D01*
X9248057Y19047094D01*
X9371627Y19098278D01*
X9482837Y19172587D01*
X9577413Y19267163D01*
X9651722Y19378373D01*
X9702906Y19501943D01*
X9729000Y19633124D01*
X9729000Y19766876D01*
X14321000Y19766876D01*
X14321000Y19633124D01*
X14347094Y19501943D01*
X14398278Y19378373D01*
X14472587Y19267163D01*
X14567163Y19172587D01*
X14678373Y19098278D01*
X14801943Y19047094D01*
X14933124Y19021000D01*
X15066876Y19021000D01*
X15198057Y19047094D01*
X15321627Y19098278D01*
X15432837Y19172587D01*
X15527413Y19267163D01*
X15601722Y19378373D01*
X15652906Y19501943D01*
X15679000Y19633124D01*
X15679000Y19766876D01*
X15652906Y19898057D01*
X15601722Y20021627D01*
X15527413Y20132837D01*
X15432837Y20227413D01*
X15321627Y20301722D01*
X15198057Y20352906D01*
X15066876Y20379000D01*
X14933124Y20379000D01*
X14801943Y20352906D01*
X14678373Y20301722D01*
X14567163Y20227413D01*
X14472587Y20132837D01*
X14398278Y20021627D01*
X14347094Y19898057D01*
X14321000Y19766876D01*
X9729000Y19766876D01*
X9702906Y19898057D01*
X9651722Y20021627D01*
X9577413Y20132837D01*
X9482837Y20227413D01*
X9371627Y20301722D01*
X9248057Y20352906D01*
X9116876Y20379000D01*
X8983124Y20379000D01*
X8851943Y20352906D01*
X8728373Y20301722D01*
X8617163Y20227413D01*
X8522587Y20132837D01*
X8448278Y20021627D01*
X8397094Y19898057D01*
X8371000Y19766876D01*
X454000Y19766876D01*
X454000Y20716876D01*
X10071000Y20716876D01*
X10071000Y20583124D01*
X10097094Y20451943D01*
X10148278Y20328373D01*
X10222587Y20217163D01*
X10317163Y20122587D01*
X10428373Y20048278D01*
X10551943Y19997094D01*
X10683124Y19971000D01*
X10816876Y19971000D01*
X10948057Y19997094D01*
X11071627Y20048278D01*
X11182837Y20122587D01*
X11277413Y20217163D01*
X11351722Y20328373D01*
X11402906Y20451943D01*
X11429000Y20583124D01*
X11429000Y20716876D01*
X15571000Y20716876D01*
X15571000Y20583124D01*
X15597094Y20451943D01*
X15648278Y20328373D01*
X15722587Y20217163D01*
X15817163Y20122587D01*
X15928373Y20048278D01*
X16051943Y19997094D01*
X16183124Y19971000D01*
X16316876Y19971000D01*
X16448057Y19997094D01*
X16571627Y20048278D01*
X16682837Y20122587D01*
X16777413Y20217163D01*
X16851722Y20328373D01*
X16902906Y20451943D01*
X16929000Y20583124D01*
X16929000Y20716876D01*
X16902906Y20848057D01*
X16851722Y20971627D01*
X16777413Y21082837D01*
X16682837Y21177413D01*
X16571627Y21251722D01*
X16448057Y21302906D01*
X16316876Y21329000D01*
X16183124Y21329000D01*
X16051943Y21302906D01*
X15928373Y21251722D01*
X15817163Y21177413D01*
X15722587Y21082837D01*
X15648278Y20971627D01*
X15597094Y20848057D01*
X15571000Y20716876D01*
X11429000Y20716876D01*
X11402906Y20848057D01*
X11351722Y20971627D01*
X11277413Y21082837D01*
X11182837Y21177413D01*
X11071627Y21251722D01*
X10948057Y21302906D01*
X10816876Y21329000D01*
X10683124Y21329000D01*
X10551943Y21302906D01*
X10428373Y21251722D01*
X10317163Y21177413D01*
X10222587Y21082837D01*
X10148278Y20971627D01*
X10097094Y20848057D01*
X10071000Y20716876D01*
X454000Y20716876D01*
X454000Y22216876D01*
X13571000Y22216876D01*
X13571000Y22083124D01*
X13597094Y21951943D01*
X13648278Y21828373D01*
X13722587Y21717163D01*
X13817163Y21622587D01*
X13928373Y21548278D01*
X14051943Y21497094D01*
X14089603Y21489603D01*
X14097094Y21451943D01*
X14148278Y21328373D01*
X14222587Y21217163D01*
X14317163Y21122587D01*
X14428373Y21048278D01*
X14551943Y20997094D01*
X14683124Y20971000D01*
X14816876Y20971000D01*
X14948057Y20997094D01*
X15071627Y21048278D01*
X15182837Y21122587D01*
X15277413Y21217163D01*
X15351722Y21328373D01*
X15402906Y21451943D01*
X15410397Y21489603D01*
X15448057Y21497094D01*
X15571627Y21548278D01*
X15682837Y21622587D01*
X15777413Y21717163D01*
X15851722Y21828373D01*
X15902906Y21951943D01*
X15905876Y21966876D01*
X16471000Y21966876D01*
X16471000Y21833124D01*
X16497094Y21701943D01*
X16548278Y21578373D01*
X16622587Y21467163D01*
X16717163Y21372587D01*
X16828373Y21298278D01*
X16951943Y21247094D01*
X17083124Y21221000D01*
X17216876Y21221000D01*
X17348057Y21247094D01*
X17471627Y21298278D01*
X17582837Y21372587D01*
X17677413Y21467163D01*
X17751722Y21578373D01*
X17802906Y21701943D01*
X17829000Y21833124D01*
X17829000Y21966876D01*
X17802906Y22098057D01*
X17751722Y22221627D01*
X17677413Y22332837D01*
X17582837Y22427413D01*
X17471627Y22501722D01*
X17348057Y22552906D01*
X17216876Y22579000D01*
X17083124Y22579000D01*
X16951943Y22552906D01*
X16828373Y22501722D01*
X16717163Y22427413D01*
X16622587Y22332837D01*
X16548278Y22221627D01*
X16497094Y22098057D01*
X16471000Y21966876D01*
X15905876Y21966876D01*
X15929000Y22083124D01*
X15929000Y22216876D01*
X15902906Y22348057D01*
X15851722Y22471627D01*
X15777413Y22582837D01*
X15682837Y22677413D01*
X15571627Y22751722D01*
X15448057Y22802906D01*
X15410397Y22810397D01*
X15402906Y22848057D01*
X15351722Y22971627D01*
X15277413Y23082837D01*
X15182837Y23177413D01*
X15071627Y23251722D01*
X14948057Y23302906D01*
X14816876Y23329000D01*
X14683124Y23329000D01*
X14551943Y23302906D01*
X14428373Y23251722D01*
X14317163Y23177413D01*
X14222587Y23082837D01*
X14148278Y22971627D01*
X14097094Y22848057D01*
X14089603Y22810397D01*
X14051943Y22802906D01*
X13928373Y22751722D01*
X13817163Y22677413D01*
X13722587Y22582837D01*
X13648278Y22471627D01*
X13597094Y22348057D01*
X13571000Y22216876D01*
X454000Y22216876D01*
X454000Y26966876D01*
X14321000Y26966876D01*
X14321000Y26833124D01*
X14347094Y26701943D01*
X14398278Y26578373D01*
X14472587Y26467163D01*
X14567163Y26372587D01*
X14678373Y26298278D01*
X14801943Y26247094D01*
X14933124Y26221000D01*
X15066876Y26221000D01*
X15198057Y26247094D01*
X15321627Y26298278D01*
X15432837Y26372587D01*
X15527413Y26467163D01*
X15601722Y26578373D01*
X15652906Y26701943D01*
X15679000Y26833124D01*
X15679000Y26966876D01*
X15652906Y27098057D01*
X15601722Y27221627D01*
X15527413Y27332837D01*
X15432837Y27427413D01*
X15321627Y27501722D01*
X15198057Y27552906D01*
X15066876Y27579000D01*
X14933124Y27579000D01*
X14801943Y27552906D01*
X14678373Y27501722D01*
X14567163Y27427413D01*
X14472587Y27332837D01*
X14398278Y27221627D01*
X14347094Y27098057D01*
X14321000Y26966876D01*
X454000Y26966876D01*
X454000Y29546000D01*
X19546000Y29546000D01*
X19546000Y23652027D01*
M02*
