G04 #@! TF.GenerationSoftware,KiCad,Pcbnew,5.1.4-e60b266~84~ubuntu16.04.1*
G04 #@! TF.CreationDate,2019-11-09T12:49:13+01:00*
G04 #@! TF.ProjectId,MiniVarioL0,4d696e69-5661-4726-996f-4c302e6b6963,v1.0.0*
G04 #@! TF.SameCoordinates,PX84157a0PY7270e00*
G04 #@! TF.FileFunction,Copper,L4,Bot*
G04 #@! TF.FilePolarity,Positive*
%FSLAX46Y46*%
G04 Gerber Fmt 4.6, Leading zero omitted, Abs format (unit mm)*
G04 Created by KiCad (PCBNEW 5.1.4-e60b266~84~ubuntu16.04.1) date 2019-11-09 12:49:13*
%MOMM*%
%LPD*%
G04 APERTURE LIST*
%ADD10R,5.080000X2.790000*%
%ADD11C,3.000000*%
%ADD12C,1.000000*%
%ADD13O,0.800000X3.000000*%
%ADD14C,0.600000*%
%ADD15C,0.500000*%
%ADD16C,0.151000*%
G04 APERTURE END LIST*
D10*
X10000000Y4000000D03*
X10000000Y25970000D03*
D11*
X10000000Y14985000D03*
D12*
X10000000Y12000000D03*
X7000000Y15000000D03*
X13000000Y15000000D03*
X10000000Y17950000D03*
D13*
X845000Y1850000D03*
X2115000Y1850000D03*
X3385000Y1850000D03*
X4655000Y1850000D03*
D14*
X15550000Y7200000D03*
X14900000Y7200000D03*
X6800000Y5850000D03*
X9250000Y8100000D03*
X11200000Y7550000D03*
X1300000Y12500000D03*
X1300000Y11400000D03*
X13250000Y14000000D03*
X7500000Y12650000D03*
X8350000Y11650000D03*
X6500000Y11650000D03*
X7500000Y10650000D03*
X14750000Y22650000D03*
X14750000Y21650000D03*
X14250000Y22150000D03*
X15250000Y22150000D03*
X13450000Y8850000D03*
X15150000Y700000D03*
X19150000Y23100000D03*
X19150000Y13200000D03*
X19150000Y6800000D03*
X3400000Y4100000D03*
X14200000Y24600000D03*
X18160000Y11510000D03*
X18800000Y11500000D03*
X1500000Y4650000D03*
X11200000Y13350000D03*
X10700000Y9800000D03*
X10225000Y6825000D03*
X4450000Y15400000D03*
X3700000Y9300000D03*
X13550000Y8100000D03*
X10800000Y17400000D03*
X15000000Y26900000D03*
X17150000Y21900000D03*
X2115000Y7085000D03*
X12050000Y14800000D03*
X12750000Y13100000D03*
X5000000Y8300000D03*
X16250000Y20650000D03*
X10750000Y20650000D03*
X15000000Y19700000D03*
X9050000Y19700000D03*
X14350000Y8900000D03*
X13700000Y13300000D03*
X8700000Y6000000D03*
X6400000Y8300000D03*
X4400000Y13950000D03*
D15*
X14350000Y7200000D02*
X14900000Y7200000D01*
X11165000Y4015000D02*
X14350000Y7200000D01*
X10000000Y4015000D02*
X11165000Y4015000D01*
D16*
X3385000Y4085000D02*
X3400000Y4100000D01*
X3385000Y1850000D02*
X3385000Y4085000D01*
X15000000Y24050000D02*
X15000000Y26900000D01*
X17150000Y21900000D02*
X15000000Y24050000D01*
X8400000Y9300000D02*
X12050000Y12950000D01*
X4500000Y9300000D02*
X8400000Y9300000D01*
X2285000Y7085000D02*
X4500000Y9300000D01*
X2115000Y7085000D02*
X2285000Y7085000D01*
X12050000Y12950000D02*
X12050000Y14800000D01*
X2115000Y6265000D02*
X2115000Y1850000D01*
X4700000Y8850000D02*
X2115000Y6265000D01*
X8500000Y8850000D02*
X4700000Y8850000D01*
X12750000Y13100000D02*
X8500000Y8850000D01*
X4655000Y7955000D02*
X4655000Y1850000D01*
X5000000Y8300000D02*
X4655000Y7955000D01*
X10750000Y20650000D02*
X16250000Y20650000D01*
X9050000Y19700000D02*
X15000000Y19700000D01*
X13700000Y13300000D02*
X14350000Y12650000D01*
X14350000Y12650000D02*
X14350000Y8900000D01*
X8700000Y6000000D02*
X6400000Y8300000D01*
X845000Y7845000D02*
X845000Y1850000D01*
X4400000Y11400000D02*
X845000Y7845000D01*
X4400000Y13950000D02*
X4400000Y11400000D01*
G36*
X19595501Y404500D02*
G01*
X6904500Y404500D01*
X6904500Y3019870D01*
X6902520Y3039973D01*
X6902520Y3046451D01*
X6901929Y3052068D01*
X6891052Y3149043D01*
X6883438Y3184863D01*
X6876309Y3220869D01*
X6874639Y3226264D01*
X6845133Y3319279D01*
X6830696Y3352962D01*
X6816719Y3386874D01*
X6814032Y3391842D01*
X6767021Y3477354D01*
X6746324Y3507582D01*
X6726022Y3538138D01*
X6722421Y3542490D01*
X6722420Y3542492D01*
X6722416Y3542496D01*
X6659696Y3617243D01*
X6633529Y3642867D01*
X6607667Y3668911D01*
X6603290Y3672480D01*
X6527240Y3733625D01*
X6496590Y3753681D01*
X6466173Y3774198D01*
X6461186Y3776850D01*
X6374708Y3822060D01*
X6340723Y3835791D01*
X6306918Y3850001D01*
X6301511Y3851633D01*
X6207898Y3879185D01*
X6171962Y3886040D01*
X6135972Y3893428D01*
X6130351Y3893978D01*
X6033169Y3902822D01*
X5996547Y3902566D01*
X5959849Y3902823D01*
X5954228Y3902271D01*
X5954224Y3902271D01*
X5857180Y3892071D01*
X5821309Y3884708D01*
X5785253Y3877830D01*
X5779846Y3876197D01*
X5686628Y3847341D01*
X5652859Y3833146D01*
X5618839Y3819401D01*
X5613853Y3816749D01*
X5528014Y3770336D01*
X5497641Y3749849D01*
X5466942Y3729760D01*
X5462565Y3726190D01*
X5387376Y3663988D01*
X5361569Y3637999D01*
X5335350Y3612324D01*
X5331750Y3607972D01*
X5270075Y3532351D01*
X5249815Y3501856D01*
X5229073Y3471564D01*
X5226387Y3466596D01*
X5206086Y3428415D01*
X5173329Y3468330D01*
X5062248Y3559491D01*
X5060000Y3560693D01*
X5060000Y7670500D01*
X5062000Y7670500D01*
X5183618Y7694691D01*
X5298180Y7742144D01*
X5401283Y7811035D01*
X5488965Y7898717D01*
X5557856Y8001820D01*
X5605309Y8116382D01*
X5629500Y8238000D01*
X5629500Y8362000D01*
X5612990Y8445000D01*
X5787010Y8445000D01*
X5770500Y8362000D01*
X5770500Y8238000D01*
X5794691Y8116382D01*
X5842144Y8001820D01*
X5911035Y7898717D01*
X5998717Y7811035D01*
X6101820Y7742144D01*
X6216382Y7694691D01*
X6338000Y7670500D01*
X6456745Y7670500D01*
X8070500Y6056744D01*
X8070500Y5938000D01*
X8094691Y5816382D01*
X8132089Y5726094D01*
X7460000Y5726094D01*
X7395407Y5719732D01*
X7333296Y5700891D01*
X7276054Y5670295D01*
X7225881Y5629119D01*
X7184705Y5578946D01*
X7154109Y5521704D01*
X7135268Y5459593D01*
X7128906Y5395000D01*
X7128906Y2605000D01*
X7135268Y2540407D01*
X7154109Y2478296D01*
X7184705Y2421054D01*
X7225881Y2370881D01*
X7276054Y2329705D01*
X7333296Y2299109D01*
X7395407Y2280268D01*
X7460000Y2273906D01*
X12540000Y2273906D01*
X12604593Y2280268D01*
X12666704Y2299109D01*
X12723946Y2329705D01*
X12774119Y2370881D01*
X12815295Y2421054D01*
X12845891Y2478296D01*
X12864732Y2540407D01*
X12871094Y2605000D01*
X12871094Y4901559D01*
X14590036Y6620500D01*
X14654073Y6620500D01*
X14716382Y6594691D01*
X14838000Y6570500D01*
X14962000Y6570500D01*
X15083618Y6594691D01*
X15198180Y6642144D01*
X15225000Y6660064D01*
X15251820Y6642144D01*
X15366382Y6594691D01*
X15488000Y6570500D01*
X15612000Y6570500D01*
X15733618Y6594691D01*
X15848180Y6642144D01*
X15951283Y6711035D01*
X16038965Y6798717D01*
X16107856Y6901820D01*
X16155309Y7016382D01*
X16179500Y7138000D01*
X16179500Y7262000D01*
X16155309Y7383618D01*
X16107856Y7498180D01*
X16038965Y7601283D01*
X15951283Y7688965D01*
X15848180Y7757856D01*
X15733618Y7805309D01*
X15612000Y7829500D01*
X15488000Y7829500D01*
X15366382Y7805309D01*
X15251820Y7757856D01*
X15225000Y7739936D01*
X15198180Y7757856D01*
X15083618Y7805309D01*
X14962000Y7829500D01*
X14838000Y7829500D01*
X14716382Y7805309D01*
X14654073Y7779500D01*
X14378448Y7779500D01*
X14349999Y7782302D01*
X14321551Y7779500D01*
X14321541Y7779500D01*
X14236398Y7771114D01*
X14127162Y7737978D01*
X14026490Y7684167D01*
X14014918Y7674670D01*
X14038965Y7698717D01*
X14107856Y7801820D01*
X14155309Y7916382D01*
X14179500Y8038000D01*
X14179500Y8162000D01*
X14155309Y8283618D01*
X14147479Y8302521D01*
X14166382Y8294691D01*
X14288000Y8270500D01*
X14412000Y8270500D01*
X14533618Y8294691D01*
X14648180Y8342144D01*
X14751283Y8411035D01*
X14838965Y8498717D01*
X14907856Y8601820D01*
X14955309Y8716382D01*
X14979500Y8838000D01*
X14979500Y8962000D01*
X14955309Y9083618D01*
X14907856Y9198180D01*
X14838965Y9301283D01*
X14755000Y9385248D01*
X14755000Y11572000D01*
X17530500Y11572000D01*
X17530500Y11448000D01*
X17554691Y11326382D01*
X17602144Y11211820D01*
X17671035Y11108717D01*
X17758717Y11021035D01*
X17861820Y10952144D01*
X17976382Y10904691D01*
X18098000Y10880500D01*
X18222000Y10880500D01*
X18343618Y10904691D01*
X18458180Y10952144D01*
X18472517Y10961724D01*
X18501820Y10942144D01*
X18616382Y10894691D01*
X18738000Y10870500D01*
X18862000Y10870500D01*
X18983618Y10894691D01*
X19098180Y10942144D01*
X19201283Y11011035D01*
X19288965Y11098717D01*
X19357856Y11201820D01*
X19405309Y11316382D01*
X19429500Y11438000D01*
X19429500Y11562000D01*
X19405309Y11683618D01*
X19357856Y11798180D01*
X19288965Y11901283D01*
X19201283Y11988965D01*
X19098180Y12057856D01*
X18983618Y12105309D01*
X18862000Y12129500D01*
X18738000Y12129500D01*
X18616382Y12105309D01*
X18501820Y12057856D01*
X18487483Y12048276D01*
X18458180Y12067856D01*
X18343618Y12115309D01*
X18222000Y12139500D01*
X18098000Y12139500D01*
X17976382Y12115309D01*
X17861820Y12067856D01*
X17758717Y11998965D01*
X17671035Y11911283D01*
X17602144Y11808180D01*
X17554691Y11693618D01*
X17530500Y11572000D01*
X14755000Y11572000D01*
X14755000Y12630118D01*
X14756958Y12650000D01*
X14755000Y12669882D01*
X14755000Y12669889D01*
X14749139Y12729394D01*
X14725981Y12805736D01*
X14688374Y12876094D01*
X14669808Y12898717D01*
X14650442Y12922315D01*
X14650436Y12922321D01*
X14637763Y12937763D01*
X14622321Y12950436D01*
X14329500Y13243256D01*
X14329500Y13362000D01*
X14305309Y13483618D01*
X14257856Y13598180D01*
X14188965Y13701283D01*
X14101283Y13788965D01*
X13998180Y13857856D01*
X13883618Y13905309D01*
X13762000Y13929500D01*
X13638000Y13929500D01*
X13516382Y13905309D01*
X13401820Y13857856D01*
X13298717Y13788965D01*
X13211035Y13701283D01*
X13142144Y13598180D01*
X13141136Y13595745D01*
X13048180Y13657856D01*
X12933618Y13705309D01*
X12812000Y13729500D01*
X12688000Y13729500D01*
X12566382Y13705309D01*
X12455000Y13659173D01*
X12455000Y14314752D01*
X12538965Y14398717D01*
X12607856Y14501820D01*
X12655309Y14616382D01*
X12679500Y14738000D01*
X12679500Y14862000D01*
X12655309Y14983618D01*
X12607856Y15098180D01*
X12538965Y15201283D01*
X12451283Y15288965D01*
X12348180Y15357856D01*
X12233618Y15405309D01*
X12112000Y15429500D01*
X11988000Y15429500D01*
X11866382Y15405309D01*
X11751820Y15357856D01*
X11648717Y15288965D01*
X11561035Y15201283D01*
X11492144Y15098180D01*
X11444691Y14983618D01*
X11420500Y14862000D01*
X11420500Y14738000D01*
X11444691Y14616382D01*
X11492144Y14501820D01*
X11561035Y14398717D01*
X11645001Y14314751D01*
X11645000Y13795248D01*
X11601283Y13838965D01*
X11498180Y13907856D01*
X11383618Y13955309D01*
X11262000Y13979500D01*
X11138000Y13979500D01*
X11016382Y13955309D01*
X10901820Y13907856D01*
X10798717Y13838965D01*
X10711035Y13751283D01*
X10642144Y13648180D01*
X10594691Y13533618D01*
X10570500Y13412000D01*
X10570500Y13288000D01*
X10594691Y13166382D01*
X10642144Y13051820D01*
X10711035Y12948717D01*
X10798717Y12861035D01*
X10901820Y12792144D01*
X11016382Y12744691D01*
X11138000Y12720500D01*
X11247743Y12720500D01*
X8232245Y9705000D01*
X4519881Y9705000D01*
X4499999Y9706958D01*
X4480118Y9705000D01*
X4480111Y9705000D01*
X4420606Y9699139D01*
X4344264Y9675981D01*
X4273906Y9638374D01*
X4246195Y9615632D01*
X4188965Y9701283D01*
X4101283Y9788965D01*
X3998180Y9857856D01*
X3883618Y9905309D01*
X3762000Y9929500D01*
X3638000Y9929500D01*
X3516382Y9905309D01*
X3450970Y9878215D01*
X4672315Y11099559D01*
X4687763Y11112237D01*
X4738374Y11173906D01*
X4775981Y11244264D01*
X4799139Y11320606D01*
X4805000Y11380111D01*
X4805000Y11380120D01*
X4806958Y11399999D01*
X4805000Y11419878D01*
X4805000Y13464752D01*
X4888965Y13548717D01*
X4957856Y13651820D01*
X5005309Y13766382D01*
X5029500Y13888000D01*
X5029500Y14012000D01*
X5005309Y14133618D01*
X4957856Y14248180D01*
X4888965Y14351283D01*
X4801283Y14438965D01*
X4698180Y14507856D01*
X4583618Y14555309D01*
X4462000Y14579500D01*
X4338000Y14579500D01*
X4216382Y14555309D01*
X4101820Y14507856D01*
X3998717Y14438965D01*
X3911035Y14351283D01*
X3842144Y14248180D01*
X3794691Y14133618D01*
X3770500Y14012000D01*
X3770500Y13888000D01*
X3794691Y13766382D01*
X3842144Y13651820D01*
X3911035Y13548717D01*
X3995000Y13464752D01*
X3995001Y11567757D01*
X572690Y8145445D01*
X557237Y8132763D01*
X506626Y8071093D01*
X469019Y8000735D01*
X445861Y7924393D01*
X440000Y7864888D01*
X440000Y7864881D01*
X438042Y7845000D01*
X440000Y7825119D01*
X440001Y3560693D01*
X437751Y3559491D01*
X404500Y3532203D01*
X404500Y15462000D01*
X3820500Y15462000D01*
X3820500Y15338000D01*
X3844691Y15216382D01*
X3892144Y15101820D01*
X3961035Y14998717D01*
X4048717Y14911035D01*
X4151820Y14842144D01*
X4266382Y14794691D01*
X4388000Y14770500D01*
X4512000Y14770500D01*
X4633618Y14794691D01*
X4748180Y14842144D01*
X4851283Y14911035D01*
X4938965Y14998717D01*
X5007856Y15101820D01*
X5055309Y15216382D01*
X5079500Y15338000D01*
X5079500Y15462000D01*
X5055309Y15583618D01*
X5007856Y15698180D01*
X4938965Y15801283D01*
X4851283Y15888965D01*
X4748180Y15957856D01*
X4633618Y16005309D01*
X4512000Y16029500D01*
X4388000Y16029500D01*
X4266382Y16005309D01*
X4151820Y15957856D01*
X4048717Y15888965D01*
X3961035Y15801283D01*
X3892144Y15698180D01*
X3844691Y15583618D01*
X3820500Y15462000D01*
X404500Y15462000D01*
X404500Y17462000D01*
X10170500Y17462000D01*
X10170500Y17338000D01*
X10194691Y17216382D01*
X10242144Y17101820D01*
X10311035Y16998717D01*
X10398717Y16911035D01*
X10501820Y16842144D01*
X10616382Y16794691D01*
X10738000Y16770500D01*
X10862000Y16770500D01*
X10983618Y16794691D01*
X11098180Y16842144D01*
X11201283Y16911035D01*
X11288965Y16998717D01*
X11357856Y17101820D01*
X11405309Y17216382D01*
X11429500Y17338000D01*
X11429500Y17462000D01*
X11405309Y17583618D01*
X11357856Y17698180D01*
X11288965Y17801283D01*
X11201283Y17888965D01*
X11098180Y17957856D01*
X10983618Y18005309D01*
X10862000Y18029500D01*
X10738000Y18029500D01*
X10616382Y18005309D01*
X10501820Y17957856D01*
X10398717Y17888965D01*
X10311035Y17801283D01*
X10242144Y17698180D01*
X10194691Y17583618D01*
X10170500Y17462000D01*
X404500Y17462000D01*
X404500Y19762000D01*
X8420500Y19762000D01*
X8420500Y19638000D01*
X8444691Y19516382D01*
X8492144Y19401820D01*
X8561035Y19298717D01*
X8648717Y19211035D01*
X8751820Y19142144D01*
X8866382Y19094691D01*
X8988000Y19070500D01*
X9112000Y19070500D01*
X9233618Y19094691D01*
X9348180Y19142144D01*
X9451283Y19211035D01*
X9535248Y19295000D01*
X14514752Y19295000D01*
X14598717Y19211035D01*
X14701820Y19142144D01*
X14816382Y19094691D01*
X14938000Y19070500D01*
X15062000Y19070500D01*
X15183618Y19094691D01*
X15298180Y19142144D01*
X15401283Y19211035D01*
X15488965Y19298717D01*
X15557856Y19401820D01*
X15605309Y19516382D01*
X15629500Y19638000D01*
X15629500Y19762000D01*
X15605309Y19883618D01*
X15557856Y19998180D01*
X15488965Y20101283D01*
X15401283Y20188965D01*
X15317420Y20245000D01*
X15764752Y20245000D01*
X15848717Y20161035D01*
X15951820Y20092144D01*
X16066382Y20044691D01*
X16188000Y20020500D01*
X16312000Y20020500D01*
X16433618Y20044691D01*
X16548180Y20092144D01*
X16651283Y20161035D01*
X16738965Y20248717D01*
X16807856Y20351820D01*
X16855309Y20466382D01*
X16879500Y20588000D01*
X16879500Y20712000D01*
X16855309Y20833618D01*
X16807856Y20948180D01*
X16738965Y21051283D01*
X16651283Y21138965D01*
X16548180Y21207856D01*
X16433618Y21255309D01*
X16312000Y21279500D01*
X16188000Y21279500D01*
X16066382Y21255309D01*
X15951820Y21207856D01*
X15848717Y21138965D01*
X15764752Y21055000D01*
X11235248Y21055000D01*
X11151283Y21138965D01*
X11048180Y21207856D01*
X10933618Y21255309D01*
X10812000Y21279500D01*
X10688000Y21279500D01*
X10566382Y21255309D01*
X10451820Y21207856D01*
X10348717Y21138965D01*
X10261035Y21051283D01*
X10192144Y20948180D01*
X10144691Y20833618D01*
X10120500Y20712000D01*
X10120500Y20588000D01*
X10144691Y20466382D01*
X10192144Y20351820D01*
X10261035Y20248717D01*
X10348717Y20161035D01*
X10432580Y20105000D01*
X9535248Y20105000D01*
X9451283Y20188965D01*
X9348180Y20257856D01*
X9233618Y20305309D01*
X9112000Y20329500D01*
X8988000Y20329500D01*
X8866382Y20305309D01*
X8751820Y20257856D01*
X8648717Y20188965D01*
X8561035Y20101283D01*
X8492144Y19998180D01*
X8444691Y19883618D01*
X8420500Y19762000D01*
X404500Y19762000D01*
X404500Y27365000D01*
X7128906Y27365000D01*
X7128906Y24575000D01*
X7135268Y24510407D01*
X7154109Y24448296D01*
X7184705Y24391054D01*
X7225881Y24340881D01*
X7276054Y24299705D01*
X7333296Y24269109D01*
X7395407Y24250268D01*
X7460000Y24243906D01*
X12540000Y24243906D01*
X12604593Y24250268D01*
X12666704Y24269109D01*
X12723946Y24299705D01*
X12774119Y24340881D01*
X12815295Y24391054D01*
X12845891Y24448296D01*
X12864732Y24510407D01*
X12871094Y24575000D01*
X12871094Y24662000D01*
X13570500Y24662000D01*
X13570500Y24538000D01*
X13594691Y24416382D01*
X13642144Y24301820D01*
X13711035Y24198717D01*
X13798717Y24111035D01*
X13901820Y24042144D01*
X14016382Y23994691D01*
X14138000Y23970500D01*
X14262000Y23970500D01*
X14383618Y23994691D01*
X14498180Y24042144D01*
X14595000Y24106837D01*
X14595000Y24069881D01*
X14593042Y24050000D01*
X14595000Y24030119D01*
X14595000Y24030112D01*
X14600861Y23970607D01*
X14624019Y23894265D01*
X14661626Y23823907D01*
X14712237Y23762237D01*
X14727690Y23749555D01*
X16520500Y21956744D01*
X16520500Y21838000D01*
X16544691Y21716382D01*
X16592144Y21601820D01*
X16661035Y21498717D01*
X16748717Y21411035D01*
X16851820Y21342144D01*
X16966382Y21294691D01*
X17088000Y21270500D01*
X17212000Y21270500D01*
X17333618Y21294691D01*
X17448180Y21342144D01*
X17551283Y21411035D01*
X17638965Y21498717D01*
X17707856Y21601820D01*
X17755309Y21716382D01*
X17779500Y21838000D01*
X17779500Y21962000D01*
X17755309Y22083618D01*
X17707856Y22198180D01*
X17638965Y22301283D01*
X17551283Y22388965D01*
X17448180Y22457856D01*
X17333618Y22505309D01*
X17212000Y22529500D01*
X17093256Y22529500D01*
X15405000Y24217755D01*
X15405000Y26414752D01*
X15488965Y26498717D01*
X15557856Y26601820D01*
X15605309Y26716382D01*
X15629500Y26838000D01*
X15629500Y26962000D01*
X15605309Y27083618D01*
X15557856Y27198180D01*
X15488965Y27301283D01*
X15401283Y27388965D01*
X15298180Y27457856D01*
X15183618Y27505309D01*
X15062000Y27529500D01*
X14938000Y27529500D01*
X14816382Y27505309D01*
X14701820Y27457856D01*
X14598717Y27388965D01*
X14511035Y27301283D01*
X14442144Y27198180D01*
X14394691Y27083618D01*
X14370500Y26962000D01*
X14370500Y26838000D01*
X14394691Y26716382D01*
X14442144Y26601820D01*
X14511035Y26498717D01*
X14595001Y26414751D01*
X14595000Y25093163D01*
X14498180Y25157856D01*
X14383618Y25205309D01*
X14262000Y25229500D01*
X14138000Y25229500D01*
X14016382Y25205309D01*
X13901820Y25157856D01*
X13798717Y25088965D01*
X13711035Y25001283D01*
X13642144Y24898180D01*
X13594691Y24783618D01*
X13570500Y24662000D01*
X12871094Y24662000D01*
X12871094Y27365000D01*
X12864732Y27429593D01*
X12845891Y27491704D01*
X12815295Y27548946D01*
X12774119Y27599119D01*
X12723946Y27640295D01*
X12666704Y27670891D01*
X12604593Y27689732D01*
X12540000Y27696094D01*
X7460000Y27696094D01*
X7395407Y27689732D01*
X7333296Y27670891D01*
X7276054Y27640295D01*
X7225881Y27599119D01*
X7184705Y27548946D01*
X7154109Y27491704D01*
X7135268Y27429593D01*
X7128906Y27365000D01*
X404500Y27365000D01*
X404500Y29595500D01*
X19595500Y29595500D01*
X19595501Y404500D01*
X19595501Y404500D01*
G37*
X19595501Y404500D02*
X6904500Y404500D01*
X6904500Y3019870D01*
X6902520Y3039973D01*
X6902520Y3046451D01*
X6901929Y3052068D01*
X6891052Y3149043D01*
X6883438Y3184863D01*
X6876309Y3220869D01*
X6874639Y3226264D01*
X6845133Y3319279D01*
X6830696Y3352962D01*
X6816719Y3386874D01*
X6814032Y3391842D01*
X6767021Y3477354D01*
X6746324Y3507582D01*
X6726022Y3538138D01*
X6722421Y3542490D01*
X6722420Y3542492D01*
X6722416Y3542496D01*
X6659696Y3617243D01*
X6633529Y3642867D01*
X6607667Y3668911D01*
X6603290Y3672480D01*
X6527240Y3733625D01*
X6496590Y3753681D01*
X6466173Y3774198D01*
X6461186Y3776850D01*
X6374708Y3822060D01*
X6340723Y3835791D01*
X6306918Y3850001D01*
X6301511Y3851633D01*
X6207898Y3879185D01*
X6171962Y3886040D01*
X6135972Y3893428D01*
X6130351Y3893978D01*
X6033169Y3902822D01*
X5996547Y3902566D01*
X5959849Y3902823D01*
X5954228Y3902271D01*
X5954224Y3902271D01*
X5857180Y3892071D01*
X5821309Y3884708D01*
X5785253Y3877830D01*
X5779846Y3876197D01*
X5686628Y3847341D01*
X5652859Y3833146D01*
X5618839Y3819401D01*
X5613853Y3816749D01*
X5528014Y3770336D01*
X5497641Y3749849D01*
X5466942Y3729760D01*
X5462565Y3726190D01*
X5387376Y3663988D01*
X5361569Y3637999D01*
X5335350Y3612324D01*
X5331750Y3607972D01*
X5270075Y3532351D01*
X5249815Y3501856D01*
X5229073Y3471564D01*
X5226387Y3466596D01*
X5206086Y3428415D01*
X5173329Y3468330D01*
X5062248Y3559491D01*
X5060000Y3560693D01*
X5060000Y7670500D01*
X5062000Y7670500D01*
X5183618Y7694691D01*
X5298180Y7742144D01*
X5401283Y7811035D01*
X5488965Y7898717D01*
X5557856Y8001820D01*
X5605309Y8116382D01*
X5629500Y8238000D01*
X5629500Y8362000D01*
X5612990Y8445000D01*
X5787010Y8445000D01*
X5770500Y8362000D01*
X5770500Y8238000D01*
X5794691Y8116382D01*
X5842144Y8001820D01*
X5911035Y7898717D01*
X5998717Y7811035D01*
X6101820Y7742144D01*
X6216382Y7694691D01*
X6338000Y7670500D01*
X6456745Y7670500D01*
X8070500Y6056744D01*
X8070500Y5938000D01*
X8094691Y5816382D01*
X8132089Y5726094D01*
X7460000Y5726094D01*
X7395407Y5719732D01*
X7333296Y5700891D01*
X7276054Y5670295D01*
X7225881Y5629119D01*
X7184705Y5578946D01*
X7154109Y5521704D01*
X7135268Y5459593D01*
X7128906Y5395000D01*
X7128906Y2605000D01*
X7135268Y2540407D01*
X7154109Y2478296D01*
X7184705Y2421054D01*
X7225881Y2370881D01*
X7276054Y2329705D01*
X7333296Y2299109D01*
X7395407Y2280268D01*
X7460000Y2273906D01*
X12540000Y2273906D01*
X12604593Y2280268D01*
X12666704Y2299109D01*
X12723946Y2329705D01*
X12774119Y2370881D01*
X12815295Y2421054D01*
X12845891Y2478296D01*
X12864732Y2540407D01*
X12871094Y2605000D01*
X12871094Y4901559D01*
X14590036Y6620500D01*
X14654073Y6620500D01*
X14716382Y6594691D01*
X14838000Y6570500D01*
X14962000Y6570500D01*
X15083618Y6594691D01*
X15198180Y6642144D01*
X15225000Y6660064D01*
X15251820Y6642144D01*
X15366382Y6594691D01*
X15488000Y6570500D01*
X15612000Y6570500D01*
X15733618Y6594691D01*
X15848180Y6642144D01*
X15951283Y6711035D01*
X16038965Y6798717D01*
X16107856Y6901820D01*
X16155309Y7016382D01*
X16179500Y7138000D01*
X16179500Y7262000D01*
X16155309Y7383618D01*
X16107856Y7498180D01*
X16038965Y7601283D01*
X15951283Y7688965D01*
X15848180Y7757856D01*
X15733618Y7805309D01*
X15612000Y7829500D01*
X15488000Y7829500D01*
X15366382Y7805309D01*
X15251820Y7757856D01*
X15225000Y7739936D01*
X15198180Y7757856D01*
X15083618Y7805309D01*
X14962000Y7829500D01*
X14838000Y7829500D01*
X14716382Y7805309D01*
X14654073Y7779500D01*
X14378448Y7779500D01*
X14349999Y7782302D01*
X14321551Y7779500D01*
X14321541Y7779500D01*
X14236398Y7771114D01*
X14127162Y7737978D01*
X14026490Y7684167D01*
X14014918Y7674670D01*
X14038965Y7698717D01*
X14107856Y7801820D01*
X14155309Y7916382D01*
X14179500Y8038000D01*
X14179500Y8162000D01*
X14155309Y8283618D01*
X14147479Y8302521D01*
X14166382Y8294691D01*
X14288000Y8270500D01*
X14412000Y8270500D01*
X14533618Y8294691D01*
X14648180Y8342144D01*
X14751283Y8411035D01*
X14838965Y8498717D01*
X14907856Y8601820D01*
X14955309Y8716382D01*
X14979500Y8838000D01*
X14979500Y8962000D01*
X14955309Y9083618D01*
X14907856Y9198180D01*
X14838965Y9301283D01*
X14755000Y9385248D01*
X14755000Y11572000D01*
X17530500Y11572000D01*
X17530500Y11448000D01*
X17554691Y11326382D01*
X17602144Y11211820D01*
X17671035Y11108717D01*
X17758717Y11021035D01*
X17861820Y10952144D01*
X17976382Y10904691D01*
X18098000Y10880500D01*
X18222000Y10880500D01*
X18343618Y10904691D01*
X18458180Y10952144D01*
X18472517Y10961724D01*
X18501820Y10942144D01*
X18616382Y10894691D01*
X18738000Y10870500D01*
X18862000Y10870500D01*
X18983618Y10894691D01*
X19098180Y10942144D01*
X19201283Y11011035D01*
X19288965Y11098717D01*
X19357856Y11201820D01*
X19405309Y11316382D01*
X19429500Y11438000D01*
X19429500Y11562000D01*
X19405309Y11683618D01*
X19357856Y11798180D01*
X19288965Y11901283D01*
X19201283Y11988965D01*
X19098180Y12057856D01*
X18983618Y12105309D01*
X18862000Y12129500D01*
X18738000Y12129500D01*
X18616382Y12105309D01*
X18501820Y12057856D01*
X18487483Y12048276D01*
X18458180Y12067856D01*
X18343618Y12115309D01*
X18222000Y12139500D01*
X18098000Y12139500D01*
X17976382Y12115309D01*
X17861820Y12067856D01*
X17758717Y11998965D01*
X17671035Y11911283D01*
X17602144Y11808180D01*
X17554691Y11693618D01*
X17530500Y11572000D01*
X14755000Y11572000D01*
X14755000Y12630118D01*
X14756958Y12650000D01*
X14755000Y12669882D01*
X14755000Y12669889D01*
X14749139Y12729394D01*
X14725981Y12805736D01*
X14688374Y12876094D01*
X14669808Y12898717D01*
X14650442Y12922315D01*
X14650436Y12922321D01*
X14637763Y12937763D01*
X14622321Y12950436D01*
X14329500Y13243256D01*
X14329500Y13362000D01*
X14305309Y13483618D01*
X14257856Y13598180D01*
X14188965Y13701283D01*
X14101283Y13788965D01*
X13998180Y13857856D01*
X13883618Y13905309D01*
X13762000Y13929500D01*
X13638000Y13929500D01*
X13516382Y13905309D01*
X13401820Y13857856D01*
X13298717Y13788965D01*
X13211035Y13701283D01*
X13142144Y13598180D01*
X13141136Y13595745D01*
X13048180Y13657856D01*
X12933618Y13705309D01*
X12812000Y13729500D01*
X12688000Y13729500D01*
X12566382Y13705309D01*
X12455000Y13659173D01*
X12455000Y14314752D01*
X12538965Y14398717D01*
X12607856Y14501820D01*
X12655309Y14616382D01*
X12679500Y14738000D01*
X12679500Y14862000D01*
X12655309Y14983618D01*
X12607856Y15098180D01*
X12538965Y15201283D01*
X12451283Y15288965D01*
X12348180Y15357856D01*
X12233618Y15405309D01*
X12112000Y15429500D01*
X11988000Y15429500D01*
X11866382Y15405309D01*
X11751820Y15357856D01*
X11648717Y15288965D01*
X11561035Y15201283D01*
X11492144Y15098180D01*
X11444691Y14983618D01*
X11420500Y14862000D01*
X11420500Y14738000D01*
X11444691Y14616382D01*
X11492144Y14501820D01*
X11561035Y14398717D01*
X11645001Y14314751D01*
X11645000Y13795248D01*
X11601283Y13838965D01*
X11498180Y13907856D01*
X11383618Y13955309D01*
X11262000Y13979500D01*
X11138000Y13979500D01*
X11016382Y13955309D01*
X10901820Y13907856D01*
X10798717Y13838965D01*
X10711035Y13751283D01*
X10642144Y13648180D01*
X10594691Y13533618D01*
X10570500Y13412000D01*
X10570500Y13288000D01*
X10594691Y13166382D01*
X10642144Y13051820D01*
X10711035Y12948717D01*
X10798717Y12861035D01*
X10901820Y12792144D01*
X11016382Y12744691D01*
X11138000Y12720500D01*
X11247743Y12720500D01*
X8232245Y9705000D01*
X4519881Y9705000D01*
X4499999Y9706958D01*
X4480118Y9705000D01*
X4480111Y9705000D01*
X4420606Y9699139D01*
X4344264Y9675981D01*
X4273906Y9638374D01*
X4246195Y9615632D01*
X4188965Y9701283D01*
X4101283Y9788965D01*
X3998180Y9857856D01*
X3883618Y9905309D01*
X3762000Y9929500D01*
X3638000Y9929500D01*
X3516382Y9905309D01*
X3450970Y9878215D01*
X4672315Y11099559D01*
X4687763Y11112237D01*
X4738374Y11173906D01*
X4775981Y11244264D01*
X4799139Y11320606D01*
X4805000Y11380111D01*
X4805000Y11380120D01*
X4806958Y11399999D01*
X4805000Y11419878D01*
X4805000Y13464752D01*
X4888965Y13548717D01*
X4957856Y13651820D01*
X5005309Y13766382D01*
X5029500Y13888000D01*
X5029500Y14012000D01*
X5005309Y14133618D01*
X4957856Y14248180D01*
X4888965Y14351283D01*
X4801283Y14438965D01*
X4698180Y14507856D01*
X4583618Y14555309D01*
X4462000Y14579500D01*
X4338000Y14579500D01*
X4216382Y14555309D01*
X4101820Y14507856D01*
X3998717Y14438965D01*
X3911035Y14351283D01*
X3842144Y14248180D01*
X3794691Y14133618D01*
X3770500Y14012000D01*
X3770500Y13888000D01*
X3794691Y13766382D01*
X3842144Y13651820D01*
X3911035Y13548717D01*
X3995000Y13464752D01*
X3995001Y11567757D01*
X572690Y8145445D01*
X557237Y8132763D01*
X506626Y8071093D01*
X469019Y8000735D01*
X445861Y7924393D01*
X440000Y7864888D01*
X440000Y7864881D01*
X438042Y7845000D01*
X440000Y7825119D01*
X440001Y3560693D01*
X437751Y3559491D01*
X404500Y3532203D01*
X404500Y15462000D01*
X3820500Y15462000D01*
X3820500Y15338000D01*
X3844691Y15216382D01*
X3892144Y15101820D01*
X3961035Y14998717D01*
X4048717Y14911035D01*
X4151820Y14842144D01*
X4266382Y14794691D01*
X4388000Y14770500D01*
X4512000Y14770500D01*
X4633618Y14794691D01*
X4748180Y14842144D01*
X4851283Y14911035D01*
X4938965Y14998717D01*
X5007856Y15101820D01*
X5055309Y15216382D01*
X5079500Y15338000D01*
X5079500Y15462000D01*
X5055309Y15583618D01*
X5007856Y15698180D01*
X4938965Y15801283D01*
X4851283Y15888965D01*
X4748180Y15957856D01*
X4633618Y16005309D01*
X4512000Y16029500D01*
X4388000Y16029500D01*
X4266382Y16005309D01*
X4151820Y15957856D01*
X4048717Y15888965D01*
X3961035Y15801283D01*
X3892144Y15698180D01*
X3844691Y15583618D01*
X3820500Y15462000D01*
X404500Y15462000D01*
X404500Y17462000D01*
X10170500Y17462000D01*
X10170500Y17338000D01*
X10194691Y17216382D01*
X10242144Y17101820D01*
X10311035Y16998717D01*
X10398717Y16911035D01*
X10501820Y16842144D01*
X10616382Y16794691D01*
X10738000Y16770500D01*
X10862000Y16770500D01*
X10983618Y16794691D01*
X11098180Y16842144D01*
X11201283Y16911035D01*
X11288965Y16998717D01*
X11357856Y17101820D01*
X11405309Y17216382D01*
X11429500Y17338000D01*
X11429500Y17462000D01*
X11405309Y17583618D01*
X11357856Y17698180D01*
X11288965Y17801283D01*
X11201283Y17888965D01*
X11098180Y17957856D01*
X10983618Y18005309D01*
X10862000Y18029500D01*
X10738000Y18029500D01*
X10616382Y18005309D01*
X10501820Y17957856D01*
X10398717Y17888965D01*
X10311035Y17801283D01*
X10242144Y17698180D01*
X10194691Y17583618D01*
X10170500Y17462000D01*
X404500Y17462000D01*
X404500Y19762000D01*
X8420500Y19762000D01*
X8420500Y19638000D01*
X8444691Y19516382D01*
X8492144Y19401820D01*
X8561035Y19298717D01*
X8648717Y19211035D01*
X8751820Y19142144D01*
X8866382Y19094691D01*
X8988000Y19070500D01*
X9112000Y19070500D01*
X9233618Y19094691D01*
X9348180Y19142144D01*
X9451283Y19211035D01*
X9535248Y19295000D01*
X14514752Y19295000D01*
X14598717Y19211035D01*
X14701820Y19142144D01*
X14816382Y19094691D01*
X14938000Y19070500D01*
X15062000Y19070500D01*
X15183618Y19094691D01*
X15298180Y19142144D01*
X15401283Y19211035D01*
X15488965Y19298717D01*
X15557856Y19401820D01*
X15605309Y19516382D01*
X15629500Y19638000D01*
X15629500Y19762000D01*
X15605309Y19883618D01*
X15557856Y19998180D01*
X15488965Y20101283D01*
X15401283Y20188965D01*
X15317420Y20245000D01*
X15764752Y20245000D01*
X15848717Y20161035D01*
X15951820Y20092144D01*
X16066382Y20044691D01*
X16188000Y20020500D01*
X16312000Y20020500D01*
X16433618Y20044691D01*
X16548180Y20092144D01*
X16651283Y20161035D01*
X16738965Y20248717D01*
X16807856Y20351820D01*
X16855309Y20466382D01*
X16879500Y20588000D01*
X16879500Y20712000D01*
X16855309Y20833618D01*
X16807856Y20948180D01*
X16738965Y21051283D01*
X16651283Y21138965D01*
X16548180Y21207856D01*
X16433618Y21255309D01*
X16312000Y21279500D01*
X16188000Y21279500D01*
X16066382Y21255309D01*
X15951820Y21207856D01*
X15848717Y21138965D01*
X15764752Y21055000D01*
X11235248Y21055000D01*
X11151283Y21138965D01*
X11048180Y21207856D01*
X10933618Y21255309D01*
X10812000Y21279500D01*
X10688000Y21279500D01*
X10566382Y21255309D01*
X10451820Y21207856D01*
X10348717Y21138965D01*
X10261035Y21051283D01*
X10192144Y20948180D01*
X10144691Y20833618D01*
X10120500Y20712000D01*
X10120500Y20588000D01*
X10144691Y20466382D01*
X10192144Y20351820D01*
X10261035Y20248717D01*
X10348717Y20161035D01*
X10432580Y20105000D01*
X9535248Y20105000D01*
X9451283Y20188965D01*
X9348180Y20257856D01*
X9233618Y20305309D01*
X9112000Y20329500D01*
X8988000Y20329500D01*
X8866382Y20305309D01*
X8751820Y20257856D01*
X8648717Y20188965D01*
X8561035Y20101283D01*
X8492144Y19998180D01*
X8444691Y19883618D01*
X8420500Y19762000D01*
X404500Y19762000D01*
X404500Y27365000D01*
X7128906Y27365000D01*
X7128906Y24575000D01*
X7135268Y24510407D01*
X7154109Y24448296D01*
X7184705Y24391054D01*
X7225881Y24340881D01*
X7276054Y24299705D01*
X7333296Y24269109D01*
X7395407Y24250268D01*
X7460000Y24243906D01*
X12540000Y24243906D01*
X12604593Y24250268D01*
X12666704Y24269109D01*
X12723946Y24299705D01*
X12774119Y24340881D01*
X12815295Y24391054D01*
X12845891Y24448296D01*
X12864732Y24510407D01*
X12871094Y24575000D01*
X12871094Y24662000D01*
X13570500Y24662000D01*
X13570500Y24538000D01*
X13594691Y24416382D01*
X13642144Y24301820D01*
X13711035Y24198717D01*
X13798717Y24111035D01*
X13901820Y24042144D01*
X14016382Y23994691D01*
X14138000Y23970500D01*
X14262000Y23970500D01*
X14383618Y23994691D01*
X14498180Y24042144D01*
X14595000Y24106837D01*
X14595000Y24069881D01*
X14593042Y24050000D01*
X14595000Y24030119D01*
X14595000Y24030112D01*
X14600861Y23970607D01*
X14624019Y23894265D01*
X14661626Y23823907D01*
X14712237Y23762237D01*
X14727690Y23749555D01*
X16520500Y21956744D01*
X16520500Y21838000D01*
X16544691Y21716382D01*
X16592144Y21601820D01*
X16661035Y21498717D01*
X16748717Y21411035D01*
X16851820Y21342144D01*
X16966382Y21294691D01*
X17088000Y21270500D01*
X17212000Y21270500D01*
X17333618Y21294691D01*
X17448180Y21342144D01*
X17551283Y21411035D01*
X17638965Y21498717D01*
X17707856Y21601820D01*
X17755309Y21716382D01*
X17779500Y21838000D01*
X17779500Y21962000D01*
X17755309Y22083618D01*
X17707856Y22198180D01*
X17638965Y22301283D01*
X17551283Y22388965D01*
X17448180Y22457856D01*
X17333618Y22505309D01*
X17212000Y22529500D01*
X17093256Y22529500D01*
X15405000Y24217755D01*
X15405000Y26414752D01*
X15488965Y26498717D01*
X15557856Y26601820D01*
X15605309Y26716382D01*
X15629500Y26838000D01*
X15629500Y26962000D01*
X15605309Y27083618D01*
X15557856Y27198180D01*
X15488965Y27301283D01*
X15401283Y27388965D01*
X15298180Y27457856D01*
X15183618Y27505309D01*
X15062000Y27529500D01*
X14938000Y27529500D01*
X14816382Y27505309D01*
X14701820Y27457856D01*
X14598717Y27388965D01*
X14511035Y27301283D01*
X14442144Y27198180D01*
X14394691Y27083618D01*
X14370500Y26962000D01*
X14370500Y26838000D01*
X14394691Y26716382D01*
X14442144Y26601820D01*
X14511035Y26498717D01*
X14595001Y26414751D01*
X14595000Y25093163D01*
X14498180Y25157856D01*
X14383618Y25205309D01*
X14262000Y25229500D01*
X14138000Y25229500D01*
X14016382Y25205309D01*
X13901820Y25157856D01*
X13798717Y25088965D01*
X13711035Y25001283D01*
X13642144Y24898180D01*
X13594691Y24783618D01*
X13570500Y24662000D01*
X12871094Y24662000D01*
X12871094Y27365000D01*
X12864732Y27429593D01*
X12845891Y27491704D01*
X12815295Y27548946D01*
X12774119Y27599119D01*
X12723946Y27640295D01*
X12666704Y27670891D01*
X12604593Y27689732D01*
X12540000Y27696094D01*
X7460000Y27696094D01*
X7395407Y27689732D01*
X7333296Y27670891D01*
X7276054Y27640295D01*
X7225881Y27599119D01*
X7184705Y27548946D01*
X7154109Y27491704D01*
X7135268Y27429593D01*
X7128906Y27365000D01*
X404500Y27365000D01*
X404500Y29595500D01*
X19595500Y29595500D01*
X19595501Y404500D01*
G36*
X4250001Y3560693D02*
G01*
X4247751Y3559491D01*
X4136670Y3468329D01*
X4045509Y3357248D01*
X4019380Y3308365D01*
X3962945Y3398110D01*
X3864418Y3502251D01*
X3747467Y3585169D01*
X3616587Y3643678D01*
X3549700Y3660665D01*
X3436500Y3595072D01*
X3436500Y1901500D01*
X3456500Y1901500D01*
X3456500Y1798500D01*
X3436500Y1798500D01*
X3436500Y1778500D01*
X3333500Y1778500D01*
X3333500Y1798500D01*
X3313500Y1798500D01*
X3313500Y1901500D01*
X3333500Y1901500D01*
X3333500Y3595072D01*
X3220300Y3660665D01*
X3153413Y3643678D01*
X3022533Y3585169D01*
X2905582Y3502251D01*
X2807055Y3398110D01*
X2750620Y3308365D01*
X2724491Y3357249D01*
X2633329Y3468330D01*
X2522248Y3559491D01*
X2520000Y3560693D01*
X2520000Y6097245D01*
X4250000Y7827244D01*
X4250001Y3560693D01*
X4250001Y3560693D01*
G37*
X4250001Y3560693D02*
X4247751Y3559491D01*
X4136670Y3468329D01*
X4045509Y3357248D01*
X4019380Y3308365D01*
X3962945Y3398110D01*
X3864418Y3502251D01*
X3747467Y3585169D01*
X3616587Y3643678D01*
X3549700Y3660665D01*
X3436500Y3595072D01*
X3436500Y1901500D01*
X3456500Y1901500D01*
X3456500Y1798500D01*
X3436500Y1798500D01*
X3436500Y1778500D01*
X3333500Y1778500D01*
X3333500Y1798500D01*
X3313500Y1798500D01*
X3313500Y1901500D01*
X3333500Y1901500D01*
X3333500Y3595072D01*
X3220300Y3660665D01*
X3153413Y3643678D01*
X3022533Y3585169D01*
X2905582Y3502251D01*
X2807055Y3398110D01*
X2750620Y3308365D01*
X2724491Y3357249D01*
X2633329Y3468330D01*
X2522248Y3559491D01*
X2520000Y3560693D01*
X2520000Y6097245D01*
X4250000Y7827244D01*
X4250001Y3560693D01*
G36*
X13401820Y12742144D02*
G01*
X13516382Y12694691D01*
X13638000Y12670500D01*
X13756744Y12670500D01*
X13945000Y12482243D01*
X13945001Y9385249D01*
X13861035Y9301283D01*
X13792144Y9198180D01*
X13744691Y9083618D01*
X13720500Y8962000D01*
X13720500Y8838000D01*
X13744691Y8716382D01*
X13752521Y8697479D01*
X13733618Y8705309D01*
X13612000Y8729500D01*
X13488000Y8729500D01*
X13366382Y8705309D01*
X13251820Y8657856D01*
X13148717Y8588965D01*
X13061035Y8501283D01*
X12992144Y8398180D01*
X12944691Y8283618D01*
X12920500Y8162000D01*
X12920500Y8038000D01*
X12944691Y7916382D01*
X12992144Y7801820D01*
X13061035Y7698717D01*
X13148717Y7611035D01*
X13251820Y7542144D01*
X13366382Y7494691D01*
X13488000Y7470500D01*
X13612000Y7470500D01*
X13733618Y7494691D01*
X13848180Y7542144D01*
X13921127Y7590885D01*
X13920108Y7589644D01*
X12056559Y5726094D01*
X9267911Y5726094D01*
X9305309Y5816382D01*
X9329500Y5938000D01*
X9329500Y6062000D01*
X9305309Y6183618D01*
X9257856Y6298180D01*
X9188965Y6401283D01*
X9101283Y6488965D01*
X8998180Y6557856D01*
X8883618Y6605309D01*
X8762000Y6629500D01*
X8643256Y6629500D01*
X8385756Y6887000D01*
X9595500Y6887000D01*
X9595500Y6763000D01*
X9619691Y6641382D01*
X9667144Y6526820D01*
X9736035Y6423717D01*
X9823717Y6336035D01*
X9926820Y6267144D01*
X10041382Y6219691D01*
X10163000Y6195500D01*
X10287000Y6195500D01*
X10408618Y6219691D01*
X10523180Y6267144D01*
X10626283Y6336035D01*
X10713965Y6423717D01*
X10782856Y6526820D01*
X10830309Y6641382D01*
X10854500Y6763000D01*
X10854500Y6887000D01*
X10830309Y7008618D01*
X10782856Y7123180D01*
X10713965Y7226283D01*
X10626283Y7313965D01*
X10523180Y7382856D01*
X10408618Y7430309D01*
X10287000Y7454500D01*
X10163000Y7454500D01*
X10041382Y7430309D01*
X9926820Y7382856D01*
X9823717Y7313965D01*
X9736035Y7226283D01*
X9667144Y7123180D01*
X9619691Y7008618D01*
X9595500Y6887000D01*
X8385756Y6887000D01*
X7029500Y8243255D01*
X7029500Y8362000D01*
X7012990Y8445000D01*
X8480119Y8445000D01*
X8500000Y8443042D01*
X8519881Y8445000D01*
X8519889Y8445000D01*
X8579394Y8450861D01*
X8655736Y8474019D01*
X8726094Y8511626D01*
X8787763Y8562237D01*
X8800445Y8577690D01*
X10070500Y9847744D01*
X10070500Y9738000D01*
X10094691Y9616382D01*
X10142144Y9501820D01*
X10211035Y9398717D01*
X10298717Y9311035D01*
X10401820Y9242144D01*
X10516382Y9194691D01*
X10638000Y9170500D01*
X10762000Y9170500D01*
X10883618Y9194691D01*
X10998180Y9242144D01*
X11101283Y9311035D01*
X11188965Y9398717D01*
X11257856Y9501820D01*
X11305309Y9616382D01*
X11329500Y9738000D01*
X11329500Y9862000D01*
X11305309Y9983618D01*
X11257856Y10098180D01*
X11188965Y10201283D01*
X11101283Y10288965D01*
X10998180Y10357856D01*
X10883618Y10405309D01*
X10762000Y10429500D01*
X10652256Y10429500D01*
X12693257Y12470500D01*
X12812000Y12470500D01*
X12933618Y12494691D01*
X13048180Y12542144D01*
X13151283Y12611035D01*
X13238965Y12698717D01*
X13307856Y12801820D01*
X13308864Y12804255D01*
X13401820Y12742144D01*
X13401820Y12742144D01*
G37*
X13401820Y12742144D02*
X13516382Y12694691D01*
X13638000Y12670500D01*
X13756744Y12670500D01*
X13945000Y12482243D01*
X13945001Y9385249D01*
X13861035Y9301283D01*
X13792144Y9198180D01*
X13744691Y9083618D01*
X13720500Y8962000D01*
X13720500Y8838000D01*
X13744691Y8716382D01*
X13752521Y8697479D01*
X13733618Y8705309D01*
X13612000Y8729500D01*
X13488000Y8729500D01*
X13366382Y8705309D01*
X13251820Y8657856D01*
X13148717Y8588965D01*
X13061035Y8501283D01*
X12992144Y8398180D01*
X12944691Y8283618D01*
X12920500Y8162000D01*
X12920500Y8038000D01*
X12944691Y7916382D01*
X12992144Y7801820D01*
X13061035Y7698717D01*
X13148717Y7611035D01*
X13251820Y7542144D01*
X13366382Y7494691D01*
X13488000Y7470500D01*
X13612000Y7470500D01*
X13733618Y7494691D01*
X13848180Y7542144D01*
X13921127Y7590885D01*
X13920108Y7589644D01*
X12056559Y5726094D01*
X9267911Y5726094D01*
X9305309Y5816382D01*
X9329500Y5938000D01*
X9329500Y6062000D01*
X9305309Y6183618D01*
X9257856Y6298180D01*
X9188965Y6401283D01*
X9101283Y6488965D01*
X8998180Y6557856D01*
X8883618Y6605309D01*
X8762000Y6629500D01*
X8643256Y6629500D01*
X8385756Y6887000D01*
X9595500Y6887000D01*
X9595500Y6763000D01*
X9619691Y6641382D01*
X9667144Y6526820D01*
X9736035Y6423717D01*
X9823717Y6336035D01*
X9926820Y6267144D01*
X10041382Y6219691D01*
X10163000Y6195500D01*
X10287000Y6195500D01*
X10408618Y6219691D01*
X10523180Y6267144D01*
X10626283Y6336035D01*
X10713965Y6423717D01*
X10782856Y6526820D01*
X10830309Y6641382D01*
X10854500Y6763000D01*
X10854500Y6887000D01*
X10830309Y7008618D01*
X10782856Y7123180D01*
X10713965Y7226283D01*
X10626283Y7313965D01*
X10523180Y7382856D01*
X10408618Y7430309D01*
X10287000Y7454500D01*
X10163000Y7454500D01*
X10041382Y7430309D01*
X9926820Y7382856D01*
X9823717Y7313965D01*
X9736035Y7226283D01*
X9667144Y7123180D01*
X9619691Y7008618D01*
X9595500Y6887000D01*
X8385756Y6887000D01*
X7029500Y8243255D01*
X7029500Y8362000D01*
X7012990Y8445000D01*
X8480119Y8445000D01*
X8500000Y8443042D01*
X8519881Y8445000D01*
X8519889Y8445000D01*
X8579394Y8450861D01*
X8655736Y8474019D01*
X8726094Y8511626D01*
X8787763Y8562237D01*
X8800445Y8577690D01*
X10070500Y9847744D01*
X10070500Y9738000D01*
X10094691Y9616382D01*
X10142144Y9501820D01*
X10211035Y9398717D01*
X10298717Y9311035D01*
X10401820Y9242144D01*
X10516382Y9194691D01*
X10638000Y9170500D01*
X10762000Y9170500D01*
X10883618Y9194691D01*
X10998180Y9242144D01*
X11101283Y9311035D01*
X11188965Y9398717D01*
X11257856Y9501820D01*
X11305309Y9616382D01*
X11329500Y9738000D01*
X11329500Y9862000D01*
X11305309Y9983618D01*
X11257856Y10098180D01*
X11188965Y10201283D01*
X11101283Y10288965D01*
X10998180Y10357856D01*
X10883618Y10405309D01*
X10762000Y10429500D01*
X10652256Y10429500D01*
X12693257Y12470500D01*
X12812000Y12470500D01*
X12933618Y12494691D01*
X13048180Y12542144D01*
X13151283Y12611035D01*
X13238965Y12698717D01*
X13307856Y12801820D01*
X13308864Y12804255D01*
X13401820Y12742144D01*
M02*
