G04 #@! TF.GenerationSoftware,KiCad,Pcbnew,5.1.4-e60b266~84~ubuntu16.04.1*
G04 #@! TF.CreationDate,2019-11-09T12:49:13+01:00*
G04 #@! TF.ProjectId,MiniVarioL0,4d696e69-5661-4726-996f-4c302e6b6963,v1.0.0*
G04 #@! TF.SameCoordinates,PX84157a0PY7270e00*
G04 #@! TF.FileFunction,Legend,Top*
G04 #@! TF.FilePolarity,Positive*
%FSLAX46Y46*%
G04 Gerber Fmt 4.6, Leading zero omitted, Abs format (unit mm)*
G04 Created by KiCad (PCBNEW 5.1.4-e60b266~84~ubuntu16.04.1) date 2019-11-09 12:49:13*
%MOMM*%
%LPD*%
G04 APERTURE LIST*
%ADD10C,0.150000*%
%ADD11C,0.120000*%
G04 APERTURE END LIST*
D10*
X10125000Y14275000D02*
X9600000Y14275000D01*
X10125000Y9025000D02*
X9600000Y9025000D01*
X4875000Y9025000D02*
X5400000Y9025000D01*
X4875000Y14275000D02*
X5400000Y14275000D01*
X10125000Y9025000D02*
X10125000Y9550000D01*
X4875000Y9025000D02*
X4875000Y9550000D01*
X10125000Y14275000D02*
X10125000Y13750000D01*
X16400000Y23800000D02*
X15875000Y23800000D01*
X16400000Y20500000D02*
X15875000Y20500000D01*
X13100000Y20500000D02*
X13625000Y20500000D01*
X13100000Y23800000D02*
X13625000Y23800000D01*
X16400000Y20500000D02*
X16400000Y21025000D01*
X13100000Y20500000D02*
X13100000Y21025000D01*
X16400000Y23800000D02*
X16400000Y23275000D01*
X20000000Y26000000D02*
X20750000Y26000000D01*
X20000000Y28500000D02*
X20750000Y28500000D01*
X20750000Y26000000D02*
X20750000Y28500000D01*
X20000000Y26000000D02*
X20000000Y25150000D01*
X20000000Y29350000D02*
X20000000Y28500000D01*
X17200000Y29350000D02*
X17200000Y28250000D01*
X17200000Y26250000D02*
X17200000Y25150000D01*
X20000000Y16000000D02*
X20750000Y16000000D01*
X20000000Y18500000D02*
X20750000Y18500000D01*
X20750000Y16000000D02*
X20750000Y18500000D01*
X20000000Y16000000D02*
X20000000Y15150000D01*
X20000000Y19350000D02*
X20000000Y18500000D01*
X17200000Y19350000D02*
X17200000Y18250000D01*
X17200000Y16250000D02*
X17200000Y15150000D01*
X20000000Y1500000D02*
X20750000Y1500000D01*
X20000000Y4000000D02*
X20750000Y4000000D01*
X20750000Y1500000D02*
X20750000Y4000000D01*
X20000000Y1500000D02*
X20000000Y650000D01*
X20000000Y4850000D02*
X20000000Y4000000D01*
X17200000Y4850000D02*
X17200000Y3750000D01*
X17200000Y1750000D02*
X17200000Y650000D01*
X8750000Y0D02*
X8750000Y-750000D01*
X11250000Y0D02*
X11250000Y-750000D01*
X8750000Y-750000D02*
X11250000Y-750000D01*
X8750000Y0D02*
X7900000Y0D01*
X12100000Y0D02*
X11250000Y0D01*
X12100000Y2800000D02*
X11000000Y2800000D01*
X9000000Y2800000D02*
X7900000Y2800000D01*
D11*
X13820000Y1150000D02*
X13820000Y1650000D01*
X12880000Y1650000D02*
X12880000Y1150000D01*
X18850000Y6570000D02*
X18350000Y6570000D01*
X18350000Y5630000D02*
X18850000Y5630000D01*
X18350000Y13430000D02*
X18850000Y13430000D01*
X18850000Y14370000D02*
X18350000Y14370000D01*
X18350000Y23430000D02*
X18850000Y23430000D01*
X18850000Y24370000D02*
X18350000Y24370000D01*
X19550000Y10550000D02*
X19550000Y9850000D01*
X18350000Y9850000D02*
X18350000Y10550000D01*
X15000000Y19070000D02*
X14500000Y19070000D01*
X14500000Y18130000D02*
X15000000Y18130000D01*
X15470000Y25350000D02*
X15470000Y25850000D01*
X14530000Y25850000D02*
X14530000Y25350000D01*
X4730000Y16200000D02*
X4730000Y15700000D01*
X5670000Y15700000D02*
X5670000Y16200000D01*
X12050000Y14470000D02*
X11550000Y14470000D01*
X11550000Y13530000D02*
X12050000Y13530000D01*
X10730000Y9250000D02*
X10730000Y8750000D01*
X11670000Y8750000D02*
X11670000Y9250000D01*
X15480000Y25850000D02*
X15480000Y25350000D01*
X16420000Y25350000D02*
X16420000Y25850000D01*
X2550000Y13100000D02*
X3250000Y13100000D01*
X3250000Y11900000D02*
X2550000Y11900000D01*
X3150000Y11870000D02*
X2650000Y11870000D01*
X2650000Y10930000D02*
X3150000Y10930000D01*
X10280000Y6000000D02*
X10280000Y5500000D01*
X11220000Y5500000D02*
X11220000Y6000000D01*
X15830000Y5050000D02*
X15830000Y7150000D01*
X16970000Y5050000D02*
X16970000Y7150000D01*
X15830000Y5050000D02*
X16970000Y5050000D01*
X14120000Y7650000D02*
X12980000Y7650000D01*
X12980000Y7650000D02*
X12980000Y5550000D01*
X14120000Y7650000D02*
X14120000Y5550000D01*
X8700000Y17000000D02*
X10800000Y17000000D01*
X8700000Y16000000D02*
X10800000Y16000000D01*
X8700000Y17000000D02*
X8700000Y16000000D01*
X3450000Y9570000D02*
X2450000Y9570000D01*
X2450000Y10930000D02*
X3450000Y10930000D01*
D10*
X8200000Y29700000D02*
X12200000Y29700000D01*
X12200000Y29700000D02*
X12200000Y17300000D01*
X12200000Y17300000D02*
X8200000Y17300000D01*
X3800000Y17300000D02*
X-200000Y17300000D01*
X-200000Y17300000D02*
X-200000Y29700000D01*
X-200000Y29700000D02*
X3800000Y29700000D01*
D11*
X15090000Y11080000D02*
X15090000Y8650000D01*
X18160000Y9320000D02*
X18160000Y11080000D01*
X14150000Y11280000D02*
X13650000Y11280000D01*
X13650000Y10220000D02*
X14150000Y10220000D01*
X13650000Y9120000D02*
X14150000Y9120000D01*
X14150000Y10180000D02*
X13650000Y10180000D01*
X6730000Y15700000D02*
X6730000Y16200000D01*
X5670000Y16200000D02*
X5670000Y15700000D01*
X10050000Y7300000D02*
X10050000Y6350000D01*
X4850000Y7400000D02*
X5350000Y7400000D01*
X4850000Y6900000D02*
X4850000Y7400000D01*
X4850000Y4100000D02*
X4850000Y4600000D01*
X5350000Y4100000D02*
X4850000Y4100000D01*
X10050000Y4100000D02*
X9550000Y4100000D01*
X10050000Y4600000D02*
X10050000Y4100000D01*
M02*
