M48
; DRILL file {KiCad 5.1.4-e60b266~84~ubuntu16.04.1} date sam. 09 nov. 2019 12:47:04 CET
; FORMAT={-:-/ absolute / metric / decimal}
; #@! TF.CreationDate,2019-11-09T12:47:04+01:00
; #@! TF.GenerationSoftware,Kicad,Pcbnew,5.1.4-e60b266~84~ubuntu16.04.1
; #@! TF.FileFunction,Plated,1,4,PTH
FMAT,2
METRIC
T1C0.250
%
G90
G05
T1
X139.8Y-107.5
X139.8Y-108.6
X140.0Y-115.35
X140.615Y-112.915
X141.9Y-115.9
X142.2Y-110.7
X142.9Y-106.05
X142.95Y-104.6
X143.5Y-111.7
X144.9Y-111.7
X145.0Y-108.35
X145.3Y-114.15
X146.0Y-107.35
X146.0Y-109.35
X146.85Y-108.35
X147.2Y-114.0
X147.55Y-100.3
X147.75Y-111.9
X148.725Y-113.175
X149.2Y-110.2
X149.25Y-99.35
X149.3Y-102.6
X149.7Y-106.65
X149.7Y-112.45
X150.55Y-105.2
X151.25Y-106.9
X151.75Y-106.0
X151.95Y-111.15
X152.05Y-111.9
X152.2Y-106.7
X152.7Y-95.4
X152.75Y-97.85
X152.85Y-111.1
X153.25Y-97.35
X153.25Y-98.35
X153.4Y-112.8
X153.5Y-93.1
X153.5Y-100.3
X153.65Y-119.3
X153.75Y-97.85
X154.05Y-112.8
X154.75Y-99.35
X155.65Y-98.1
X156.66Y-108.49
X157.3Y-108.5
X157.65Y-96.9
X157.65Y-106.8
X157.65Y-113.2
T0
M30
