G04 #@! TF.GenerationSoftware,KiCad,Pcbnew,5.1.4-e60b266~84~ubuntu16.04.1*
G04 #@! TF.CreationDate,2019-11-09T12:49:13+01:00*
G04 #@! TF.ProjectId,MiniVarioL0,4d696e69-5661-4726-996f-4c302e6b6963,v1.0.0*
G04 #@! TF.SameCoordinates,PX84157a0PY7270e00*
G04 #@! TF.FileFunction,Soldermask,Bot*
G04 #@! TF.FilePolarity,Negative*
%FSLAX46Y46*%
G04 Gerber Fmt 4.6, Leading zero omitted, Abs format (unit mm)*
G04 Created by KiCad (PCBNEW 5.1.4-e60b266~84~ubuntu16.04.1) date 2019-11-09 12:49:13*
%MOMM*%
%LPD*%
G04 APERTURE LIST*
%ADD10C,0.127000*%
%ADD11R,5.080000X2.790000*%
%ADD12C,3.000000*%
%ADD13C,1.000000*%
%ADD14O,0.800000X3.000000*%
G04 APERTURE END LIST*
D10*
X3550000Y11599217D02*
X3550000Y12132550D01*
X3283333Y13399217D02*
X3616666Y13165884D01*
X3283333Y12999217D02*
X3983333Y12999217D01*
X3983333Y13265884D01*
X3950000Y13332550D01*
X3916666Y13365884D01*
X3850000Y13399217D01*
X3750000Y13399217D01*
X3683333Y13365884D01*
X3650000Y13332550D01*
X3616666Y13265884D01*
X3616666Y12999217D01*
X3283333Y13632550D02*
X3750000Y13999217D01*
X3750000Y13632550D02*
X3283333Y13999217D01*
X1700000Y11599217D02*
X1700000Y12132550D01*
X1466666Y12965884D02*
X1433333Y13065884D01*
X1433333Y13232550D01*
X1466666Y13299217D01*
X1500000Y13332550D01*
X1566666Y13365884D01*
X1633333Y13365884D01*
X1700000Y13332550D01*
X1733333Y13299217D01*
X1766666Y13232550D01*
X1800000Y13099217D01*
X1833333Y13032550D01*
X1866666Y12999217D01*
X1933333Y12965884D01*
X2000000Y12965884D01*
X2066666Y12999217D01*
X2100000Y13032550D01*
X2133333Y13099217D01*
X2133333Y13265884D01*
X2100000Y13365884D01*
X2133333Y13599217D02*
X1433333Y13765884D01*
X1933333Y13899217D01*
X1433333Y14032550D01*
X2133333Y14199217D01*
X1433333Y14465884D02*
X2133333Y14465884D01*
X2133333Y14632550D01*
X2100000Y14732550D01*
X2033333Y14799217D01*
X1966666Y14832550D01*
X1833333Y14865884D01*
X1733333Y14865884D01*
X1600000Y14832550D01*
X1533333Y14799217D01*
X1466666Y14732550D01*
X1433333Y14632550D01*
X1433333Y14465884D01*
X1433333Y15165884D02*
X2133333Y15165884D01*
X2133333Y15632550D02*
X2133333Y15765884D01*
X2100000Y15832550D01*
X2033333Y15899217D01*
X1900000Y15932550D01*
X1666666Y15932550D01*
X1533333Y15899217D01*
X1466666Y15832550D01*
X1433333Y15765884D01*
X1433333Y15632550D01*
X1466666Y15565884D01*
X1533333Y15499217D01*
X1666666Y15465884D01*
X1900000Y15465884D01*
X2033333Y15499217D01*
X2100000Y15565884D01*
X2133333Y15632550D01*
X750000Y11599217D02*
X750000Y12132550D01*
X483333Y13399217D02*
X816666Y13165884D01*
X483333Y12999217D02*
X1183333Y12999217D01*
X1183333Y13265884D01*
X1150000Y13332550D01*
X1116666Y13365884D01*
X1050000Y13399217D01*
X950000Y13399217D01*
X883333Y13365884D01*
X850000Y13332550D01*
X816666Y13265884D01*
X816666Y12999217D01*
X516666Y13665884D02*
X483333Y13765884D01*
X483333Y13932550D01*
X516666Y13999217D01*
X550000Y14032550D01*
X616666Y14065884D01*
X683333Y14065884D01*
X750000Y14032550D01*
X783333Y13999217D01*
X816666Y13932550D01*
X850000Y13799217D01*
X883333Y13732550D01*
X916666Y13699217D01*
X983333Y13665884D01*
X1050000Y13665884D01*
X1116666Y13699217D01*
X1150000Y13732550D01*
X1183333Y13799217D01*
X1183333Y13965884D01*
X1150000Y14065884D01*
X1183333Y14265884D02*
X1183333Y14665884D01*
X483333Y14465884D02*
X1183333Y14465884D01*
X2650000Y11599217D02*
X2650000Y12132550D01*
X3050000Y13365884D02*
X3083333Y13299217D01*
X3083333Y13199217D01*
X3050000Y13099217D01*
X2983333Y13032550D01*
X2916666Y12999217D01*
X2783333Y12965884D01*
X2683333Y12965884D01*
X2550000Y12999217D01*
X2483333Y13032550D01*
X2416666Y13099217D01*
X2383333Y13199217D01*
X2383333Y13265884D01*
X2416666Y13365884D01*
X2450000Y13399217D01*
X2683333Y13399217D01*
X2683333Y13265884D01*
X2383333Y13699217D02*
X3083333Y13699217D01*
X2383333Y14099217D01*
X3083333Y14099217D01*
X2383333Y14432550D02*
X3083333Y14432550D01*
X3083333Y14599217D01*
X3050000Y14699217D01*
X2983333Y14765884D01*
X2916666Y14799217D01*
X2783333Y14832550D01*
X2683333Y14832550D01*
X2550000Y14799217D01*
X2483333Y14765884D01*
X2416666Y14699217D01*
X2383333Y14599217D01*
X2383333Y14432550D01*
X19050783Y28421834D02*
X19050783Y29121834D01*
X18817450Y28621834D01*
X18584116Y29121834D01*
X18584116Y28421834D01*
X18250783Y28421834D02*
X18250783Y28888500D01*
X18250783Y29121834D02*
X18284116Y29088500D01*
X18250783Y29055167D01*
X18217450Y29088500D01*
X18250783Y29121834D01*
X18250783Y29055167D01*
X17917450Y28888500D02*
X17917450Y28421834D01*
X17917450Y28821834D02*
X17884116Y28855167D01*
X17817450Y28888500D01*
X17717450Y28888500D01*
X17650783Y28855167D01*
X17617450Y28788500D01*
X17617450Y28421834D01*
X17284116Y28421834D02*
X17284116Y28888500D01*
X17284116Y29121834D02*
X17317450Y29088500D01*
X17284116Y29055167D01*
X17250783Y29088500D01*
X17284116Y29121834D01*
X17284116Y29055167D01*
X17050783Y29121834D02*
X16817450Y28421834D01*
X16584116Y29121834D01*
X16050783Y28421834D02*
X16050783Y28788500D01*
X16084116Y28855167D01*
X16150783Y28888500D01*
X16284116Y28888500D01*
X16350783Y28855167D01*
X16050783Y28455167D02*
X16117450Y28421834D01*
X16284116Y28421834D01*
X16350783Y28455167D01*
X16384116Y28521834D01*
X16384116Y28588500D01*
X16350783Y28655167D01*
X16284116Y28688500D01*
X16117450Y28688500D01*
X16050783Y28721834D01*
X15717450Y28421834D02*
X15717450Y28888500D01*
X15717450Y28755167D02*
X15684116Y28821834D01*
X15650783Y28855167D01*
X15584116Y28888500D01*
X15517450Y28888500D01*
X15284116Y28421834D02*
X15284116Y28888500D01*
X15284116Y29121834D02*
X15317450Y29088500D01*
X15284116Y29055167D01*
X15250783Y29088500D01*
X15284116Y29121834D01*
X15284116Y29055167D01*
X14850783Y28421834D02*
X14917450Y28455167D01*
X14950783Y28488500D01*
X14984116Y28555167D01*
X14984116Y28755167D01*
X14950783Y28821834D01*
X14917450Y28855167D01*
X14850783Y28888500D01*
X14750783Y28888500D01*
X14684116Y28855167D01*
X14650783Y28821834D01*
X14617450Y28755167D01*
X14617450Y28555167D01*
X14650783Y28488500D01*
X14684116Y28455167D01*
X14750783Y28421834D01*
X14850783Y28421834D01*
X13984116Y28421834D02*
X14317450Y28421834D01*
X14317450Y29121834D01*
X13617450Y29121834D02*
X13550783Y29121834D01*
X13484116Y29088500D01*
X13450783Y29055167D01*
X13417450Y28988500D01*
X13384116Y28855167D01*
X13384116Y28688500D01*
X13417450Y28555167D01*
X13450783Y28488500D01*
X13484116Y28455167D01*
X13550783Y28421834D01*
X13617450Y28421834D01*
X13684116Y28455167D01*
X13717450Y28488500D01*
X13750783Y28555167D01*
X13784116Y28688500D01*
X13784116Y28855167D01*
X13750783Y28988500D01*
X13717450Y29055167D01*
X13684116Y29088500D01*
X13617450Y29121834D01*
X12417450Y29121834D02*
X12350783Y29121834D01*
X12284116Y29088500D01*
X12250783Y29055167D01*
X12217450Y28988500D01*
X12184116Y28855167D01*
X12184116Y28688500D01*
X12217450Y28555167D01*
X12250783Y28488500D01*
X12284116Y28455167D01*
X12350783Y28421834D01*
X12417450Y28421834D01*
X12484116Y28455167D01*
X12517450Y28488500D01*
X12550783Y28555167D01*
X12584116Y28688500D01*
X12584116Y28855167D01*
X12550783Y28988500D01*
X12517450Y29055167D01*
X12484116Y29088500D01*
X12417450Y29121834D01*
X11784116Y28821834D02*
X11850783Y28855167D01*
X11884116Y28888500D01*
X11917450Y28955167D01*
X11917450Y28988500D01*
X11884116Y29055167D01*
X11850783Y29088500D01*
X11784116Y29121834D01*
X11650783Y29121834D01*
X11584116Y29088500D01*
X11550783Y29055167D01*
X11517450Y28988500D01*
X11517450Y28955167D01*
X11550783Y28888500D01*
X11584116Y28855167D01*
X11650783Y28821834D01*
X11784116Y28821834D01*
X11850783Y28788500D01*
X11884116Y28755167D01*
X11917450Y28688500D01*
X11917450Y28555167D01*
X11884116Y28488500D01*
X11850783Y28455167D01*
X11784116Y28421834D01*
X11650783Y28421834D01*
X11584116Y28455167D01*
X11550783Y28488500D01*
X11517450Y28555167D01*
X11517450Y28688500D01*
X11550783Y28755167D01*
X11584116Y28788500D01*
X11650783Y28821834D01*
X10717450Y29155167D02*
X11317450Y28255167D01*
X10117450Y28421834D02*
X10517450Y28421834D01*
X10317450Y28421834D02*
X10317450Y29121834D01*
X10384116Y29021834D01*
X10450783Y28955167D01*
X10517450Y28921834D01*
X9784116Y28421834D02*
X9650783Y28421834D01*
X9584116Y28455167D01*
X9550783Y28488500D01*
X9484116Y28588500D01*
X9450783Y28721834D01*
X9450783Y28988500D01*
X9484116Y29055167D01*
X9517450Y29088500D01*
X9584116Y29121834D01*
X9717450Y29121834D01*
X9784116Y29088500D01*
X9817450Y29055167D01*
X9850783Y28988500D01*
X9850783Y28821834D01*
X9817450Y28755167D01*
X9784116Y28721834D01*
X9717450Y28688500D01*
X9584116Y28688500D01*
X9517450Y28721834D01*
X9484116Y28755167D01*
X9450783Y28821834D01*
X19117450Y27711500D02*
X18950783Y27244834D01*
X18784116Y27711500D01*
X18150783Y27244834D02*
X18550783Y27244834D01*
X18350783Y27244834D02*
X18350783Y27944834D01*
X18417450Y27844834D01*
X18484116Y27778167D01*
X18550783Y27744834D01*
X17850783Y27311500D02*
X17817450Y27278167D01*
X17850783Y27244834D01*
X17884116Y27278167D01*
X17850783Y27311500D01*
X17850783Y27244834D01*
X17384116Y27944834D02*
X17317450Y27944834D01*
X17250783Y27911500D01*
X17217450Y27878167D01*
X17184116Y27811500D01*
X17150783Y27678167D01*
X17150783Y27511500D01*
X17184116Y27378167D01*
X17217450Y27311500D01*
X17250783Y27278167D01*
X17317450Y27244834D01*
X17384116Y27244834D01*
X17450783Y27278167D01*
X17484116Y27311500D01*
X17517450Y27378167D01*
X17550783Y27511500D01*
X17550783Y27678167D01*
X17517450Y27811500D01*
X17484116Y27878167D01*
X17450783Y27911500D01*
X17384116Y27944834D01*
X16850783Y27311500D02*
X16817450Y27278167D01*
X16850783Y27244834D01*
X16884116Y27278167D01*
X16850783Y27311500D01*
X16850783Y27244834D01*
X16384116Y27944834D02*
X16317450Y27944834D01*
X16250783Y27911500D01*
X16217450Y27878167D01*
X16184116Y27811500D01*
X16150783Y27678167D01*
X16150783Y27511500D01*
X16184116Y27378167D01*
X16217450Y27311500D01*
X16250783Y27278167D01*
X16317450Y27244834D01*
X16384116Y27244834D01*
X16450783Y27278167D01*
X16484116Y27311500D01*
X16517450Y27378167D01*
X16550783Y27511500D01*
X16550783Y27678167D01*
X16517450Y27811500D01*
X16484116Y27878167D01*
X16450783Y27911500D01*
X16384116Y27944834D01*
D11*
X10000000Y4000000D03*
X10000000Y25970000D03*
D12*
X10000000Y14985000D03*
D13*
X10000000Y12000000D03*
X7000000Y15000000D03*
X13000000Y15000000D03*
X10000000Y17950000D03*
D14*
X845000Y1850000D03*
X2115000Y1850000D03*
X3385000Y1850000D03*
X4655000Y1850000D03*
M02*
