G04 #@! TF.GenerationSoftware,KiCad,Pcbnew,5.1.4-e60b266~84~ubuntu16.04.1*
G04 #@! TF.CreationDate,2019-11-09T12:49:13+01:00*
G04 #@! TF.ProjectId,MiniVarioL0,4d696e69-5661-4726-996f-4c302e6b6963,v1.0.0*
G04 #@! TF.SameCoordinates,PX84157a0PY7270e00*
G04 #@! TF.FileFunction,Copper,L2,Inr*
G04 #@! TF.FilePolarity,Positive*
%FSLAX46Y46*%
G04 Gerber Fmt 4.6, Leading zero omitted, Abs format (unit mm)*
G04 Created by KiCad (PCBNEW 5.1.4-e60b266~84~ubuntu16.04.1) date 2019-11-09 12:49:13*
%MOMM*%
%LPD*%
G04 APERTURE LIST*
%ADD10C,0.600000*%
%ADD11C,0.250000*%
G04 APERTURE END LIST*
D10*
X15550000Y7200000D03*
X14900000Y7200000D03*
X6800000Y5850000D03*
X9250000Y8100000D03*
X11200000Y7550000D03*
X1300000Y12500000D03*
X1300000Y11400000D03*
X13250000Y14000000D03*
X7500000Y12650000D03*
X8350000Y11650000D03*
X6500000Y11650000D03*
X7500000Y10650000D03*
X14750000Y22650000D03*
X14750000Y21650000D03*
X14250000Y22150000D03*
X15250000Y22150000D03*
X13450000Y8850000D03*
X15150000Y700000D03*
X19150000Y23100000D03*
X19150000Y13200000D03*
X19150000Y6800000D03*
X3400000Y4100000D03*
X14200000Y24600000D03*
X18160000Y11510000D03*
X18800000Y11500000D03*
X1500000Y4650000D03*
X11200000Y13350000D03*
X10700000Y9800000D03*
X10225000Y6825000D03*
X4450000Y15400000D03*
X3700000Y9300000D03*
X13550000Y8100000D03*
X10800000Y17400000D03*
X15000000Y26900000D03*
X17150000Y21900000D03*
X2115000Y7085000D03*
X12050000Y14800000D03*
X12750000Y13100000D03*
X5000000Y8300000D03*
X16250000Y20650000D03*
X10750000Y20650000D03*
X15000000Y19700000D03*
X9050000Y19700000D03*
X14350000Y8900000D03*
X13700000Y13300000D03*
X8700000Y6000000D03*
X6400000Y8300000D03*
X4400000Y13950000D03*
D11*
G36*
X19546001Y454000D02*
G01*
X6954000Y454000D01*
X6954000Y3022295D01*
X6951784Y3044794D01*
X6951784Y3051281D01*
X6951121Y3057586D01*
X6940244Y3154561D01*
X6931688Y3194816D01*
X6923697Y3235176D01*
X6921822Y3241231D01*
X6892316Y3334247D01*
X6876094Y3372095D01*
X6860425Y3410113D01*
X6857415Y3415679D01*
X6857411Y3415687D01*
X6857406Y3415694D01*
X6810398Y3501201D01*
X6787158Y3535142D01*
X6764382Y3569424D01*
X6760341Y3574308D01*
X6760340Y3574310D01*
X6760336Y3574314D01*
X6697616Y3649061D01*
X6668209Y3677858D01*
X6639219Y3707051D01*
X6634313Y3711052D01*
X6634310Y3711055D01*
X6634307Y3711057D01*
X6558257Y3772202D01*
X6523840Y3794724D01*
X6489716Y3817741D01*
X6484119Y3820717D01*
X6397641Y3865927D01*
X6359463Y3881352D01*
X6321555Y3897287D01*
X6315491Y3899118D01*
X6315485Y3899120D01*
X6221874Y3926671D01*
X6181460Y3934381D01*
X6141146Y3942656D01*
X6134841Y3943275D01*
X6134837Y3943275D01*
X6037655Y3952119D01*
X5996509Y3951832D01*
X5955363Y3952119D01*
X5949054Y3951500D01*
X5949052Y3951500D01*
X5852006Y3941300D01*
X5811704Y3933027D01*
X5771277Y3925316D01*
X5765215Y3923485D01*
X5765211Y3923484D01*
X5765208Y3923483D01*
X5765209Y3923483D01*
X5671991Y3894627D01*
X5634080Y3878691D01*
X5595906Y3863268D01*
X5590309Y3860291D01*
X5504471Y3813878D01*
X5470387Y3790888D01*
X5435925Y3768337D01*
X5431013Y3764330D01*
X5355824Y3702128D01*
X5326856Y3672957D01*
X5297430Y3644142D01*
X5293390Y3639257D01*
X5231715Y3563636D01*
X5208941Y3529358D01*
X5185696Y3495411D01*
X5182685Y3489840D01*
X5182682Y3489836D01*
X5182682Y3489835D01*
X5136870Y3403675D01*
X5121190Y3365632D01*
X5104980Y3327813D01*
X5103108Y3321763D01*
X5103105Y3321756D01*
X5103105Y3321754D01*
X5074901Y3228339D01*
X5066915Y3188007D01*
X5058352Y3147723D01*
X5057690Y3141418D01*
X5048168Y3044301D01*
X5046001Y3022295D01*
X5046000Y454000D01*
X454000Y454000D01*
X454000Y4716876D01*
X821000Y4716876D01*
X821000Y4583124D01*
X847094Y4451943D01*
X898278Y4328373D01*
X972587Y4217163D01*
X1067163Y4122587D01*
X1178373Y4048278D01*
X1301943Y3997094D01*
X1433124Y3971000D01*
X1566876Y3971000D01*
X1698057Y3997094D01*
X1821627Y4048278D01*
X1932837Y4122587D01*
X2027413Y4217163D01*
X2101722Y4328373D01*
X2152906Y4451943D01*
X2179000Y4583124D01*
X2179000Y4716876D01*
X2152906Y4848057D01*
X2101722Y4971627D01*
X2027413Y5082837D01*
X1932837Y5177413D01*
X1821627Y5251722D01*
X1698057Y5302906D01*
X1566876Y5329000D01*
X1433124Y5329000D01*
X1301943Y5302906D01*
X1178373Y5251722D01*
X1067163Y5177413D01*
X972587Y5082837D01*
X898278Y4971627D01*
X847094Y4848057D01*
X821000Y4716876D01*
X454000Y4716876D01*
X454000Y6066876D01*
X8021000Y6066876D01*
X8021000Y5933124D01*
X8047094Y5801943D01*
X8098278Y5678373D01*
X8172587Y5567163D01*
X8267163Y5472587D01*
X8378373Y5398278D01*
X8501943Y5347094D01*
X8633124Y5321000D01*
X8766876Y5321000D01*
X8898057Y5347094D01*
X9021627Y5398278D01*
X9132837Y5472587D01*
X9227413Y5567163D01*
X9301722Y5678373D01*
X9352906Y5801943D01*
X9379000Y5933124D01*
X9379000Y6066876D01*
X9352906Y6198057D01*
X9301722Y6321627D01*
X9227413Y6432837D01*
X9132837Y6527413D01*
X9021627Y6601722D01*
X8898057Y6652906D01*
X8766876Y6679000D01*
X8633124Y6679000D01*
X8501943Y6652906D01*
X8378373Y6601722D01*
X8267163Y6527413D01*
X8172587Y6432837D01*
X8098278Y6321627D01*
X8047094Y6198057D01*
X8021000Y6066876D01*
X454000Y6066876D01*
X454000Y7151876D01*
X1436000Y7151876D01*
X1436000Y7018124D01*
X1462094Y6886943D01*
X1513278Y6763373D01*
X1587587Y6652163D01*
X1682163Y6557587D01*
X1793373Y6483278D01*
X1916943Y6432094D01*
X2048124Y6406000D01*
X2181876Y6406000D01*
X2313057Y6432094D01*
X2436627Y6483278D01*
X2547837Y6557587D01*
X2642413Y6652163D01*
X2716722Y6763373D01*
X2767906Y6886943D01*
X2768887Y6891876D01*
X9546000Y6891876D01*
X9546000Y6758124D01*
X9572094Y6626943D01*
X9623278Y6503373D01*
X9697587Y6392163D01*
X9792163Y6297587D01*
X9903373Y6223278D01*
X10026943Y6172094D01*
X10158124Y6146000D01*
X10291876Y6146000D01*
X10423057Y6172094D01*
X10546627Y6223278D01*
X10657837Y6297587D01*
X10752413Y6392163D01*
X10826722Y6503373D01*
X10877906Y6626943D01*
X10904000Y6758124D01*
X10904000Y6891876D01*
X10877906Y7023057D01*
X10826722Y7146627D01*
X10752413Y7257837D01*
X10743374Y7266876D01*
X14221000Y7266876D01*
X14221000Y7133124D01*
X14247094Y7001943D01*
X14298278Y6878373D01*
X14372587Y6767163D01*
X14467163Y6672587D01*
X14578373Y6598278D01*
X14701943Y6547094D01*
X14833124Y6521000D01*
X14966876Y6521000D01*
X15098057Y6547094D01*
X15221627Y6598278D01*
X15225000Y6600532D01*
X15228373Y6598278D01*
X15351943Y6547094D01*
X15483124Y6521000D01*
X15616876Y6521000D01*
X15748057Y6547094D01*
X15871627Y6598278D01*
X15982837Y6672587D01*
X16077413Y6767163D01*
X16151722Y6878373D01*
X16202906Y7001943D01*
X16229000Y7133124D01*
X16229000Y7266876D01*
X16202906Y7398057D01*
X16151722Y7521627D01*
X16077413Y7632837D01*
X15982837Y7727413D01*
X15871627Y7801722D01*
X15748057Y7852906D01*
X15616876Y7879000D01*
X15483124Y7879000D01*
X15351943Y7852906D01*
X15228373Y7801722D01*
X15225000Y7799468D01*
X15221627Y7801722D01*
X15098057Y7852906D01*
X14966876Y7879000D01*
X14833124Y7879000D01*
X14701943Y7852906D01*
X14578373Y7801722D01*
X14467163Y7727413D01*
X14372587Y7632837D01*
X14298278Y7521627D01*
X14247094Y7398057D01*
X14221000Y7266876D01*
X10743374Y7266876D01*
X10657837Y7352413D01*
X10546627Y7426722D01*
X10423057Y7477906D01*
X10291876Y7504000D01*
X10158124Y7504000D01*
X10026943Y7477906D01*
X9903373Y7426722D01*
X9792163Y7352413D01*
X9697587Y7257837D01*
X9623278Y7146627D01*
X9572094Y7023057D01*
X9546000Y6891876D01*
X2768887Y6891876D01*
X2794000Y7018124D01*
X2794000Y7151876D01*
X2767906Y7283057D01*
X2716722Y7406627D01*
X2642413Y7517837D01*
X2547837Y7612413D01*
X2436627Y7686722D01*
X2313057Y7737906D01*
X2181876Y7764000D01*
X2048124Y7764000D01*
X1916943Y7737906D01*
X1793373Y7686722D01*
X1682163Y7612413D01*
X1587587Y7517837D01*
X1513278Y7406627D01*
X1462094Y7283057D01*
X1436000Y7151876D01*
X454000Y7151876D01*
X454000Y8366876D01*
X4321000Y8366876D01*
X4321000Y8233124D01*
X4347094Y8101943D01*
X4398278Y7978373D01*
X4472587Y7867163D01*
X4567163Y7772587D01*
X4678373Y7698278D01*
X4801943Y7647094D01*
X4933124Y7621000D01*
X5066876Y7621000D01*
X5198057Y7647094D01*
X5321627Y7698278D01*
X5432837Y7772587D01*
X5527413Y7867163D01*
X5601722Y7978373D01*
X5652906Y8101943D01*
X5679000Y8233124D01*
X5679000Y8366876D01*
X5721000Y8366876D01*
X5721000Y8233124D01*
X5747094Y8101943D01*
X5798278Y7978373D01*
X5872587Y7867163D01*
X5967163Y7772587D01*
X6078373Y7698278D01*
X6201943Y7647094D01*
X6333124Y7621000D01*
X6466876Y7621000D01*
X6598057Y7647094D01*
X6721627Y7698278D01*
X6832837Y7772587D01*
X6927413Y7867163D01*
X7001722Y7978373D01*
X7052906Y8101943D01*
X7065822Y8166876D01*
X12871000Y8166876D01*
X12871000Y8033124D01*
X12897094Y7901943D01*
X12948278Y7778373D01*
X13022587Y7667163D01*
X13117163Y7572587D01*
X13228373Y7498278D01*
X13351943Y7447094D01*
X13483124Y7421000D01*
X13616876Y7421000D01*
X13748057Y7447094D01*
X13871627Y7498278D01*
X13982837Y7572587D01*
X14077413Y7667163D01*
X14151722Y7778373D01*
X14202906Y7901943D01*
X14229000Y8033124D01*
X14229000Y8166876D01*
X14215561Y8234439D01*
X14283124Y8221000D01*
X14416876Y8221000D01*
X14548057Y8247094D01*
X14671627Y8298278D01*
X14782837Y8372587D01*
X14877413Y8467163D01*
X14951722Y8578373D01*
X15002906Y8701943D01*
X15029000Y8833124D01*
X15029000Y8966876D01*
X15002906Y9098057D01*
X14951722Y9221627D01*
X14877413Y9332837D01*
X14782837Y9427413D01*
X14671627Y9501722D01*
X14548057Y9552906D01*
X14416876Y9579000D01*
X14283124Y9579000D01*
X14151943Y9552906D01*
X14028373Y9501722D01*
X13917163Y9427413D01*
X13822587Y9332837D01*
X13748278Y9221627D01*
X13697094Y9098057D01*
X13671000Y8966876D01*
X13671000Y8833124D01*
X13684439Y8765561D01*
X13616876Y8779000D01*
X13483124Y8779000D01*
X13351943Y8752906D01*
X13228373Y8701722D01*
X13117163Y8627413D01*
X13022587Y8532837D01*
X12948278Y8421627D01*
X12897094Y8298057D01*
X12871000Y8166876D01*
X7065822Y8166876D01*
X7079000Y8233124D01*
X7079000Y8366876D01*
X7052906Y8498057D01*
X7001722Y8621627D01*
X6927413Y8732837D01*
X6832837Y8827413D01*
X6721627Y8901722D01*
X6598057Y8952906D01*
X6466876Y8979000D01*
X6333124Y8979000D01*
X6201943Y8952906D01*
X6078373Y8901722D01*
X5967163Y8827413D01*
X5872587Y8732837D01*
X5798278Y8621627D01*
X5747094Y8498057D01*
X5721000Y8366876D01*
X5679000Y8366876D01*
X5652906Y8498057D01*
X5601722Y8621627D01*
X5527413Y8732837D01*
X5432837Y8827413D01*
X5321627Y8901722D01*
X5198057Y8952906D01*
X5066876Y8979000D01*
X4933124Y8979000D01*
X4801943Y8952906D01*
X4678373Y8901722D01*
X4567163Y8827413D01*
X4472587Y8732837D01*
X4398278Y8621627D01*
X4347094Y8498057D01*
X4321000Y8366876D01*
X454000Y8366876D01*
X454000Y9366876D01*
X3021000Y9366876D01*
X3021000Y9233124D01*
X3047094Y9101943D01*
X3098278Y8978373D01*
X3172587Y8867163D01*
X3267163Y8772587D01*
X3378373Y8698278D01*
X3501943Y8647094D01*
X3633124Y8621000D01*
X3766876Y8621000D01*
X3898057Y8647094D01*
X4021627Y8698278D01*
X4132837Y8772587D01*
X4227413Y8867163D01*
X4301722Y8978373D01*
X4352906Y9101943D01*
X4379000Y9233124D01*
X4379000Y9366876D01*
X4352906Y9498057D01*
X4301722Y9621627D01*
X4227413Y9732837D01*
X4132837Y9827413D01*
X4073778Y9866876D01*
X10021000Y9866876D01*
X10021000Y9733124D01*
X10047094Y9601943D01*
X10098278Y9478373D01*
X10172587Y9367163D01*
X10267163Y9272587D01*
X10378373Y9198278D01*
X10501943Y9147094D01*
X10633124Y9121000D01*
X10766876Y9121000D01*
X10898057Y9147094D01*
X11021627Y9198278D01*
X11132837Y9272587D01*
X11227413Y9367163D01*
X11301722Y9478373D01*
X11352906Y9601943D01*
X11379000Y9733124D01*
X11379000Y9866876D01*
X11352906Y9998057D01*
X11301722Y10121627D01*
X11227413Y10232837D01*
X11132837Y10327413D01*
X11021627Y10401722D01*
X10898057Y10452906D01*
X10766876Y10479000D01*
X10633124Y10479000D01*
X10501943Y10452906D01*
X10378373Y10401722D01*
X10267163Y10327413D01*
X10172587Y10232837D01*
X10098278Y10121627D01*
X10047094Y9998057D01*
X10021000Y9866876D01*
X4073778Y9866876D01*
X4021627Y9901722D01*
X3898057Y9952906D01*
X3766876Y9979000D01*
X3633124Y9979000D01*
X3501943Y9952906D01*
X3378373Y9901722D01*
X3267163Y9827413D01*
X3172587Y9732837D01*
X3098278Y9621627D01*
X3047094Y9498057D01*
X3021000Y9366876D01*
X454000Y9366876D01*
X454000Y11576876D01*
X17481000Y11576876D01*
X17481000Y11443124D01*
X17507094Y11311943D01*
X17558278Y11188373D01*
X17632587Y11077163D01*
X17727163Y10982587D01*
X17838373Y10908278D01*
X17961943Y10857094D01*
X18093124Y10831000D01*
X18226876Y10831000D01*
X18358057Y10857094D01*
X18470379Y10903619D01*
X18478373Y10898278D01*
X18601943Y10847094D01*
X18733124Y10821000D01*
X18866876Y10821000D01*
X18998057Y10847094D01*
X19121627Y10898278D01*
X19232837Y10972587D01*
X19327413Y11067163D01*
X19401722Y11178373D01*
X19452906Y11301943D01*
X19479000Y11433124D01*
X19479000Y11566876D01*
X19452906Y11698057D01*
X19401722Y11821627D01*
X19327413Y11932837D01*
X19232837Y12027413D01*
X19121627Y12101722D01*
X18998057Y12152906D01*
X18866876Y12179000D01*
X18733124Y12179000D01*
X18601943Y12152906D01*
X18489621Y12106381D01*
X18481627Y12111722D01*
X18358057Y12162906D01*
X18226876Y12189000D01*
X18093124Y12189000D01*
X17961943Y12162906D01*
X17838373Y12111722D01*
X17727163Y12037413D01*
X17632587Y11942837D01*
X17558278Y11831627D01*
X17507094Y11708057D01*
X17481000Y11576876D01*
X454000Y11576876D01*
X454000Y14016876D01*
X3721000Y14016876D01*
X3721000Y13883124D01*
X3747094Y13751943D01*
X3798278Y13628373D01*
X3872587Y13517163D01*
X3967163Y13422587D01*
X4078373Y13348278D01*
X4201943Y13297094D01*
X4333124Y13271000D01*
X4466876Y13271000D01*
X4598057Y13297094D01*
X4721627Y13348278D01*
X4824289Y13416876D01*
X10521000Y13416876D01*
X10521000Y13283124D01*
X10547094Y13151943D01*
X10598278Y13028373D01*
X10672587Y12917163D01*
X10767163Y12822587D01*
X10878373Y12748278D01*
X11001943Y12697094D01*
X11133124Y12671000D01*
X11266876Y12671000D01*
X11398057Y12697094D01*
X11521627Y12748278D01*
X11632837Y12822587D01*
X11727413Y12917163D01*
X11801722Y13028373D01*
X11852906Y13151943D01*
X11855876Y13166876D01*
X12071000Y13166876D01*
X12071000Y13033124D01*
X12097094Y12901943D01*
X12148278Y12778373D01*
X12222587Y12667163D01*
X12317163Y12572587D01*
X12428373Y12498278D01*
X12551943Y12447094D01*
X12683124Y12421000D01*
X12816876Y12421000D01*
X12948057Y12447094D01*
X13071627Y12498278D01*
X13182837Y12572587D01*
X13277413Y12667163D01*
X13322949Y12735312D01*
X13378373Y12698278D01*
X13501943Y12647094D01*
X13633124Y12621000D01*
X13766876Y12621000D01*
X13898057Y12647094D01*
X14021627Y12698278D01*
X14132837Y12772587D01*
X14227413Y12867163D01*
X14301722Y12978373D01*
X14352906Y13101943D01*
X14379000Y13233124D01*
X14379000Y13366876D01*
X14352906Y13498057D01*
X14301722Y13621627D01*
X14227413Y13732837D01*
X14132837Y13827413D01*
X14021627Y13901722D01*
X13898057Y13952906D01*
X13766876Y13979000D01*
X13633124Y13979000D01*
X13501943Y13952906D01*
X13378373Y13901722D01*
X13267163Y13827413D01*
X13172587Y13732837D01*
X13127051Y13664688D01*
X13071627Y13701722D01*
X12948057Y13752906D01*
X12816876Y13779000D01*
X12683124Y13779000D01*
X12551943Y13752906D01*
X12428373Y13701722D01*
X12317163Y13627413D01*
X12222587Y13532837D01*
X12148278Y13421627D01*
X12097094Y13298057D01*
X12071000Y13166876D01*
X11855876Y13166876D01*
X11879000Y13283124D01*
X11879000Y13416876D01*
X11852906Y13548057D01*
X11801722Y13671627D01*
X11727413Y13782837D01*
X11632837Y13877413D01*
X11521627Y13951722D01*
X11398057Y14002906D01*
X11266876Y14029000D01*
X11133124Y14029000D01*
X11001943Y14002906D01*
X10878373Y13951722D01*
X10767163Y13877413D01*
X10672587Y13782837D01*
X10598278Y13671627D01*
X10547094Y13548057D01*
X10521000Y13416876D01*
X4824289Y13416876D01*
X4832837Y13422587D01*
X4927413Y13517163D01*
X5001722Y13628373D01*
X5052906Y13751943D01*
X5079000Y13883124D01*
X5079000Y14016876D01*
X5052906Y14148057D01*
X5001722Y14271627D01*
X4927413Y14382837D01*
X4832837Y14477413D01*
X4721627Y14551722D01*
X4598057Y14602906D01*
X4466876Y14629000D01*
X4333124Y14629000D01*
X4201943Y14602906D01*
X4078373Y14551722D01*
X3967163Y14477413D01*
X3872587Y14382837D01*
X3798278Y14271627D01*
X3747094Y14148057D01*
X3721000Y14016876D01*
X454000Y14016876D01*
X454000Y15466876D01*
X3771000Y15466876D01*
X3771000Y15333124D01*
X3797094Y15201943D01*
X3848278Y15078373D01*
X3922587Y14967163D01*
X4017163Y14872587D01*
X4128373Y14798278D01*
X4251943Y14747094D01*
X4383124Y14721000D01*
X4516876Y14721000D01*
X4648057Y14747094D01*
X4771627Y14798278D01*
X4874289Y14866876D01*
X11371000Y14866876D01*
X11371000Y14733124D01*
X11397094Y14601943D01*
X11448278Y14478373D01*
X11522587Y14367163D01*
X11617163Y14272587D01*
X11728373Y14198278D01*
X11851943Y14147094D01*
X11983124Y14121000D01*
X12116876Y14121000D01*
X12248057Y14147094D01*
X12371627Y14198278D01*
X12482837Y14272587D01*
X12577413Y14367163D01*
X12651722Y14478373D01*
X12702906Y14601943D01*
X12729000Y14733124D01*
X12729000Y14866876D01*
X12702906Y14998057D01*
X12651722Y15121627D01*
X12577413Y15232837D01*
X12482837Y15327413D01*
X12371627Y15401722D01*
X12248057Y15452906D01*
X12116876Y15479000D01*
X11983124Y15479000D01*
X11851943Y15452906D01*
X11728373Y15401722D01*
X11617163Y15327413D01*
X11522587Y15232837D01*
X11448278Y15121627D01*
X11397094Y14998057D01*
X11371000Y14866876D01*
X4874289Y14866876D01*
X4882837Y14872587D01*
X4977413Y14967163D01*
X5051722Y15078373D01*
X5102906Y15201943D01*
X5129000Y15333124D01*
X5129000Y15466876D01*
X5102906Y15598057D01*
X5051722Y15721627D01*
X4977413Y15832837D01*
X4882837Y15927413D01*
X4771627Y16001722D01*
X4648057Y16052906D01*
X4516876Y16079000D01*
X4383124Y16079000D01*
X4251943Y16052906D01*
X4128373Y16001722D01*
X4017163Y15927413D01*
X3922587Y15832837D01*
X3848278Y15721627D01*
X3797094Y15598057D01*
X3771000Y15466876D01*
X454000Y15466876D01*
X454000Y17466876D01*
X10121000Y17466876D01*
X10121000Y17333124D01*
X10147094Y17201943D01*
X10198278Y17078373D01*
X10272587Y16967163D01*
X10367163Y16872587D01*
X10478373Y16798278D01*
X10601943Y16747094D01*
X10733124Y16721000D01*
X10866876Y16721000D01*
X10998057Y16747094D01*
X11121627Y16798278D01*
X11232837Y16872587D01*
X11327413Y16967163D01*
X11401722Y17078373D01*
X11452906Y17201943D01*
X11479000Y17333124D01*
X11479000Y17466876D01*
X11452906Y17598057D01*
X11401722Y17721627D01*
X11327413Y17832837D01*
X11232837Y17927413D01*
X11121627Y18001722D01*
X10998057Y18052906D01*
X10866876Y18079000D01*
X10733124Y18079000D01*
X10601943Y18052906D01*
X10478373Y18001722D01*
X10367163Y17927413D01*
X10272587Y17832837D01*
X10198278Y17721627D01*
X10147094Y17598057D01*
X10121000Y17466876D01*
X454000Y17466876D01*
X454000Y19766876D01*
X8371000Y19766876D01*
X8371000Y19633124D01*
X8397094Y19501943D01*
X8448278Y19378373D01*
X8522587Y19267163D01*
X8617163Y19172587D01*
X8728373Y19098278D01*
X8851943Y19047094D01*
X8983124Y19021000D01*
X9116876Y19021000D01*
X9248057Y19047094D01*
X9371627Y19098278D01*
X9482837Y19172587D01*
X9577413Y19267163D01*
X9651722Y19378373D01*
X9702906Y19501943D01*
X9729000Y19633124D01*
X9729000Y19766876D01*
X14321000Y19766876D01*
X14321000Y19633124D01*
X14347094Y19501943D01*
X14398278Y19378373D01*
X14472587Y19267163D01*
X14567163Y19172587D01*
X14678373Y19098278D01*
X14801943Y19047094D01*
X14933124Y19021000D01*
X15066876Y19021000D01*
X15198057Y19047094D01*
X15321627Y19098278D01*
X15432837Y19172587D01*
X15527413Y19267163D01*
X15601722Y19378373D01*
X15652906Y19501943D01*
X15679000Y19633124D01*
X15679000Y19766876D01*
X15652906Y19898057D01*
X15601722Y20021627D01*
X15527413Y20132837D01*
X15432837Y20227413D01*
X15321627Y20301722D01*
X15198057Y20352906D01*
X15066876Y20379000D01*
X14933124Y20379000D01*
X14801943Y20352906D01*
X14678373Y20301722D01*
X14567163Y20227413D01*
X14472587Y20132837D01*
X14398278Y20021627D01*
X14347094Y19898057D01*
X14321000Y19766876D01*
X9729000Y19766876D01*
X9702906Y19898057D01*
X9651722Y20021627D01*
X9577413Y20132837D01*
X9482837Y20227413D01*
X9371627Y20301722D01*
X9248057Y20352906D01*
X9116876Y20379000D01*
X8983124Y20379000D01*
X8851943Y20352906D01*
X8728373Y20301722D01*
X8617163Y20227413D01*
X8522587Y20132837D01*
X8448278Y20021627D01*
X8397094Y19898057D01*
X8371000Y19766876D01*
X454000Y19766876D01*
X454000Y20716876D01*
X10071000Y20716876D01*
X10071000Y20583124D01*
X10097094Y20451943D01*
X10148278Y20328373D01*
X10222587Y20217163D01*
X10317163Y20122587D01*
X10428373Y20048278D01*
X10551943Y19997094D01*
X10683124Y19971000D01*
X10816876Y19971000D01*
X10948057Y19997094D01*
X11071627Y20048278D01*
X11182837Y20122587D01*
X11277413Y20217163D01*
X11351722Y20328373D01*
X11402906Y20451943D01*
X11429000Y20583124D01*
X11429000Y20716876D01*
X15571000Y20716876D01*
X15571000Y20583124D01*
X15597094Y20451943D01*
X15648278Y20328373D01*
X15722587Y20217163D01*
X15817163Y20122587D01*
X15928373Y20048278D01*
X16051943Y19997094D01*
X16183124Y19971000D01*
X16316876Y19971000D01*
X16448057Y19997094D01*
X16571627Y20048278D01*
X16682837Y20122587D01*
X16777413Y20217163D01*
X16851722Y20328373D01*
X16902906Y20451943D01*
X16929000Y20583124D01*
X16929000Y20716876D01*
X16902906Y20848057D01*
X16851722Y20971627D01*
X16777413Y21082837D01*
X16682837Y21177413D01*
X16571627Y21251722D01*
X16448057Y21302906D01*
X16316876Y21329000D01*
X16183124Y21329000D01*
X16051943Y21302906D01*
X15928373Y21251722D01*
X15817163Y21177413D01*
X15722587Y21082837D01*
X15648278Y20971627D01*
X15597094Y20848057D01*
X15571000Y20716876D01*
X11429000Y20716876D01*
X11402906Y20848057D01*
X11351722Y20971627D01*
X11277413Y21082837D01*
X11182837Y21177413D01*
X11071627Y21251722D01*
X10948057Y21302906D01*
X10816876Y21329000D01*
X10683124Y21329000D01*
X10551943Y21302906D01*
X10428373Y21251722D01*
X10317163Y21177413D01*
X10222587Y21082837D01*
X10148278Y20971627D01*
X10097094Y20848057D01*
X10071000Y20716876D01*
X454000Y20716876D01*
X454000Y21966876D01*
X16471000Y21966876D01*
X16471000Y21833124D01*
X16497094Y21701943D01*
X16548278Y21578373D01*
X16622587Y21467163D01*
X16717163Y21372587D01*
X16828373Y21298278D01*
X16951943Y21247094D01*
X17083124Y21221000D01*
X17216876Y21221000D01*
X17348057Y21247094D01*
X17471627Y21298278D01*
X17582837Y21372587D01*
X17677413Y21467163D01*
X17751722Y21578373D01*
X17802906Y21701943D01*
X17829000Y21833124D01*
X17829000Y21966876D01*
X17802906Y22098057D01*
X17751722Y22221627D01*
X17677413Y22332837D01*
X17582837Y22427413D01*
X17471627Y22501722D01*
X17348057Y22552906D01*
X17216876Y22579000D01*
X17083124Y22579000D01*
X16951943Y22552906D01*
X16828373Y22501722D01*
X16717163Y22427413D01*
X16622587Y22332837D01*
X16548278Y22221627D01*
X16497094Y22098057D01*
X16471000Y21966876D01*
X454000Y21966876D01*
X454000Y24666876D01*
X13521000Y24666876D01*
X13521000Y24533124D01*
X13547094Y24401943D01*
X13598278Y24278373D01*
X13672587Y24167163D01*
X13767163Y24072587D01*
X13878373Y23998278D01*
X14001943Y23947094D01*
X14133124Y23921000D01*
X14266876Y23921000D01*
X14398057Y23947094D01*
X14521627Y23998278D01*
X14632837Y24072587D01*
X14727413Y24167163D01*
X14801722Y24278373D01*
X14852906Y24401943D01*
X14879000Y24533124D01*
X14879000Y24666876D01*
X14852906Y24798057D01*
X14801722Y24921627D01*
X14727413Y25032837D01*
X14632837Y25127413D01*
X14521627Y25201722D01*
X14398057Y25252906D01*
X14266876Y25279000D01*
X14133124Y25279000D01*
X14001943Y25252906D01*
X13878373Y25201722D01*
X13767163Y25127413D01*
X13672587Y25032837D01*
X13598278Y24921627D01*
X13547094Y24798057D01*
X13521000Y24666876D01*
X454000Y24666876D01*
X454000Y26966876D01*
X14321000Y26966876D01*
X14321000Y26833124D01*
X14347094Y26701943D01*
X14398278Y26578373D01*
X14472587Y26467163D01*
X14567163Y26372587D01*
X14678373Y26298278D01*
X14801943Y26247094D01*
X14933124Y26221000D01*
X15066876Y26221000D01*
X15198057Y26247094D01*
X15321627Y26298278D01*
X15432837Y26372587D01*
X15527413Y26467163D01*
X15601722Y26578373D01*
X15652906Y26701943D01*
X15679000Y26833124D01*
X15679000Y26966876D01*
X15652906Y27098057D01*
X15601722Y27221627D01*
X15527413Y27332837D01*
X15432837Y27427413D01*
X15321627Y27501722D01*
X15198057Y27552906D01*
X15066876Y27579000D01*
X14933124Y27579000D01*
X14801943Y27552906D01*
X14678373Y27501722D01*
X14567163Y27427413D01*
X14472587Y27332837D01*
X14398278Y27221627D01*
X14347094Y27098057D01*
X14321000Y26966876D01*
X454000Y26966876D01*
X454000Y29546000D01*
X19546000Y29546000D01*
X19546001Y454000D01*
X19546001Y454000D01*
G37*
X19546001Y454000D02*
X6954000Y454000D01*
X6954000Y3022295D01*
X6951784Y3044794D01*
X6951784Y3051281D01*
X6951121Y3057586D01*
X6940244Y3154561D01*
X6931688Y3194816D01*
X6923697Y3235176D01*
X6921822Y3241231D01*
X6892316Y3334247D01*
X6876094Y3372095D01*
X6860425Y3410113D01*
X6857415Y3415679D01*
X6857411Y3415687D01*
X6857406Y3415694D01*
X6810398Y3501201D01*
X6787158Y3535142D01*
X6764382Y3569424D01*
X6760341Y3574308D01*
X6760340Y3574310D01*
X6760336Y3574314D01*
X6697616Y3649061D01*
X6668209Y3677858D01*
X6639219Y3707051D01*
X6634313Y3711052D01*
X6634310Y3711055D01*
X6634307Y3711057D01*
X6558257Y3772202D01*
X6523840Y3794724D01*
X6489716Y3817741D01*
X6484119Y3820717D01*
X6397641Y3865927D01*
X6359463Y3881352D01*
X6321555Y3897287D01*
X6315491Y3899118D01*
X6315485Y3899120D01*
X6221874Y3926671D01*
X6181460Y3934381D01*
X6141146Y3942656D01*
X6134841Y3943275D01*
X6134837Y3943275D01*
X6037655Y3952119D01*
X5996509Y3951832D01*
X5955363Y3952119D01*
X5949054Y3951500D01*
X5949052Y3951500D01*
X5852006Y3941300D01*
X5811704Y3933027D01*
X5771277Y3925316D01*
X5765215Y3923485D01*
X5765211Y3923484D01*
X5765208Y3923483D01*
X5765209Y3923483D01*
X5671991Y3894627D01*
X5634080Y3878691D01*
X5595906Y3863268D01*
X5590309Y3860291D01*
X5504471Y3813878D01*
X5470387Y3790888D01*
X5435925Y3768337D01*
X5431013Y3764330D01*
X5355824Y3702128D01*
X5326856Y3672957D01*
X5297430Y3644142D01*
X5293390Y3639257D01*
X5231715Y3563636D01*
X5208941Y3529358D01*
X5185696Y3495411D01*
X5182685Y3489840D01*
X5182682Y3489836D01*
X5182682Y3489835D01*
X5136870Y3403675D01*
X5121190Y3365632D01*
X5104980Y3327813D01*
X5103108Y3321763D01*
X5103105Y3321756D01*
X5103105Y3321754D01*
X5074901Y3228339D01*
X5066915Y3188007D01*
X5058352Y3147723D01*
X5057690Y3141418D01*
X5048168Y3044301D01*
X5046001Y3022295D01*
X5046000Y454000D01*
X454000Y454000D01*
X454000Y4716876D01*
X821000Y4716876D01*
X821000Y4583124D01*
X847094Y4451943D01*
X898278Y4328373D01*
X972587Y4217163D01*
X1067163Y4122587D01*
X1178373Y4048278D01*
X1301943Y3997094D01*
X1433124Y3971000D01*
X1566876Y3971000D01*
X1698057Y3997094D01*
X1821627Y4048278D01*
X1932837Y4122587D01*
X2027413Y4217163D01*
X2101722Y4328373D01*
X2152906Y4451943D01*
X2179000Y4583124D01*
X2179000Y4716876D01*
X2152906Y4848057D01*
X2101722Y4971627D01*
X2027413Y5082837D01*
X1932837Y5177413D01*
X1821627Y5251722D01*
X1698057Y5302906D01*
X1566876Y5329000D01*
X1433124Y5329000D01*
X1301943Y5302906D01*
X1178373Y5251722D01*
X1067163Y5177413D01*
X972587Y5082837D01*
X898278Y4971627D01*
X847094Y4848057D01*
X821000Y4716876D01*
X454000Y4716876D01*
X454000Y6066876D01*
X8021000Y6066876D01*
X8021000Y5933124D01*
X8047094Y5801943D01*
X8098278Y5678373D01*
X8172587Y5567163D01*
X8267163Y5472587D01*
X8378373Y5398278D01*
X8501943Y5347094D01*
X8633124Y5321000D01*
X8766876Y5321000D01*
X8898057Y5347094D01*
X9021627Y5398278D01*
X9132837Y5472587D01*
X9227413Y5567163D01*
X9301722Y5678373D01*
X9352906Y5801943D01*
X9379000Y5933124D01*
X9379000Y6066876D01*
X9352906Y6198057D01*
X9301722Y6321627D01*
X9227413Y6432837D01*
X9132837Y6527413D01*
X9021627Y6601722D01*
X8898057Y6652906D01*
X8766876Y6679000D01*
X8633124Y6679000D01*
X8501943Y6652906D01*
X8378373Y6601722D01*
X8267163Y6527413D01*
X8172587Y6432837D01*
X8098278Y6321627D01*
X8047094Y6198057D01*
X8021000Y6066876D01*
X454000Y6066876D01*
X454000Y7151876D01*
X1436000Y7151876D01*
X1436000Y7018124D01*
X1462094Y6886943D01*
X1513278Y6763373D01*
X1587587Y6652163D01*
X1682163Y6557587D01*
X1793373Y6483278D01*
X1916943Y6432094D01*
X2048124Y6406000D01*
X2181876Y6406000D01*
X2313057Y6432094D01*
X2436627Y6483278D01*
X2547837Y6557587D01*
X2642413Y6652163D01*
X2716722Y6763373D01*
X2767906Y6886943D01*
X2768887Y6891876D01*
X9546000Y6891876D01*
X9546000Y6758124D01*
X9572094Y6626943D01*
X9623278Y6503373D01*
X9697587Y6392163D01*
X9792163Y6297587D01*
X9903373Y6223278D01*
X10026943Y6172094D01*
X10158124Y6146000D01*
X10291876Y6146000D01*
X10423057Y6172094D01*
X10546627Y6223278D01*
X10657837Y6297587D01*
X10752413Y6392163D01*
X10826722Y6503373D01*
X10877906Y6626943D01*
X10904000Y6758124D01*
X10904000Y6891876D01*
X10877906Y7023057D01*
X10826722Y7146627D01*
X10752413Y7257837D01*
X10743374Y7266876D01*
X14221000Y7266876D01*
X14221000Y7133124D01*
X14247094Y7001943D01*
X14298278Y6878373D01*
X14372587Y6767163D01*
X14467163Y6672587D01*
X14578373Y6598278D01*
X14701943Y6547094D01*
X14833124Y6521000D01*
X14966876Y6521000D01*
X15098057Y6547094D01*
X15221627Y6598278D01*
X15225000Y6600532D01*
X15228373Y6598278D01*
X15351943Y6547094D01*
X15483124Y6521000D01*
X15616876Y6521000D01*
X15748057Y6547094D01*
X15871627Y6598278D01*
X15982837Y6672587D01*
X16077413Y6767163D01*
X16151722Y6878373D01*
X16202906Y7001943D01*
X16229000Y7133124D01*
X16229000Y7266876D01*
X16202906Y7398057D01*
X16151722Y7521627D01*
X16077413Y7632837D01*
X15982837Y7727413D01*
X15871627Y7801722D01*
X15748057Y7852906D01*
X15616876Y7879000D01*
X15483124Y7879000D01*
X15351943Y7852906D01*
X15228373Y7801722D01*
X15225000Y7799468D01*
X15221627Y7801722D01*
X15098057Y7852906D01*
X14966876Y7879000D01*
X14833124Y7879000D01*
X14701943Y7852906D01*
X14578373Y7801722D01*
X14467163Y7727413D01*
X14372587Y7632837D01*
X14298278Y7521627D01*
X14247094Y7398057D01*
X14221000Y7266876D01*
X10743374Y7266876D01*
X10657837Y7352413D01*
X10546627Y7426722D01*
X10423057Y7477906D01*
X10291876Y7504000D01*
X10158124Y7504000D01*
X10026943Y7477906D01*
X9903373Y7426722D01*
X9792163Y7352413D01*
X9697587Y7257837D01*
X9623278Y7146627D01*
X9572094Y7023057D01*
X9546000Y6891876D01*
X2768887Y6891876D01*
X2794000Y7018124D01*
X2794000Y7151876D01*
X2767906Y7283057D01*
X2716722Y7406627D01*
X2642413Y7517837D01*
X2547837Y7612413D01*
X2436627Y7686722D01*
X2313057Y7737906D01*
X2181876Y7764000D01*
X2048124Y7764000D01*
X1916943Y7737906D01*
X1793373Y7686722D01*
X1682163Y7612413D01*
X1587587Y7517837D01*
X1513278Y7406627D01*
X1462094Y7283057D01*
X1436000Y7151876D01*
X454000Y7151876D01*
X454000Y8366876D01*
X4321000Y8366876D01*
X4321000Y8233124D01*
X4347094Y8101943D01*
X4398278Y7978373D01*
X4472587Y7867163D01*
X4567163Y7772587D01*
X4678373Y7698278D01*
X4801943Y7647094D01*
X4933124Y7621000D01*
X5066876Y7621000D01*
X5198057Y7647094D01*
X5321627Y7698278D01*
X5432837Y7772587D01*
X5527413Y7867163D01*
X5601722Y7978373D01*
X5652906Y8101943D01*
X5679000Y8233124D01*
X5679000Y8366876D01*
X5721000Y8366876D01*
X5721000Y8233124D01*
X5747094Y8101943D01*
X5798278Y7978373D01*
X5872587Y7867163D01*
X5967163Y7772587D01*
X6078373Y7698278D01*
X6201943Y7647094D01*
X6333124Y7621000D01*
X6466876Y7621000D01*
X6598057Y7647094D01*
X6721627Y7698278D01*
X6832837Y7772587D01*
X6927413Y7867163D01*
X7001722Y7978373D01*
X7052906Y8101943D01*
X7065822Y8166876D01*
X12871000Y8166876D01*
X12871000Y8033124D01*
X12897094Y7901943D01*
X12948278Y7778373D01*
X13022587Y7667163D01*
X13117163Y7572587D01*
X13228373Y7498278D01*
X13351943Y7447094D01*
X13483124Y7421000D01*
X13616876Y7421000D01*
X13748057Y7447094D01*
X13871627Y7498278D01*
X13982837Y7572587D01*
X14077413Y7667163D01*
X14151722Y7778373D01*
X14202906Y7901943D01*
X14229000Y8033124D01*
X14229000Y8166876D01*
X14215561Y8234439D01*
X14283124Y8221000D01*
X14416876Y8221000D01*
X14548057Y8247094D01*
X14671627Y8298278D01*
X14782837Y8372587D01*
X14877413Y8467163D01*
X14951722Y8578373D01*
X15002906Y8701943D01*
X15029000Y8833124D01*
X15029000Y8966876D01*
X15002906Y9098057D01*
X14951722Y9221627D01*
X14877413Y9332837D01*
X14782837Y9427413D01*
X14671627Y9501722D01*
X14548057Y9552906D01*
X14416876Y9579000D01*
X14283124Y9579000D01*
X14151943Y9552906D01*
X14028373Y9501722D01*
X13917163Y9427413D01*
X13822587Y9332837D01*
X13748278Y9221627D01*
X13697094Y9098057D01*
X13671000Y8966876D01*
X13671000Y8833124D01*
X13684439Y8765561D01*
X13616876Y8779000D01*
X13483124Y8779000D01*
X13351943Y8752906D01*
X13228373Y8701722D01*
X13117163Y8627413D01*
X13022587Y8532837D01*
X12948278Y8421627D01*
X12897094Y8298057D01*
X12871000Y8166876D01*
X7065822Y8166876D01*
X7079000Y8233124D01*
X7079000Y8366876D01*
X7052906Y8498057D01*
X7001722Y8621627D01*
X6927413Y8732837D01*
X6832837Y8827413D01*
X6721627Y8901722D01*
X6598057Y8952906D01*
X6466876Y8979000D01*
X6333124Y8979000D01*
X6201943Y8952906D01*
X6078373Y8901722D01*
X5967163Y8827413D01*
X5872587Y8732837D01*
X5798278Y8621627D01*
X5747094Y8498057D01*
X5721000Y8366876D01*
X5679000Y8366876D01*
X5652906Y8498057D01*
X5601722Y8621627D01*
X5527413Y8732837D01*
X5432837Y8827413D01*
X5321627Y8901722D01*
X5198057Y8952906D01*
X5066876Y8979000D01*
X4933124Y8979000D01*
X4801943Y8952906D01*
X4678373Y8901722D01*
X4567163Y8827413D01*
X4472587Y8732837D01*
X4398278Y8621627D01*
X4347094Y8498057D01*
X4321000Y8366876D01*
X454000Y8366876D01*
X454000Y9366876D01*
X3021000Y9366876D01*
X3021000Y9233124D01*
X3047094Y9101943D01*
X3098278Y8978373D01*
X3172587Y8867163D01*
X3267163Y8772587D01*
X3378373Y8698278D01*
X3501943Y8647094D01*
X3633124Y8621000D01*
X3766876Y8621000D01*
X3898057Y8647094D01*
X4021627Y8698278D01*
X4132837Y8772587D01*
X4227413Y8867163D01*
X4301722Y8978373D01*
X4352906Y9101943D01*
X4379000Y9233124D01*
X4379000Y9366876D01*
X4352906Y9498057D01*
X4301722Y9621627D01*
X4227413Y9732837D01*
X4132837Y9827413D01*
X4073778Y9866876D01*
X10021000Y9866876D01*
X10021000Y9733124D01*
X10047094Y9601943D01*
X10098278Y9478373D01*
X10172587Y9367163D01*
X10267163Y9272587D01*
X10378373Y9198278D01*
X10501943Y9147094D01*
X10633124Y9121000D01*
X10766876Y9121000D01*
X10898057Y9147094D01*
X11021627Y9198278D01*
X11132837Y9272587D01*
X11227413Y9367163D01*
X11301722Y9478373D01*
X11352906Y9601943D01*
X11379000Y9733124D01*
X11379000Y9866876D01*
X11352906Y9998057D01*
X11301722Y10121627D01*
X11227413Y10232837D01*
X11132837Y10327413D01*
X11021627Y10401722D01*
X10898057Y10452906D01*
X10766876Y10479000D01*
X10633124Y10479000D01*
X10501943Y10452906D01*
X10378373Y10401722D01*
X10267163Y10327413D01*
X10172587Y10232837D01*
X10098278Y10121627D01*
X10047094Y9998057D01*
X10021000Y9866876D01*
X4073778Y9866876D01*
X4021627Y9901722D01*
X3898057Y9952906D01*
X3766876Y9979000D01*
X3633124Y9979000D01*
X3501943Y9952906D01*
X3378373Y9901722D01*
X3267163Y9827413D01*
X3172587Y9732837D01*
X3098278Y9621627D01*
X3047094Y9498057D01*
X3021000Y9366876D01*
X454000Y9366876D01*
X454000Y11576876D01*
X17481000Y11576876D01*
X17481000Y11443124D01*
X17507094Y11311943D01*
X17558278Y11188373D01*
X17632587Y11077163D01*
X17727163Y10982587D01*
X17838373Y10908278D01*
X17961943Y10857094D01*
X18093124Y10831000D01*
X18226876Y10831000D01*
X18358057Y10857094D01*
X18470379Y10903619D01*
X18478373Y10898278D01*
X18601943Y10847094D01*
X18733124Y10821000D01*
X18866876Y10821000D01*
X18998057Y10847094D01*
X19121627Y10898278D01*
X19232837Y10972587D01*
X19327413Y11067163D01*
X19401722Y11178373D01*
X19452906Y11301943D01*
X19479000Y11433124D01*
X19479000Y11566876D01*
X19452906Y11698057D01*
X19401722Y11821627D01*
X19327413Y11932837D01*
X19232837Y12027413D01*
X19121627Y12101722D01*
X18998057Y12152906D01*
X18866876Y12179000D01*
X18733124Y12179000D01*
X18601943Y12152906D01*
X18489621Y12106381D01*
X18481627Y12111722D01*
X18358057Y12162906D01*
X18226876Y12189000D01*
X18093124Y12189000D01*
X17961943Y12162906D01*
X17838373Y12111722D01*
X17727163Y12037413D01*
X17632587Y11942837D01*
X17558278Y11831627D01*
X17507094Y11708057D01*
X17481000Y11576876D01*
X454000Y11576876D01*
X454000Y14016876D01*
X3721000Y14016876D01*
X3721000Y13883124D01*
X3747094Y13751943D01*
X3798278Y13628373D01*
X3872587Y13517163D01*
X3967163Y13422587D01*
X4078373Y13348278D01*
X4201943Y13297094D01*
X4333124Y13271000D01*
X4466876Y13271000D01*
X4598057Y13297094D01*
X4721627Y13348278D01*
X4824289Y13416876D01*
X10521000Y13416876D01*
X10521000Y13283124D01*
X10547094Y13151943D01*
X10598278Y13028373D01*
X10672587Y12917163D01*
X10767163Y12822587D01*
X10878373Y12748278D01*
X11001943Y12697094D01*
X11133124Y12671000D01*
X11266876Y12671000D01*
X11398057Y12697094D01*
X11521627Y12748278D01*
X11632837Y12822587D01*
X11727413Y12917163D01*
X11801722Y13028373D01*
X11852906Y13151943D01*
X11855876Y13166876D01*
X12071000Y13166876D01*
X12071000Y13033124D01*
X12097094Y12901943D01*
X12148278Y12778373D01*
X12222587Y12667163D01*
X12317163Y12572587D01*
X12428373Y12498278D01*
X12551943Y12447094D01*
X12683124Y12421000D01*
X12816876Y12421000D01*
X12948057Y12447094D01*
X13071627Y12498278D01*
X13182837Y12572587D01*
X13277413Y12667163D01*
X13322949Y12735312D01*
X13378373Y12698278D01*
X13501943Y12647094D01*
X13633124Y12621000D01*
X13766876Y12621000D01*
X13898057Y12647094D01*
X14021627Y12698278D01*
X14132837Y12772587D01*
X14227413Y12867163D01*
X14301722Y12978373D01*
X14352906Y13101943D01*
X14379000Y13233124D01*
X14379000Y13366876D01*
X14352906Y13498057D01*
X14301722Y13621627D01*
X14227413Y13732837D01*
X14132837Y13827413D01*
X14021627Y13901722D01*
X13898057Y13952906D01*
X13766876Y13979000D01*
X13633124Y13979000D01*
X13501943Y13952906D01*
X13378373Y13901722D01*
X13267163Y13827413D01*
X13172587Y13732837D01*
X13127051Y13664688D01*
X13071627Y13701722D01*
X12948057Y13752906D01*
X12816876Y13779000D01*
X12683124Y13779000D01*
X12551943Y13752906D01*
X12428373Y13701722D01*
X12317163Y13627413D01*
X12222587Y13532837D01*
X12148278Y13421627D01*
X12097094Y13298057D01*
X12071000Y13166876D01*
X11855876Y13166876D01*
X11879000Y13283124D01*
X11879000Y13416876D01*
X11852906Y13548057D01*
X11801722Y13671627D01*
X11727413Y13782837D01*
X11632837Y13877413D01*
X11521627Y13951722D01*
X11398057Y14002906D01*
X11266876Y14029000D01*
X11133124Y14029000D01*
X11001943Y14002906D01*
X10878373Y13951722D01*
X10767163Y13877413D01*
X10672587Y13782837D01*
X10598278Y13671627D01*
X10547094Y13548057D01*
X10521000Y13416876D01*
X4824289Y13416876D01*
X4832837Y13422587D01*
X4927413Y13517163D01*
X5001722Y13628373D01*
X5052906Y13751943D01*
X5079000Y13883124D01*
X5079000Y14016876D01*
X5052906Y14148057D01*
X5001722Y14271627D01*
X4927413Y14382837D01*
X4832837Y14477413D01*
X4721627Y14551722D01*
X4598057Y14602906D01*
X4466876Y14629000D01*
X4333124Y14629000D01*
X4201943Y14602906D01*
X4078373Y14551722D01*
X3967163Y14477413D01*
X3872587Y14382837D01*
X3798278Y14271627D01*
X3747094Y14148057D01*
X3721000Y14016876D01*
X454000Y14016876D01*
X454000Y15466876D01*
X3771000Y15466876D01*
X3771000Y15333124D01*
X3797094Y15201943D01*
X3848278Y15078373D01*
X3922587Y14967163D01*
X4017163Y14872587D01*
X4128373Y14798278D01*
X4251943Y14747094D01*
X4383124Y14721000D01*
X4516876Y14721000D01*
X4648057Y14747094D01*
X4771627Y14798278D01*
X4874289Y14866876D01*
X11371000Y14866876D01*
X11371000Y14733124D01*
X11397094Y14601943D01*
X11448278Y14478373D01*
X11522587Y14367163D01*
X11617163Y14272587D01*
X11728373Y14198278D01*
X11851943Y14147094D01*
X11983124Y14121000D01*
X12116876Y14121000D01*
X12248057Y14147094D01*
X12371627Y14198278D01*
X12482837Y14272587D01*
X12577413Y14367163D01*
X12651722Y14478373D01*
X12702906Y14601943D01*
X12729000Y14733124D01*
X12729000Y14866876D01*
X12702906Y14998057D01*
X12651722Y15121627D01*
X12577413Y15232837D01*
X12482837Y15327413D01*
X12371627Y15401722D01*
X12248057Y15452906D01*
X12116876Y15479000D01*
X11983124Y15479000D01*
X11851943Y15452906D01*
X11728373Y15401722D01*
X11617163Y15327413D01*
X11522587Y15232837D01*
X11448278Y15121627D01*
X11397094Y14998057D01*
X11371000Y14866876D01*
X4874289Y14866876D01*
X4882837Y14872587D01*
X4977413Y14967163D01*
X5051722Y15078373D01*
X5102906Y15201943D01*
X5129000Y15333124D01*
X5129000Y15466876D01*
X5102906Y15598057D01*
X5051722Y15721627D01*
X4977413Y15832837D01*
X4882837Y15927413D01*
X4771627Y16001722D01*
X4648057Y16052906D01*
X4516876Y16079000D01*
X4383124Y16079000D01*
X4251943Y16052906D01*
X4128373Y16001722D01*
X4017163Y15927413D01*
X3922587Y15832837D01*
X3848278Y15721627D01*
X3797094Y15598057D01*
X3771000Y15466876D01*
X454000Y15466876D01*
X454000Y17466876D01*
X10121000Y17466876D01*
X10121000Y17333124D01*
X10147094Y17201943D01*
X10198278Y17078373D01*
X10272587Y16967163D01*
X10367163Y16872587D01*
X10478373Y16798278D01*
X10601943Y16747094D01*
X10733124Y16721000D01*
X10866876Y16721000D01*
X10998057Y16747094D01*
X11121627Y16798278D01*
X11232837Y16872587D01*
X11327413Y16967163D01*
X11401722Y17078373D01*
X11452906Y17201943D01*
X11479000Y17333124D01*
X11479000Y17466876D01*
X11452906Y17598057D01*
X11401722Y17721627D01*
X11327413Y17832837D01*
X11232837Y17927413D01*
X11121627Y18001722D01*
X10998057Y18052906D01*
X10866876Y18079000D01*
X10733124Y18079000D01*
X10601943Y18052906D01*
X10478373Y18001722D01*
X10367163Y17927413D01*
X10272587Y17832837D01*
X10198278Y17721627D01*
X10147094Y17598057D01*
X10121000Y17466876D01*
X454000Y17466876D01*
X454000Y19766876D01*
X8371000Y19766876D01*
X8371000Y19633124D01*
X8397094Y19501943D01*
X8448278Y19378373D01*
X8522587Y19267163D01*
X8617163Y19172587D01*
X8728373Y19098278D01*
X8851943Y19047094D01*
X8983124Y19021000D01*
X9116876Y19021000D01*
X9248057Y19047094D01*
X9371627Y19098278D01*
X9482837Y19172587D01*
X9577413Y19267163D01*
X9651722Y19378373D01*
X9702906Y19501943D01*
X9729000Y19633124D01*
X9729000Y19766876D01*
X14321000Y19766876D01*
X14321000Y19633124D01*
X14347094Y19501943D01*
X14398278Y19378373D01*
X14472587Y19267163D01*
X14567163Y19172587D01*
X14678373Y19098278D01*
X14801943Y19047094D01*
X14933124Y19021000D01*
X15066876Y19021000D01*
X15198057Y19047094D01*
X15321627Y19098278D01*
X15432837Y19172587D01*
X15527413Y19267163D01*
X15601722Y19378373D01*
X15652906Y19501943D01*
X15679000Y19633124D01*
X15679000Y19766876D01*
X15652906Y19898057D01*
X15601722Y20021627D01*
X15527413Y20132837D01*
X15432837Y20227413D01*
X15321627Y20301722D01*
X15198057Y20352906D01*
X15066876Y20379000D01*
X14933124Y20379000D01*
X14801943Y20352906D01*
X14678373Y20301722D01*
X14567163Y20227413D01*
X14472587Y20132837D01*
X14398278Y20021627D01*
X14347094Y19898057D01*
X14321000Y19766876D01*
X9729000Y19766876D01*
X9702906Y19898057D01*
X9651722Y20021627D01*
X9577413Y20132837D01*
X9482837Y20227413D01*
X9371627Y20301722D01*
X9248057Y20352906D01*
X9116876Y20379000D01*
X8983124Y20379000D01*
X8851943Y20352906D01*
X8728373Y20301722D01*
X8617163Y20227413D01*
X8522587Y20132837D01*
X8448278Y20021627D01*
X8397094Y19898057D01*
X8371000Y19766876D01*
X454000Y19766876D01*
X454000Y20716876D01*
X10071000Y20716876D01*
X10071000Y20583124D01*
X10097094Y20451943D01*
X10148278Y20328373D01*
X10222587Y20217163D01*
X10317163Y20122587D01*
X10428373Y20048278D01*
X10551943Y19997094D01*
X10683124Y19971000D01*
X10816876Y19971000D01*
X10948057Y19997094D01*
X11071627Y20048278D01*
X11182837Y20122587D01*
X11277413Y20217163D01*
X11351722Y20328373D01*
X11402906Y20451943D01*
X11429000Y20583124D01*
X11429000Y20716876D01*
X15571000Y20716876D01*
X15571000Y20583124D01*
X15597094Y20451943D01*
X15648278Y20328373D01*
X15722587Y20217163D01*
X15817163Y20122587D01*
X15928373Y20048278D01*
X16051943Y19997094D01*
X16183124Y19971000D01*
X16316876Y19971000D01*
X16448057Y19997094D01*
X16571627Y20048278D01*
X16682837Y20122587D01*
X16777413Y20217163D01*
X16851722Y20328373D01*
X16902906Y20451943D01*
X16929000Y20583124D01*
X16929000Y20716876D01*
X16902906Y20848057D01*
X16851722Y20971627D01*
X16777413Y21082837D01*
X16682837Y21177413D01*
X16571627Y21251722D01*
X16448057Y21302906D01*
X16316876Y21329000D01*
X16183124Y21329000D01*
X16051943Y21302906D01*
X15928373Y21251722D01*
X15817163Y21177413D01*
X15722587Y21082837D01*
X15648278Y20971627D01*
X15597094Y20848057D01*
X15571000Y20716876D01*
X11429000Y20716876D01*
X11402906Y20848057D01*
X11351722Y20971627D01*
X11277413Y21082837D01*
X11182837Y21177413D01*
X11071627Y21251722D01*
X10948057Y21302906D01*
X10816876Y21329000D01*
X10683124Y21329000D01*
X10551943Y21302906D01*
X10428373Y21251722D01*
X10317163Y21177413D01*
X10222587Y21082837D01*
X10148278Y20971627D01*
X10097094Y20848057D01*
X10071000Y20716876D01*
X454000Y20716876D01*
X454000Y21966876D01*
X16471000Y21966876D01*
X16471000Y21833124D01*
X16497094Y21701943D01*
X16548278Y21578373D01*
X16622587Y21467163D01*
X16717163Y21372587D01*
X16828373Y21298278D01*
X16951943Y21247094D01*
X17083124Y21221000D01*
X17216876Y21221000D01*
X17348057Y21247094D01*
X17471627Y21298278D01*
X17582837Y21372587D01*
X17677413Y21467163D01*
X17751722Y21578373D01*
X17802906Y21701943D01*
X17829000Y21833124D01*
X17829000Y21966876D01*
X17802906Y22098057D01*
X17751722Y22221627D01*
X17677413Y22332837D01*
X17582837Y22427413D01*
X17471627Y22501722D01*
X17348057Y22552906D01*
X17216876Y22579000D01*
X17083124Y22579000D01*
X16951943Y22552906D01*
X16828373Y22501722D01*
X16717163Y22427413D01*
X16622587Y22332837D01*
X16548278Y22221627D01*
X16497094Y22098057D01*
X16471000Y21966876D01*
X454000Y21966876D01*
X454000Y24666876D01*
X13521000Y24666876D01*
X13521000Y24533124D01*
X13547094Y24401943D01*
X13598278Y24278373D01*
X13672587Y24167163D01*
X13767163Y24072587D01*
X13878373Y23998278D01*
X14001943Y23947094D01*
X14133124Y23921000D01*
X14266876Y23921000D01*
X14398057Y23947094D01*
X14521627Y23998278D01*
X14632837Y24072587D01*
X14727413Y24167163D01*
X14801722Y24278373D01*
X14852906Y24401943D01*
X14879000Y24533124D01*
X14879000Y24666876D01*
X14852906Y24798057D01*
X14801722Y24921627D01*
X14727413Y25032837D01*
X14632837Y25127413D01*
X14521627Y25201722D01*
X14398057Y25252906D01*
X14266876Y25279000D01*
X14133124Y25279000D01*
X14001943Y25252906D01*
X13878373Y25201722D01*
X13767163Y25127413D01*
X13672587Y25032837D01*
X13598278Y24921627D01*
X13547094Y24798057D01*
X13521000Y24666876D01*
X454000Y24666876D01*
X454000Y26966876D01*
X14321000Y26966876D01*
X14321000Y26833124D01*
X14347094Y26701943D01*
X14398278Y26578373D01*
X14472587Y26467163D01*
X14567163Y26372587D01*
X14678373Y26298278D01*
X14801943Y26247094D01*
X14933124Y26221000D01*
X15066876Y26221000D01*
X15198057Y26247094D01*
X15321627Y26298278D01*
X15432837Y26372587D01*
X15527413Y26467163D01*
X15601722Y26578373D01*
X15652906Y26701943D01*
X15679000Y26833124D01*
X15679000Y26966876D01*
X15652906Y27098057D01*
X15601722Y27221627D01*
X15527413Y27332837D01*
X15432837Y27427413D01*
X15321627Y27501722D01*
X15198057Y27552906D01*
X15066876Y27579000D01*
X14933124Y27579000D01*
X14801943Y27552906D01*
X14678373Y27501722D01*
X14567163Y27427413D01*
X14472587Y27332837D01*
X14398278Y27221627D01*
X14347094Y27098057D01*
X14321000Y26966876D01*
X454000Y26966876D01*
X454000Y29546000D01*
X19546000Y29546000D01*
X19546001Y454000D01*
M02*
